<svg width="236" height="67" viewBox="0 0 236 67" fill="none" xmlns="http://www.w3.org/2000/svg">
<path fill-rule="evenodd" clip-rule="evenodd" d="M225.187 3.10594C219.097 0.633166 208.669 -0.658582 202.394 0.337909C199.856 0.743887 195.289 2.58925 193.905 3.77028C193.028 4.54533 192.936 5.09893 192.89 9.19561C192.797 13.9566 192.705 14.8793 192.243 15.2484C191.32 15.9865 157.731 12.8863 137.66 11.7053C118.328 10.5612 99.6873 11.0041 80.4471 13.034C70.9885 14.0305 71.4499 13.8459 51.8868 13.403C51.1947 9.34325 51.0101 7.71934 50.2719 6.02161C48.1956 1.18678 35.9229 1.07605 30.0171 1.26059C18.0669 1.62966 5.56266 4.39769 1.22554 8.30984C-0.527759 9.89685 -0.43548 11.447 1.73308 18.7177C5.19354 30.2327 5.47038 34.2555 3.11726 41.231C-0.43548 51.7864 0.718011 56.1045 7.54666 57.7285C11.8838 58.7619 12.3452 58.2082 9.3461 55.5509C6.48545 53.0043 6.76229 41.3786 9.85364 36.47C10.638 35.2151 10.5457 33.0376 9.5768 28.3135C8.83857 24.8442 7.54666 15.6544 6.67001 12.7387C5.19354 7.79315 7.8235 6.64903 25.7718 4.10244C30.9855 3.3643 45.2888 3.43811 46.0732 4.06553C48.6109 6.13233 38.2756 8.30985 35.3688 6.35377C33.8923 5.35728 33.6621 5.32037 30.4785 5.54181C20.6969 6.20614 21.3428 7.46099 21.4813 12.4804C17.8824 12.0744 11.2378 11.7422 11.8376 10.9303C12.3913 10.229 10.6842 9.67541 9.53066 10.1921C5.42425 12.0006 13.3602 14.4364 24.526 14.8424C37.6758 15.2853 50.7333 17.2414 99.3182 15.396C127.048 14.3626 131.247 15.5067 150.533 16.6878C169.773 17.8688 205.716 23.9954 228.324 9.38015C231.923 7.055 231.969 7.27645 230.17 15.5436C227.125 29.31 227.125 29.7529 229.894 43.2609C235.476 70.609 155.516 57.101 78.5554 62.268C67.851 62.9693 57.4235 63.5598 48.0572 63.9658C42.0129 64.2241 29.14 62.2311 27.6174 60.7917C26.4639 59.7214 18.9897 58.6511 18.0208 59.4262C16.6828 60.4965 33.8462 68.2101 52.0713 66.5862C62.868 65.6266 80.078 65.0361 91.0131 64.4825C111.545 63.4122 199.626 66.5862 215.36 62.4895C227.956 59.2047 235.523 56.5474 234.877 47.2468C234.323 39.0904 228.186 27.7968 234.738 12.8125C236.353 9.0849 236.353 9.04799 235.107 6.98119C233.631 4.50841 228.324 2.10946 227.678 3.62265C227.678 3.91791 226.756 3.69646 225.187 3.10594ZM220.711 4.39769C225.464 5.13583 227.863 5.72635 227.863 6.16924C227.863 6.87047 220.25 11.0779 219.881 10.5612C219.835 10.4874 219.327 9.6385 218.773 8.67892C216.559 4.91439 207.608 2.55234 207.608 5.76326V6.79665C202.763 6.20614 196.903 6.46449 197.226 4.84058C197.503 3.21667 212.36 3.06903 220.711 4.39769ZM214.39 8.86345C214.667 11.41 214.759 12.3327 214.713 12.3696C213.883 13.403 197.919 15.3591 197.827 14.4364C197.411 9.45397 197.134 6.94428 198.011 7.16572C204.885 8.75273 207.977 8.45747 214.39 8.86345ZM34.0769 7.27645C34.0769 8.01459 27.6174 9.78613 26.0025 8.38366C24.3876 6.98119 34.0769 6.57522 34.0769 7.27645ZM47.6419 10.4874C47.8265 12.0375 47.8265 13.403 47.7342 13.5137C47.5035 13.6983 25.8179 12.628 25.5872 12.4065C25.4488 12.2589 24.9874 10.7457 24.849 10.2659C31.8161 10.1921 34.6767 10.3766 43.9969 8.23604C47.4112 7.42408 47.3189 7.38717 47.6419 10.4874Z" fill="#4E769C"/>
</svg>
