<svg width="376" height="67" viewBox="0 0 376 67" fill="none" xmlns="http://www.w3.org/2000/svg">
<path fill-rule="evenodd" clip-rule="evenodd" d="M358.773 3.10594C349.07 0.633166 332.456 -0.658582 322.458 0.337909C318.415 0.743887 311.138 2.58925 308.933 3.77028C307.536 4.54533 307.389 5.09893 307.316 9.19561C307.169 13.9566 307.021 14.8793 306.286 15.2484C304.816 15.9865 251.3 12.8863 219.323 11.7053C188.522 10.5612 158.824 11.0041 128.17 13.034C113.1 14.0305 113.835 13.8459 82.667 13.403C81.5644 9.34325 81.2703 7.71934 80.0942 6.02161C76.7862 1.18678 57.2332 1.07605 47.8238 1.26059C28.7846 1.62966 8.86254 4.39769 1.95256 8.30985C-0.840836 9.89685 -0.693816 11.447 2.76118 18.7177C8.27446 30.2327 8.71552 34.2555 4.96649 41.231C-0.693816 51.7864 1.14395 56.1045 12.0235 57.7285C18.9335 58.7619 19.6686 58.2082 14.8904 55.5509C10.3328 53.0043 10.7738 41.3786 15.699 36.47C16.9487 35.2151 16.8017 33.0376 15.258 28.3135C14.0818 24.8442 12.0235 15.6544 10.6268 12.7387C8.27446 7.79315 12.4646 6.64903 41.0601 4.10244C49.3668 3.3643 72.155 3.43811 73.4047 4.06553C77.4478 6.13233 60.9815 8.30985 56.3503 6.35377C53.998 5.35728 53.6311 5.32037 48.5589 5.54181C32.9747 6.20614 34.0039 7.46099 34.2244 12.4804C28.4906 12.0744 17.9043 11.7422 18.86 10.9303C19.7421 10.229 17.0222 9.67541 15.1844 10.1921C8.64202 12.0006 21.2858 14.4364 39.0753 14.8424C60.0258 15.2853 80.8293 17.2414 158.236 15.396C202.416 14.3626 209.105 15.5067 239.832 16.6878C270.486 17.8688 327.751 23.9954 363.771 9.38015C369.505 7.055 369.578 7.27645 366.711 15.5436C361.86 29.31 361.86 29.7529 366.271 43.2609C375.166 70.609 247.772 57.101 125.156 62.268C108.102 62.9693 91.4883 63.5598 76.5657 63.9658C66.9358 64.2241 46.4264 62.2311 44.0005 60.7917C42.1628 59.7214 30.2548 58.6511 28.7111 59.4262C26.5793 60.4965 53.9245 68.2101 82.9611 66.5862C100.163 65.6266 127.582 65.0361 145.004 64.4825C177.716 63.4122 318.048 66.5862 343.115 62.4895C363.184 59.2047 375.239 56.5474 374.21 47.2468C373.328 39.0904 363.551 27.7968 373.99 12.8125C376.563 9.0849 376.563 9.04799 374.578 6.98119C372.225 4.50841 363.771 2.10946 362.742 3.62265C362.742 3.91791 361.272 3.69646 358.773 3.10594ZM351.642 4.39769C359.213 5.13583 363.036 5.72635 363.036 6.16924C363.036 6.87047 350.907 11.0779 350.319 10.5612C350.246 10.4874 349.436 9.6385 348.554 8.67892C345.026 4.91439 330.765 2.55234 330.765 5.76326V6.79665C323.046 6.20614 313.71 6.46449 314.225 4.84058C314.666 3.21667 338.336 3.06903 351.642 4.39769ZM341.571 8.86345C342.012 11.41 342.159 12.3327 342.085 12.3696C340.762 13.403 315.328 15.3591 315.181 14.4364C314.52 9.45397 314.078 6.94428 315.475 7.16572C326.428 8.75273 331.353 8.45747 341.571 8.86345ZM54.292 7.27645C54.292 8.01459 44.0005 9.78613 41.4277 8.38366C38.8548 6.98119 54.292 6.57522 54.292 7.27645ZM75.9041 10.4874C76.1981 12.0375 76.1981 13.403 76.0511 13.5137C75.6835 13.6983 41.1336 12.628 40.7661 12.4065C40.5455 12.2589 39.8104 10.7457 39.5899 10.2659C50.69 10.1921 55.2476 10.3766 70.0968 8.23604C75.5365 7.42408 75.3895 7.38717 75.9041 10.4874Z" fill="#4E769C"/>
<path d="M59.838 46.4622V45.4782L61.422 45.1662C61.438 44.5742 61.446 43.9342 61.446 43.2462C61.446 42.5422 61.446 41.9342 61.446 41.4222V40.2942C61.446 39.6382 61.438 39.0942 61.422 38.6622C61.422 38.2142 61.406 37.7502 61.374 37.2702L59.67 37.0542V36.1422L63.99 34.6302L64.374 34.8702L64.302 38.2542V41.4222C64.302 41.9342 64.302 42.5422 64.302 43.2462C64.302 43.9342 64.31 44.5822 64.326 45.1902L65.79 45.4782V46.4622H59.838ZM62.862 32.3982C62.35 32.3982 61.918 32.2382 61.566 31.9182C61.214 31.5982 61.038 31.1902 61.038 30.6942C61.038 30.1822 61.214 29.7662 61.566 29.4462C61.918 29.1262 62.35 28.9662 62.862 28.9662C63.374 28.9662 63.798 29.1262 64.134 29.4462C64.486 29.7662 64.662 30.1822 64.662 30.6942C64.662 31.1902 64.486 31.5982 64.134 31.9182C63.798 32.2382 63.374 32.3982 62.862 32.3982ZM67.2454 46.4622V45.4782L68.8054 45.1662C68.8214 44.5742 68.8294 43.9342 68.8294 43.2462C68.8294 42.5422 68.8294 41.9342 68.8294 41.4222V40.1502C68.8294 39.4942 68.8214 38.9742 68.8054 38.5902C68.8054 38.1902 68.7894 37.7502 68.7574 37.2702L67.0774 37.0542V36.1422L71.0854 34.6302L71.4694 34.8702L71.6374 36.7182C72.8694 35.3262 74.2294 34.6302 75.7174 34.6302C76.7574 34.6302 77.5574 34.9742 78.1174 35.6622C78.6934 36.3502 78.9814 37.4382 78.9814 38.9262V41.4222C78.9814 41.9662 78.9814 42.5822 78.9814 43.2702C78.9814 43.9582 78.9894 44.5982 79.0054 45.1902L80.4694 45.4782V46.4622H74.5414V45.4782L76.0774 45.1662C76.0934 44.5742 76.1014 43.9422 76.1014 43.2702C76.1014 42.5822 76.1014 41.9662 76.1014 41.4222V39.1422C76.1014 38.1982 75.9734 37.5502 75.7174 37.1982C75.4614 36.8302 75.0294 36.6462 74.4214 36.6462C73.5734 36.6462 72.6774 37.0382 71.7334 37.8222V41.4222C71.7334 41.9502 71.7334 42.5582 71.7334 43.2462C71.7334 43.9342 71.7414 44.5822 71.7574 45.1902L73.1734 45.4782V46.4622H67.2454ZM81.8933 46.4622V45.4782L83.5013 45.1662C83.5173 44.5422 83.5253 43.9182 83.5253 43.2942C83.5413 42.6702 83.5493 42.0462 83.5493 41.4222V36.4302H81.7733V35.1822L83.6213 34.9422C83.7493 33.7582 83.9413 32.8062 84.1973 32.0862C84.4693 31.3502 84.8853 30.7022 85.4453 30.1422C85.9893 29.5982 86.5813 29.2142 87.2213 28.9902C87.8773 28.7502 88.5093 28.6302 89.1173 28.6302C89.7413 28.6302 90.2933 28.7422 90.7733 28.9662C91.2693 29.1902 91.5813 29.5822 91.7093 30.1422C91.6933 30.5102 91.5413 30.8222 91.2533 31.0782C90.9813 31.3342 90.6053 31.4622 90.1253 31.4622C89.4373 31.4622 88.7893 31.0622 88.1813 30.2622L87.7493 29.8302C87.7013 29.8622 87.6453 29.9102 87.5813 29.9742C87.1493 30.4062 86.8373 31.0142 86.6453 31.7982C86.4533 32.5822 86.3733 33.6382 86.4053 34.9662H89.3573V36.4302H86.4533V41.4222C86.4533 42.0302 86.4533 42.6462 86.4533 43.2702C86.4693 43.8782 86.4853 44.4942 86.5013 45.1182L88.5173 45.4782V46.4622H81.8933ZM96.0702 46.7982C94.9822 46.7982 93.9982 46.5582 93.1182 46.0782C92.2542 45.5982 91.5662 44.9022 91.0542 43.9902C90.5422 43.0782 90.2862 41.9902 90.2862 40.7262C90.2862 39.4462 90.5502 38.3502 91.0782 37.4382C91.6222 36.5262 92.3342 35.8302 93.2142 35.3502C94.0942 34.8702 95.0462 34.6302 96.0702 34.6302C97.0942 34.6302 98.0462 34.8702 98.9262 35.3502C99.8062 35.8302 100.518 36.5262 101.062 37.4382C101.606 38.3342 101.878 39.4302 101.878 40.7262C101.878 42.0062 101.614 43.1022 101.086 44.0142C100.574 44.9102 99.8782 45.5982 98.9982 46.0782C98.1342 46.5582 97.1582 46.7982 96.0702 46.7982ZM96.0702 45.6222C96.9342 45.6222 97.5902 45.2222 98.0382 44.4222C98.5022 43.6222 98.7342 42.3982 98.7342 40.7502C98.7342 37.4542 97.8462 35.8062 96.0702 35.8062C94.3102 35.8062 93.4302 37.4542 93.4302 40.7502C93.4302 42.3982 93.6542 43.6222 94.1022 44.4222C94.5502 45.2222 95.2062 45.6222 96.0702 45.6222ZM110.678 41.4222C110.678 42.9262 111.206 43.6782 112.262 43.6782C112.55 43.6782 112.846 43.5982 113.15 43.4382C113.47 43.2782 113.838 42.9902 114.254 42.5742L115.262 37.0062C115.054 36.7662 114.846 36.5982 114.638 36.5022C114.446 36.4062 114.238 36.3582 114.014 36.3582C113.55 36.3582 113.054 36.5662 112.526 36.9822C112.014 37.3982 111.574 37.9902 111.206 38.7582C110.854 39.5102 110.678 40.3982 110.678 41.4222ZM117.134 45.4302C116.398 45.4302 115.79 45.2382 115.31 44.8542C114.846 44.4702 114.55 43.9822 114.422 43.3902C113.91 44.0462 113.374 44.5502 112.814 44.9022C112.27 45.2542 111.686 45.4302 111.062 45.4302C110.358 45.4302 109.726 45.1662 109.166 44.6382C108.622 44.0942 108.35 43.2542 108.35 42.1182C108.35 41.2542 108.51 40.4062 108.83 39.5742C109.15 38.7262 109.574 37.9582 110.102 37.2702C110.646 36.5662 111.262 36.0062 111.95 35.5902C112.638 35.1742 113.342 34.9662 114.062 34.9662C114.782 34.9662 115.422 35.2222 115.982 35.7342L117.254 35.0622L117.782 35.4702L116.558 42.0462C116.43 42.7502 116.454 43.2622 116.63 43.5822C116.822 43.8862 117.166 44.0382 117.662 44.0382C118.142 44.0382 118.63 43.8382 119.126 43.4382C119.638 43.0222 120.062 42.3982 120.398 41.5662C120.75 40.7342 120.926 39.6862 120.926 38.4222C120.926 37.0142 120.646 35.8222 120.086 34.8462C119.542 33.8542 118.774 33.0942 117.782 32.5662C116.79 32.0382 115.638 31.7742 114.326 31.7742C112.982 31.7742 111.758 32.0382 110.654 32.5662C109.566 33.0942 108.63 33.8142 107.846 34.7262C107.078 35.6222 106.478 36.6462 106.046 37.7982C105.63 38.9502 105.422 40.1502 105.422 41.3982C105.422 43.0462 105.75 44.4302 106.406 45.5502C107.078 46.6542 107.974 47.4862 109.094 48.0462C110.214 48.6222 111.47 48.9102 112.862 48.9102C114.206 48.9102 115.446 48.6862 116.582 48.2382L116.918 49.1262C115.462 49.8142 113.918 50.1582 112.286 50.1582C110.622 50.1582 109.142 49.8142 107.846 49.1262C106.566 48.4542 105.566 47.4862 104.846 46.2222C104.126 44.9422 103.766 43.4222 103.766 41.6622C103.766 40.1902 104.022 38.7982 104.534 37.4862C105.062 36.1582 105.798 34.9902 106.742 33.9822C107.686 32.9582 108.814 32.1582 110.126 31.5822C111.438 30.9902 112.886 30.6942 114.47 30.6942C116.182 30.6942 117.63 31.0382 118.814 31.7262C119.998 32.4142 120.902 33.3502 121.526 34.5342C122.15 35.7022 122.462 37.0382 122.462 38.5422C122.462 39.6622 122.302 40.6542 121.982 41.5182C121.662 42.3822 121.238 43.1022 120.71 43.6782C120.182 44.2542 119.606 44.6942 118.982 44.9982C118.358 45.2862 117.742 45.4302 117.134 45.4302ZM123.914 46.4622V45.4782L125.498 45.1662C125.514 44.5742 125.522 43.9342 125.522 43.2462C125.522 42.5422 125.522 41.9342 125.522 41.4222V31.1262L123.77 30.8862V29.9502L128.066 28.8702L128.426 29.0862L128.33 32.4702V36.7662C129.562 35.3422 130.93 34.6302 132.434 34.6302C133.474 34.6302 134.282 34.9742 134.858 35.6622C135.434 36.3502 135.722 37.4382 135.722 38.9262V41.4222C135.722 41.9662 135.722 42.5822 135.722 43.2702C135.722 43.9582 135.73 44.5982 135.746 45.1902L137.21 45.4782V46.4622H131.282V45.4782L132.818 45.1662C132.834 44.5742 132.842 43.9422 132.842 43.2702C132.842 42.5822 132.842 41.9662 132.842 41.4222V39.1422C132.842 38.1982 132.714 37.5502 132.458 37.1982C132.218 36.8302 131.794 36.6462 131.186 36.6462C130.29 36.6462 129.362 37.1022 128.402 38.0142V41.4222C128.402 41.9502 128.402 42.5582 128.402 43.2462C128.402 43.9342 128.41 44.5822 128.426 45.1902L129.842 45.4782V46.4622H123.914ZM147.71 46.7502C147.07 46.7502 146.55 46.5902 146.15 46.2702C145.75 45.9502 145.478 45.5102 145.334 44.9502C144.742 45.5582 144.206 46.0222 143.726 46.3422C143.246 46.6462 142.622 46.7982 141.854 46.7982C140.958 46.7982 140.198 46.5422 139.574 46.0302C138.966 45.5022 138.662 44.7502 138.662 43.7742C138.662 43.2622 138.782 42.7902 139.022 42.3582C139.262 41.9102 139.686 41.4942 140.294 41.1102C140.918 40.7262 141.806 40.3502 142.958 39.9822C143.278 39.8702 143.638 39.7582 144.038 39.6462C144.438 39.5342 144.846 39.4222 145.262 39.3102V38.6382C145.262 37.5182 145.102 36.7662 144.782 36.3822C144.478 35.9822 143.934 35.7822 143.15 35.7822C143.006 35.7822 142.846 35.7902 142.67 35.8062C142.51 35.8222 142.342 35.8462 142.166 35.8782L141.878 37.1982C141.814 37.7742 141.646 38.1982 141.374 38.4702C141.102 38.7422 140.766 38.8782 140.366 38.8782C139.598 38.8782 139.15 38.5182 139.022 37.7982C139.166 36.8382 139.678 36.0702 140.558 35.4942C141.454 34.9182 142.63 34.6302 144.086 34.6302C145.478 34.6302 146.494 34.9662 147.134 35.6382C147.774 36.2942 148.094 37.4062 148.094 38.9742V44.2062C148.094 44.9262 148.326 45.2862 148.79 45.2862C149.094 45.2862 149.374 45.1102 149.63 44.7582L150.182 45.2382C149.894 45.7822 149.55 46.1742 149.15 46.4142C148.766 46.6382 148.286 46.7502 147.71 46.7502ZM141.47 43.2702C141.47 43.8942 141.63 44.3502 141.95 44.6382C142.286 44.9102 142.694 45.0462 143.174 45.0462C143.446 45.0462 143.718 44.9822 143.99 44.8542C144.262 44.7262 144.686 44.4622 145.262 44.0622V40.2702C144.926 40.3822 144.606 40.4862 144.302 40.5822C144.014 40.6782 143.766 40.7662 143.558 40.8462C142.758 41.1662 142.206 41.5342 141.902 41.9502C141.614 42.3662 141.47 42.8062 141.47 43.2702ZM150.988 46.4622V45.4782L152.524 45.1902C152.54 44.5822 152.548 43.9342 152.548 43.2462C152.548 42.5422 152.548 41.9342 152.548 41.4222V40.1502C152.548 39.4942 152.54 38.9742 152.524 38.5902C152.524 38.1902 152.508 37.7502 152.476 37.2702L150.796 37.0542V36.1422L154.804 34.6302L155.188 34.8702L155.428 37.7022C155.796 36.7102 156.292 35.9502 156.916 35.4222C157.54 34.8942 158.164 34.6302 158.788 34.6302C159.22 34.6302 159.612 34.7422 159.964 34.9662C160.332 35.1902 160.572 35.5102 160.684 35.9262C160.668 36.5182 160.524 36.9822 160.252 37.3182C159.98 37.6382 159.604 37.7982 159.124 37.7982C158.548 37.7982 158.004 37.5102 157.492 36.9342L157.276 36.6942C156.428 37.3982 155.82 38.3902 155.452 39.6702V41.4222C155.452 41.9182 155.452 42.5102 155.452 43.1982C155.452 43.8702 155.46 44.5022 155.476 45.0942L157.444 45.4782V46.4622H150.988ZM161.557 52.0542V51.0702L163.189 50.7582C163.205 50.0542 163.213 49.3742 163.213 48.7182C163.229 48.0782 163.237 47.4542 163.237 46.8462V40.1502C163.237 39.4942 163.229 38.9742 163.213 38.5902C163.213 38.1902 163.197 37.7502 163.165 37.2702L161.485 37.0542V36.1422L165.469 34.6302L165.853 34.8702L165.973 36.3342C167.061 35.1982 168.261 34.6302 169.573 34.6302C170.437 34.6302 171.221 34.8702 171.925 35.3502C172.629 35.8142 173.181 36.4942 173.581 37.3902C173.997 38.2862 174.205 39.3742 174.205 40.6542C174.205 41.9182 173.973 43.0142 173.509 43.9422C173.061 44.8542 172.461 45.5582 171.709 46.0542C170.957 46.5502 170.117 46.7982 169.189 46.7982C168.597 46.7982 168.045 46.6862 167.533 46.4622C167.021 46.2382 166.533 45.8782 166.069 45.3822V46.8222C166.069 47.4142 166.069 48.0302 166.069 48.6702C166.085 49.3262 166.101 50.0062 166.117 50.7102L167.989 51.0702V52.0542H161.557ZM168.445 36.3342C168.077 36.3342 167.701 36.4302 167.317 36.6222C166.949 36.8142 166.557 37.0702 166.141 37.3902V44.1822C166.813 44.8062 167.525 45.1182 168.277 45.1182C169.077 45.1182 169.749 44.7742 170.293 44.0862C170.853 43.3822 171.133 42.2862 171.133 40.7982C171.133 39.3262 170.885 38.2142 170.389 37.4622C169.893 36.7102 169.245 36.3342 168.445 36.3342ZM184.952 46.7502C184.312 46.7502 183.792 46.5902 183.392 46.2702C182.992 45.9502 182.72 45.5102 182.576 44.9502C181.984 45.5582 181.448 46.0222 180.968 46.3422C180.488 46.6462 179.864 46.7982 179.096 46.7982C178.2 46.7982 177.44 46.5422 176.816 46.0302C176.208 45.5022 175.904 44.7502 175.904 43.7742C175.904 43.2622 176.024 42.7902 176.264 42.3582C176.504 41.9102 176.928 41.4942 177.536 41.1102C178.16 40.7262 179.048 40.3502 180.2 39.9822C180.52 39.8702 180.88 39.7582 181.28 39.6462C181.68 39.5342 182.088 39.4222 182.504 39.3102V38.6382C182.504 37.5182 182.344 36.7662 182.024 36.3822C181.72 35.9822 181.176 35.7822 180.392 35.7822C180.248 35.7822 180.088 35.7902 179.912 35.8062C179.752 35.8222 179.584 35.8462 179.408 35.8782L179.12 37.1982C179.056 37.7742 178.888 38.1982 178.616 38.4702C178.344 38.7422 178.008 38.8782 177.608 38.8782C176.84 38.8782 176.392 38.5182 176.264 37.7982C176.408 36.8382 176.92 36.0702 177.8 35.4942C178.696 34.9182 179.872 34.6302 181.328 34.6302C182.72 34.6302 183.736 34.9662 184.376 35.6382C185.016 36.2942 185.336 37.4062 185.336 38.9742V44.2062C185.336 44.9262 185.568 45.2862 186.032 45.2862C186.336 45.2862 186.616 45.1102 186.872 44.7582L187.424 45.2382C187.136 45.7822 186.792 46.1742 186.392 46.4142C186.008 46.6382 185.528 46.7502 184.952 46.7502ZM178.712 43.2702C178.712 43.8942 178.872 44.3502 179.192 44.6382C179.528 44.9102 179.936 45.0462 180.416 45.0462C180.688 45.0462 180.96 44.9822 181.232 44.8542C181.504 44.7262 181.928 44.4622 182.504 44.0622V40.2702C182.168 40.3822 181.848 40.4862 181.544 40.5822C181.256 40.6782 181.008 40.7662 180.8 40.8462C180 41.1662 179.448 41.5342 179.144 41.9502C178.856 42.3662 178.712 42.8062 178.712 43.2702ZM194.624 35.9742V34.9662H199.184V35.9742L197.84 36.2622L193.904 46.5582H192.488L188.144 36.1902L186.896 35.9742V34.9662H193.208V35.9742L191.36 36.2622L194 43.2222L196.376 36.2862L194.624 35.9742ZM200.135 46.4622V45.4782L201.719 45.1662C201.735 44.5742 201.743 43.9342 201.743 43.2462C201.743 42.5422 201.743 41.9342 201.743 41.4222V40.2942C201.743 39.6382 201.735 39.0942 201.719 38.6622C201.719 38.2142 201.703 37.7502 201.671 37.2702L199.967 37.0542V36.1422L204.287 34.6302L204.671 34.8702L204.599 38.2542V41.4222C204.599 41.9342 204.599 42.5422 204.599 43.2462C204.599 43.9342 204.607 44.5822 204.623 45.1902L206.087 45.4782V46.4622H200.135ZM203.159 32.3982C202.647 32.3982 202.215 32.2382 201.863 31.9182C201.511 31.5982 201.335 31.1902 201.335 30.6942C201.335 30.1822 201.511 29.7662 201.863 29.4462C202.215 29.1262 202.647 28.9662 203.159 28.9662C203.671 28.9662 204.095 29.1262 204.431 29.4462C204.783 29.7662 204.959 30.1822 204.959 30.6942C204.959 31.1902 204.783 31.5982 204.431 31.9182C204.095 32.2382 203.671 32.3982 203.159 32.3982ZM207.35 46.4622V45.4782L208.982 45.1662C208.998 44.5422 209.006 43.9182 209.006 43.2942C209.022 42.6702 209.03 42.0462 209.03 41.4222V31.1262L207.278 30.8862V29.9502L211.646 28.8702L212.006 29.0862L211.91 32.4702V41.4222C211.91 42.0462 211.91 42.6702 211.91 43.2942C211.926 43.9182 211.942 44.5422 211.958 45.1662L213.59 45.4782V46.4622H207.35ZM214.348 52.2942C213.564 52.2942 212.964 52.1342 212.548 51.8142C212.116 51.4942 211.852 51.1502 211.756 50.7822C211.836 50.3502 212.044 50.0142 212.38 49.7742C212.7 49.5502 213.06 49.4382 213.46 49.4382C214.18 49.4382 214.844 49.7902 215.452 50.4942L215.86 50.9502C215.924 50.8702 215.98 50.7742 216.028 50.6622C216.092 50.5502 216.14 50.4302 216.172 50.3022C216.348 49.7742 216.444 48.9902 216.46 47.9502C216.476 46.9262 216.484 45.6862 216.484 44.2302V40.2942C216.484 39.6382 216.476 39.0942 216.46 38.6622C216.46 38.2142 216.444 37.7502 216.412 37.2702L214.732 37.0542V36.1422L219.004 34.6302L219.388 34.8702L219.316 38.2542V44.5902C219.316 45.7262 219.276 46.6782 219.196 47.4462C219.116 48.2302 218.964 48.8862 218.74 49.4142C218.516 49.9582 218.196 50.4382 217.78 50.8542C217.268 51.3662 216.732 51.7342 216.172 51.9582C215.612 52.1822 215.004 52.2942 214.348 52.2942ZM217.9 32.3982C217.404 32.3982 216.972 32.2382 216.604 31.9182C216.252 31.5982 216.076 31.1902 216.076 30.6942C216.076 30.1822 216.252 29.7662 216.604 29.4462C216.972 29.1262 217.404 28.9662 217.9 28.9662C218.412 28.9662 218.844 29.1262 219.196 29.4462C219.548 29.7662 219.724 30.1822 219.724 30.6942C219.724 31.1902 219.548 31.5982 219.196 31.9182C218.844 32.2382 218.412 32.3982 217.9 32.3982ZM227.836 46.7982C226.748 46.7982 225.764 46.5582 224.884 46.0782C224.02 45.5982 223.332 44.9022 222.82 43.9902C222.308 43.0782 222.052 41.9902 222.052 40.7262C222.052 39.4462 222.316 38.3502 222.844 37.4382C223.388 36.5262 224.1 35.8302 224.98 35.3502C225.86 34.8702 226.812 34.6302 227.836 34.6302C228.86 34.6302 229.812 34.8702 230.692 35.3502C231.572 35.8302 232.284 36.5262 232.828 37.4382C233.372 38.3342 233.644 39.4302 233.644 40.7262C233.644 42.0062 233.38 43.1022 232.852 44.0142C232.34 44.9102 231.644 45.5982 230.764 46.0782C229.9 46.5582 228.924 46.7982 227.836 46.7982ZM227.836 45.6222C228.7 45.6222 229.356 45.2222 229.804 44.4222C230.268 43.6222 230.5 42.3982 230.5 40.7502C230.5 37.4542 229.612 35.8062 227.836 35.8062C226.076 35.8062 225.196 37.4542 225.196 40.7502C225.196 42.3982 225.42 43.6222 225.868 44.4222C226.316 45.2222 226.972 45.6222 227.836 45.6222ZM235.339 46.4622V45.4782L236.899 45.1662C236.915 44.5742 236.923 43.9342 236.923 43.2462C236.923 42.5422 236.923 41.9342 236.923 41.4222V40.1502C236.923 39.4942 236.915 38.9742 236.899 38.5902C236.899 38.1902 236.883 37.7502 236.851 37.2702L235.171 37.0542V36.1422L239.179 34.6302L239.563 34.8702L239.731 36.7182C240.963 35.3262 242.323 34.6302 243.811 34.6302C244.851 34.6302 245.651 34.9742 246.211 35.6622C246.787 36.3502 247.075 37.4382 247.075 38.9262V41.4222C247.075 41.9662 247.075 42.5822 247.075 43.2702C247.075 43.9582 247.083 44.5982 247.099 45.1902L248.563 45.4782V46.4622H242.635V45.4782L244.171 45.1662C244.187 44.5742 244.195 43.9422 244.195 43.2702C244.195 42.5822 244.195 41.9662 244.195 41.4222V39.1422C244.195 38.1982 244.067 37.5502 243.811 37.1982C243.555 36.8302 243.123 36.6462 242.515 36.6462C241.667 36.6462 240.771 37.0382 239.827 37.8222V41.4222C239.827 41.9502 239.827 42.5582 239.827 43.2462C239.827 43.9342 239.835 44.5822 239.851 45.1902L241.267 45.4782V46.4622H235.339ZM254.979 41.3742C255.651 41.3742 256.163 41.1102 256.515 40.5822C256.867 40.0542 257.043 39.3502 257.043 38.4702C257.043 37.6222 256.867 36.9502 256.515 36.4542C256.179 35.9422 255.691 35.6862 255.051 35.6862C254.411 35.6862 253.907 35.9502 253.539 36.4782C253.187 36.9902 253.011 37.6782 253.011 38.5422C253.011 39.4062 253.179 40.0942 253.515 40.6062C253.851 41.1182 254.339 41.3742 254.979 41.3742ZM251.955 48.6942C251.955 49.4302 252.227 49.9662 252.771 50.3022C253.315 50.6382 254.091 50.8062 255.099 50.8062C256.363 50.8062 257.315 50.5982 257.955 50.1822C258.611 49.7662 258.939 49.2622 258.939 48.6702C258.939 48.2222 258.779 47.8382 258.459 47.5182C258.155 47.1982 257.619 47.0382 256.851 47.0382H254.187C253.595 47.0382 253.067 46.9902 252.603 46.8942C252.171 47.4702 251.955 48.0702 251.955 48.6942ZM255.027 42.4302C254.307 42.4302 253.643 42.3422 253.035 42.1662C252.731 42.5822 252.579 43.0222 252.579 43.4862C252.579 43.7902 252.675 44.0302 252.867 44.2062C253.075 44.3822 253.443 44.4702 253.971 44.4702H256.971C258.539 44.4702 259.659 44.7662 260.331 45.3582C261.003 45.9502 261.339 46.7502 261.339 47.7582C261.339 48.5102 261.091 49.2142 260.595 49.8702C260.115 50.5262 259.395 51.0542 258.435 51.4542C257.491 51.8542 256.307 52.0542 254.883 52.0542C253.651 52.0542 252.659 51.9262 251.907 51.6702C251.171 51.4142 250.635 51.0702 250.299 50.6382C249.979 50.2062 249.819 49.7262 249.819 49.1982C249.819 48.6862 249.987 48.2142 250.323 47.7822C250.659 47.3662 251.211 46.9742 251.979 46.6062C251.483 46.4302 251.115 46.1822 250.875 45.8622C250.635 45.5262 250.515 45.1422 250.515 44.7102C250.515 44.2462 250.651 43.7902 250.923 43.3422C251.211 42.8782 251.651 42.3742 252.243 41.8302C250.979 41.1902 250.347 40.0942 250.347 38.5422C250.347 37.3582 250.763 36.4142 251.595 35.7102C252.427 34.9902 253.571 34.6302 255.027 34.6302C256.483 34.6302 257.619 34.9662 258.435 35.6382L261.147 34.6062L261.507 34.8462V36.5262H259.179C259.515 37.0702 259.683 37.7422 259.683 38.5422C259.683 39.7102 259.275 40.6542 258.459 41.3742C257.643 42.0782 256.499 42.4302 255.027 42.4302ZM268.145 35.7822C267.761 35.7822 267.377 35.9102 266.993 36.1662C266.625 36.4062 266.305 36.8062 266.033 37.3662C265.777 37.9262 265.617 38.6862 265.553 39.6462H268.841C269.417 39.6462 269.801 39.5262 269.993 39.2862C270.185 39.0462 270.281 38.7102 270.281 38.2782C270.281 37.5422 270.073 36.9422 269.657 36.4782C269.241 36.0142 268.737 35.7822 268.145 35.7822ZM268.145 46.7982C267.025 46.7982 266.041 46.5582 265.193 46.0782C264.345 45.5982 263.681 44.9102 263.201 44.0142C262.721 43.1022 262.481 42.0222 262.481 40.7742C262.481 39.4942 262.753 38.3982 263.297 37.4862C263.857 36.5582 264.577 35.8542 265.457 35.3742C266.353 34.8782 267.305 34.6302 268.313 34.6302C269.257 34.6302 270.081 34.8302 270.785 35.2302C271.489 35.6302 272.033 36.1902 272.417 36.9102C272.817 37.6302 273.017 38.4782 273.017 39.4542C273.017 39.9662 272.969 40.4062 272.873 40.7742H265.529C265.593 42.1502 265.953 43.1822 266.609 43.8702C267.281 44.5582 268.121 44.9022 269.129 44.9022C269.833 44.9022 270.425 44.7662 270.905 44.4942C271.401 44.2062 271.849 43.8382 272.249 43.3902L272.945 44.0142C272.481 44.8942 271.841 45.5822 271.025 46.0782C270.225 46.5582 269.265 46.7982 268.145 46.7982ZM274.761 46.4622V45.4782L276.321 45.1662C276.337 44.5742 276.345 43.9342 276.345 43.2462C276.345 42.5422 276.345 41.9342 276.345 41.4222V40.1502C276.345 39.4942 276.337 38.9742 276.321 38.5902C276.321 38.1902 276.305 37.7502 276.273 37.2702L274.593 37.0542V36.1422L278.601 34.6302L278.985 34.8702L279.153 36.7182C280.385 35.3262 281.745 34.6302 283.233 34.6302C284.273 34.6302 285.073 34.9742 285.633 35.6622C286.209 36.3502 286.497 37.4382 286.497 38.9262V41.4222C286.497 41.9662 286.497 42.5822 286.497 43.2702C286.497 43.9582 286.505 44.5982 286.521 45.1902L287.985 45.4782V46.4622H282.057V45.4782L283.593 45.1662C283.609 44.5742 283.617 43.9422 283.617 43.2702C283.617 42.5822 283.617 41.9662 283.617 41.4222V39.1422C283.617 38.1982 283.489 37.5502 283.233 37.1982C282.977 36.8302 282.545 36.6462 281.937 36.6462C281.089 36.6462 280.193 37.0382 279.249 37.8222V41.4222C279.249 41.9502 279.249 42.5582 279.249 43.2462C279.249 43.9342 279.257 44.5822 279.273 45.1902L280.689 45.4782V46.4622H274.761ZM292.217 46.7982C291.673 46.7982 291.217 46.6142 290.849 46.2462C290.481 45.8622 290.297 45.4142 290.297 44.9022C290.297 44.3582 290.481 43.8942 290.849 43.5102C291.217 43.1262 291.673 42.9342 292.217 42.9342C292.761 42.9342 293.217 43.1262 293.585 43.5102C293.953 43.8942 294.137 44.3582 294.137 44.9022C294.137 45.4142 293.953 45.8622 293.585 46.2462C293.217 46.6142 292.761 46.7982 292.217 46.7982ZM300.356 46.7982C299.62 46.7982 298.94 46.7102 298.316 46.5342C297.708 46.3742 297.1 46.1262 296.492 45.7902L296.468 43.0062H298.076L298.508 45.2382C299.084 45.4782 299.708 45.5982 300.38 45.5982C301.196 45.5982 301.804 45.4542 302.204 45.1662C302.604 44.8782 302.804 44.4782 302.804 43.9662C302.804 43.5182 302.644 43.1582 302.324 42.8862C302.004 42.5982 301.46 42.3262 300.692 42.0702L299.492 41.6622C298.596 41.3742 297.884 40.9502 297.356 40.3902C296.844 39.8302 296.588 39.1262 296.588 38.2782C296.588 37.6062 296.764 36.9982 297.116 36.4542C297.468 35.8942 297.98 35.4542 298.652 35.1342C299.34 34.7982 300.172 34.6302 301.148 34.6302C301.836 34.6302 302.46 34.7182 303.02 34.8942C303.596 35.0542 304.164 35.2942 304.724 35.6142L304.604 38.1342H303.02L302.588 36.1182C302.14 35.9262 301.644 35.8302 301.1 35.8302C300.46 35.8302 299.964 35.9662 299.612 36.2382C299.26 36.5102 299.084 36.8782 299.084 37.3422C299.084 37.7742 299.228 38.1262 299.516 38.3982C299.82 38.6542 300.38 38.9182 301.196 39.1902L302.156 39.4782C303.324 39.8782 304.156 40.3742 304.652 40.9662C305.148 41.5582 305.396 42.2702 305.396 43.1022C305.396 44.1742 304.956 45.0622 304.076 45.7662C303.212 46.4542 301.972 46.7982 300.356 46.7982ZM312.724 35.7822C312.34 35.7822 311.956 35.9102 311.572 36.1662C311.204 36.4062 310.884 36.8062 310.612 37.3662C310.356 37.9262 310.196 38.6862 310.132 39.6462H313.42C313.996 39.6462 314.38 39.5262 314.572 39.2862C314.764 39.0462 314.86 38.7102 314.86 38.2782C314.86 37.5422 314.652 36.9422 314.236 36.4782C313.82 36.0142 313.316 35.7822 312.724 35.7822ZM312.724 46.7982C311.604 46.7982 310.62 46.5582 309.772 46.0782C308.924 45.5982 308.26 44.9102 307.78 44.0142C307.3 43.1022 307.06 42.0222 307.06 40.7742C307.06 39.4942 307.332 38.3982 307.876 37.4862C308.436 36.5582 309.156 35.8542 310.036 35.3742C310.932 34.8782 311.884 34.6302 312.892 34.6302C313.836 34.6302 314.66 34.8302 315.364 35.2302C316.068 35.6302 316.612 36.1902 316.996 36.9102C317.396 37.6302 317.596 38.4782 317.596 39.4542C317.596 39.9662 317.548 40.4062 317.452 40.7742H310.108C310.172 42.1502 310.532 43.1822 311.188 43.8702C311.86 44.5582 312.7 44.9022 313.708 44.9022C314.412 44.9022 315.004 44.7662 315.484 44.4942C315.98 44.2062 316.428 43.8382 316.828 43.3902L317.524 44.0142C317.06 44.8942 316.42 45.5822 315.604 46.0782C314.804 46.5582 313.844 46.7982 312.724 46.7982Z" fill="#4E769C"/>
</svg>
