<svg width="25" height="106" viewBox="0 0 25 106" fill="none" xmlns="http://www.w3.org/2000/svg">
<path d="M3.45395 0H12.5108C16.9371 0 19.2203 0.00841527 20.4162 0.0895399C21.0142 0.130109 21.3444 0.18894 21.52 0.268607C21.6956 0.348274 21.7087 0.410347 21.7526 0.547157C21.7595 0.568582 21.7815 0.663247 21.8063 0.795877C21.8311 0.928512 21.8613 1.09838 21.8958 1.31318C21.9649 1.74278 22.0532 2.32991 22.1524 3.0243C22.3507 4.41309 22.5983 6.25224 22.8564 8.23723C23.3727 12.2072 23.9263 16.7598 24.2048 19.449C25.8516 35.352 24.9527 46.4858 21.3947 54.4772C20.2293 57.0946 17.7572 61.092 15.7028 63.6794C14.589 65.0821 14.0031 66.0527 13.7876 66.9126C13.6949 67.2826 13.6273 67.9467 13.5609 68.8824C13.4945 69.8181 13.4363 71.0183 13.3879 72.3842C13.2911 75.116 13.2289 78.5424 13.2089 82.0042C13.1888 85.4661 13.2104 88.9626 13.2745 91.8233C13.3389 94.6839 13.4445 96.8862 13.6086 97.852C14.0007 100.159 14.587 101.703 15.6968 102.727C16.8067 103.75 18.4247 104.265 20.8816 104.597C21.5893 104.693 22.3977 104.952 23.0235 105.254C23.3364 105.404 23.6029 105.573 23.7872 105.721C23.8572 105.777 23.8998 105.822 23.9423 105.87C23.9224 105.872 23.9119 105.879 23.8886 105.88C23.7336 105.891 23.505 105.9 23.2084 105.91C22.6153 105.93 21.7562 105.946 20.6966 105.96C18.5775 105.988 15.6549 106.002 12.4392 106C7.22585 105.995 4.31412 105.985 2.74992 105.92C1.96782 105.888 1.51768 105.841 1.30011 105.781C1.27582 105.774 1.26481 105.768 1.2464 105.761C1.76818 105.149 2.62316 104.83 5.41089 104.308C7.36189 103.944 8.64576 103.454 9.55152 102.518C10.4573 101.582 10.9669 100.2 11.3653 98.1305C11.5449 97.1974 11.6546 94.9631 11.7233 92.0421C11.7919 89.1212 11.8178 85.5303 11.7949 81.9744C11.7719 78.4184 11.7035 74.898 11.598 72.1056C11.5452 70.7095 11.479 69.4993 11.407 68.5541C11.335 67.6088 11.2653 66.9412 11.1624 66.5843C10.9523 65.8553 10.3003 64.8469 9.45607 63.8584C7.66632 61.763 4.97259 57.4897 3.78208 54.8751C-0.0595855 46.4381 -0.921086 35.3358 0.95406 18.0165C1.26202 15.1721 1.76411 11.093 2.22488 7.61051C2.45526 5.86925 2.67909 4.28185 2.85731 3.0641C2.94642 2.45523 3.02541 1.93355 3.08999 1.54201C3.15456 1.15048 3.20701 0.881672 3.23319 0.785934L3.45395 1.28964e-05V0Z" fill="#A3CCE4"/>
</svg>
