<svg width="22" height="109" viewBox="0 0 22 109" fill="none" xmlns="http://www.w3.org/2000/svg">
<path d="M12.8427 99.8882C12.4022 99.536 12.0225 95.2338 12.0225 95.2338C11.8175 92.4014 12.4782 59.7138 12.4782 59.7138C12.7819 57.8766 17.3385 51.14 17.3385 51.14C21.3177 46.6847 22.396 36.7177 21.8796 28.3583C21.4468 21.3461 20.1179 14.4871 19.0471 7.81177C19.0016 7.52087 18.4548 3.4177 18.1966 2.39191C18.189 2.42253 18.189 2.45315 18.1814 2.48377C18.2346 2.62156 18.2574 2.75935 18.2574 2.89715C18.2574 2.95839 18.2574 3.01963 18.2422 3.08087C18.0144 4.58129 14.8705 5.77549 11.0277 5.77549C11.0201 5.77549 11.0126 5.77549 11.0126 5.77549C11.005 5.77549 11.005 5.77549 10.9974 5.77549C10.9594 5.77549 10.929 5.77549 10.891 5.77549C10.8759 5.77549 10.8607 5.77549 10.8455 5.77549C10.8227 5.77549 10.7999 5.77549 10.7771 5.77549C7.16624 5.72956 4.22739 4.62722 3.8401 3.21866C3.80973 3.11149 3.80213 3.00432 3.80213 2.89715C3.80213 2.78998 3.80973 2.6828 3.8401 2.59094C3.8401 2.57563 3.8401 2.57563 3.83251 2.56032C2.54155 10.0777 1.23539 17.7176 0.369687 25.4799C-0.389704 32.2165 -0.0327894 40.4228 1.94163 46.1948C2.64786 48.2464 3.58191 49.9152 4.66784 51.14C4.66784 51.14 9.22039 57.8766 9.52414 59.7138C9.52414 59.7138 10.2608 92.0952 10.0557 94.9276C10.0557 94.9276 9.60768 99.5207 9.15964 99.8882C9.15964 99.8882 3.07312 100.684 2.73139 103.547C2.73139 103.547 1.75178 106.808 6.27775 108.171C6.27775 108.171 10.4658 108.584 10.9746 108.692V108.707C10.9746 108.707 10.9898 108.707 11.005 108.707C11.0201 108.707 11.0277 108.707 11.0277 108.707V108.692C11.5365 108.584 15.7286 108.171 15.7286 108.171C20.2546 106.808 19.275 103.547 19.275 103.547C18.9408 100.684 12.8427 99.8882 12.8427 99.8882Z" fill="#A3CCE4"/>
<path d="M10.8167 5.76304C10.8394 5.76304 10.8621 5.76304 10.8924 5.76304C10.9 5.76304 10.9152 5.76304 10.9303 5.76304C10.9682 5.76304 11.0137 5.76304 11.0515 5.76304C14.8099 5.76304 17.8861 4.30695 18.2043 2.45236C17.6966 1.07291 14.6962 0 11.0667 0C7.35026 0 4.28922 1.11889 3.9028 2.55965C4.30437 4.3376 7.23661 5.70173 10.8167 5.76304V5.76304Z" fill="#A3CCE4"/>
<path d="M3.89522 3.20343C4.28164 4.61353 7.21387 5.71709 10.8091 5.76307C7.22903 5.71709 4.30437 4.33764 3.89522 2.57501C3.86491 2.66698 3.84976 2.77427 3.84976 2.88156C3.84976 2.98885 3.86491 3.09614 3.89522 3.20343Z" fill="#A3CCE4"/>
<path d="M11.0515 5.76307C11.0591 5.76307 11.0591 5.76307 11.0667 5.76307C14.9008 5.76307 18.0376 4.56755 18.2725 3.05015C18.28 3.00417 18.28 2.94286 18.28 2.88155C18.28 2.72828 18.2573 2.59034 18.2043 2.45239C17.886 4.30699 14.8098 5.76307 11.0515 5.76307Z" fill="#A3CCE4"/>
</svg>
