<svg width="64" height="64" viewBox="0 0 64 64" fill="none" xmlns="http://www.w3.org/2000/svg">
<path d="M10.6666 41.8825H53.3333V50.6668H10.6666V41.8825ZM10.6666 41.8825H53.3333V27.7514C53.3333 27.7428 53.3263 27.7358 53.3177 27.7358H10.6823C10.6736 27.7358 10.6666 27.7428 10.6666 27.7514V41.8825ZM41.247 13.3335C43.8308 13.3335 45.9253 15.4228 45.9253 18.0002L45.9093 17.6348L46.0055 17.609C50.106 18.9948 53.0978 22.7389 53.32 27.2017L53.3311 27.705L53.3333 27.7202C53.3333 27.7288 53.3263 27.7358 53.3177 27.7358H10.7723C10.7637 27.7358 10.7567 27.7288 10.7567 27.7202C10.7567 27.7133 10.7612 27.7072 10.7678 27.7052L30.8772 21.6209L36.9973 19.9544C36.7221 19.3599 36.5686 18.6979 36.5686 18.0002C36.5686 15.4228 38.6632 13.3335 41.247 13.3335ZM41.247 22.6668C43.8308 22.6668 45.9253 20.5775 45.9253 18.0002C45.9253 15.4228 43.8308 13.3335 41.247 13.3335C38.6632 13.3335 36.5686 15.4228 36.5686 18.0002C36.5686 20.5775 38.6632 22.6668 41.247 22.6668Z" stroke="#051D46" stroke-width="2" stroke-linejoin="round"/>
<path d="M12.2196 40.837C12.2196 37.3479 12.1408 33.8523 12.1408 30.3693C12.1408 30.2607 12.0557 29.4081 12.1758 29.354C12.5325 29.1936 13.2505 29.3502 13.6156 29.3803C14.7659 29.475 15.883 29.6917 17.0159 29.9054C18.8801 30.2572 20.7676 30.5075 22.6436 30.7894C24.2024 31.0236 25.7658 31.3035 27.3436 31.3671C28.4766 31.4128 29.608 31.4018 30.7307 31.5421" stroke="#051D46" stroke-linecap="round"/>
<path d="M15.1342 35.6381C16.5552 35.6381 17.8895 35.4946 19.3002 35.323C20.9147 35.1267 22.5408 35.0422 24.1578 34.8679C25.503 34.7229 26.8322 34.4728 28.1794 34.3428C29.8452 34.182 31.4563 33.9052 33.1376 33.9052C35.0717 33.9052 36.9994 33.9346 38.9316 33.9795C41.0973 34.0299 43.2502 34.1415 45.4171 34.1415C46.2719 34.1415 48.8363 34.1415 47.9815 34.1415" stroke="#051D46" stroke-width="10" stroke-linecap="round"/>
<path d="M47.2726 34.2991C46.8179 34.3173 45.9605 34.2037 45.579 34.5004C45.3891 34.6481 45.2641 34.6142 45.6096 34.6142C46.3007 34.6142 46.9797 34.5354 47.6664 34.5354" stroke="#051D46" stroke-width="10" stroke-linecap="round"/>
<path d="M21.2783 37.8438C22.0536 37.5647 23.0335 37.6863 23.8559 37.6863C24.5471 37.6863 25.234 37.765 25.9258 37.765C27.1824 37.765 28.4391 37.6996 29.6893 37.6863C32.5519 37.6558 35.4168 37.6863 38.2796 37.6863C41.1198 37.6863 43.9599 37.6863 46.8 37.6863" stroke="#051D46" stroke-width="10" stroke-linecap="round"/>
<path d="M51.5262 39.8918C51.5111 39.8795 51.0536 39.4465 51.0536 39.6161C51.0536 39.6715 51.0537 39.7492 51.1324 39.7168C51.3362 39.6328 51.5031 39.267 51.605 39.0866C51.9585 38.4604 52.0776 37.6703 52.0776 36.9598C52.0776 36.1711 52.0134 35.3984 51.9988 34.6142C51.9843 33.827 51.6838 33.0498 51.6838 32.2686C51.6838 31.4788 51.605 30.7618 51.605 29.9842C51.605 29.4361 48.5053 29.6516 48.126 29.6516C45.8139 29.6516 43.5018 29.6516 41.1898 29.6516C40.1278 29.6516 39.0659 29.6516 38.0039 29.6516C36.4835 29.6516 34.9809 30.0268 33.4702 30.0455C32.0464 30.0631 30.6214 30.1118 29.1991 30.1242C27.8242 30.1363 26.4654 30.3149 25.0943 30.3606C23.6868 30.4075 22.2982 30.6756 20.8845 30.6756C19.4819 30.6756 18.0849 30.7047 16.6877 30.6012C15.7054 30.5285 14.741 30.4461 13.7689 30.2905C13.6022 30.2639 13.1059 30.2867 13.0074 30.1636C12.9177 30.0515 12.7844 29.9373 12.6486 29.8879C12.4384 29.8115 12.2745 29.7304 12.6179 29.7304C13.0235 29.7304 13.429 29.7304 13.8345 29.7304C14.8514 29.7304 15.8565 29.8274 16.8672 29.8836C19.4202 30.0254 22.0206 29.8879 24.5779 29.8879C25.1848 29.8879 25.7916 29.8879 26.3984 29.8879C26.4339 29.8879 26.6574 29.8974 26.6435 29.9054C26.3287 30.0877 26.0142 30.2494 25.7113 30.4568C24.5477 31.2538 23.4796 32.2587 22.5124 33.2838C21.7592 34.082 21.0479 34.9234 20.2718 35.6995C19.6486 36.3227 18.9324 36.7801 18.2588 37.3361C17.7637 37.7448 17.0606 38.0851 17.296 38.8503C17.4077 39.2132 18.1873 39.9706 17.4798 39.9706C17.1877 39.9706 16.9205 39.9873 16.6309 40.0318C15.9745 40.1328 15.2864 40.1281 14.6222 40.1281C14.1601 40.1281 13.612 40.2664 13.1649 40.2025C12.8874 40.1628 12.6374 40.0493 12.3466 40.0493C12.1564 40.0493 12.2329 39.8704 12.2153 39.7299C12.1437 39.1566 11.8258 38.5413 11.8258 37.9575C11.8258 37.2983 11.721 37.0222 12.3772 36.741" stroke="#051D46" stroke-width="3" stroke-linecap="round"/>
<path d="M11.6683 44.4604C11.8888 44.4604 12.0493 44.436 12.2372 44.3204C12.5475 44.1294 13.2688 44.2607 13.6332 44.1847C14.2145 44.0636 14.8264 44.0185 15.4186 43.9922C16.3348 43.9515 17.2548 43.837 18.1712 43.8303C20.2372 43.8152 22.3154 43.7138 24.3766 43.7559C27.8495 43.8268 31.3209 44.2268 34.7962 44.141C36.8087 44.0913 38.8174 43.909 40.8309 43.909C42.6104 43.909 44.3935 43.7525 46.1523 43.5327C47.4985 43.3644 48.7644 43.1213 50.1302 43.1213C50.5412 43.1213 50.9582 43.0985 51.3686 43.1213C51.6843 43.1389 51.5761 43.4174 51.6093 43.6333C51.6547 43.9283 51.6837 44.188 51.6837 44.4911C51.6837 44.7386 51.8357 44.9338 51.8413 45.1869C51.8523 45.6832 51.9863 46.218 51.8763 46.7054C51.8006 47.0407 51.6148 47.4242 51.605 47.7688C51.6 47.9435 51.6981 49.1442 51.5218 49.1735C51.1361 49.2378 50.8995 47.9841 50.8173 47.7688C50.5237 47.0004 50.4683 46.1822 50.1871 45.4188C50.1333 45.2729 50.0829 44.8368 50.0252 44.9812C49.9316 45.215 49.8167 45.4127 49.7495 45.6639C49.5074 46.5676 49.4918 47.5101 49.1806 48.3815C49.0916 48.6306 49.0102 48.8658 48.848 49.0685C48.8311 49.0896 48.7571 49.1828 48.778 49.1254C48.9257 48.7192 48.9754 48.2725 49.0493 47.8476C49.1594 47.2143 49.0843 46.5204 49.0843 45.8783C49.0843 45.6506 49.0992 45.6107 49.1631 45.8783C49.2823 46.3774 49.2069 46.8667 49.1237 47.3662C49.0872 47.585 48.7856 49.0782 48.5329 49.1079C48.1441 49.1536 47.758 49.0379 47.3732 49.0379C46.4414 49.0379 45.5019 49.1671 44.5681 49.191C42.961 49.2323 41.3719 49.423 39.7631 49.423C37.3301 49.423 34.9132 49.7963 32.4856 49.5805C30.1165 49.3699 27.7179 49.2654 25.3394 49.2654C22.8162 49.2654 20.3113 48.9504 17.7861 48.9504C16.0584 48.9504 14.3185 49.0291 12.5829 49.0291C12.3216 49.0291 11.9003 49.1172 11.6508 49.0116C11.2659 48.8488 11.2744 48.2576 11.2744 47.922C11.2744 47.6122 11.3731 46.7951 11.8258 46.7448C12.2389 46.6989 12.6551 46.5368 13.0686 46.4691C13.82 46.3461 14.5774 46.23 15.3311 46.1234C16.6842 45.932 18.0967 46.0359 19.4578 46.0359C25.5874 46.0359 31.7282 46.1677 37.8464 45.8433C40.9898 45.6766 44.1394 45.4001 47.277 45.1256C48.1217 45.0517 48.9672 44.8629 49.7976 44.7799C50.4225 44.7174 52.2942 44.5392 51.6662 44.5392C51.1899 44.5392 50.6808 44.9978 50.3052 45.2481C49.853 45.5497 49.3309 45.8464 48.848 46.0971C48.4922 46.2819 48.1752 46.5055 47.999 46.8848C47.9412 47.0093 47.7689 47.0149 47.6489 47.0599C47.1034 47.2644 46.5409 47.4204 45.9685 47.5281C42.1966 48.2381 38.2276 47.9263 34.4111 47.9263C30.8124 47.9263 27.2042 48.0081 23.6064 47.9263C23.1127 47.9151 22.6177 47.8203 22.1273 47.7688C21.7093 47.7249 21.2452 47.7523 20.8363 47.6463C20.3589 47.5225 20.1828 47.6278 20.4906 47.2174" stroke="#051D46" stroke-width="3" stroke-linecap="round"/>
<path d="M18.6663 26.8653C18.2198 26.9318 18.558 26.7909 18.7412 26.7627C18.8531 26.7455 18.94 26.6491 19.0489 26.6157C19.3761 26.5155 19.7127 26.4345 20.0331 26.3135C20.5131 26.1324 20.9841 25.9931 21.4831 25.8672C22.0173 25.7323 22.5343 25.5174 23.069 25.3959C24.4543 25.081 25.8987 24.9009 27.2249 24.3645C29.2521 23.5445 31.2415 22.5636 33.3798 22.0523C34.0367 21.8952 34.6929 21.7725 35.3538 21.6475C35.5196 21.6161 35.8211 21.4776 35.9554 21.6503C36.0398 21.7587 35.9671 21.7864 35.8639 21.8277C35.833 21.8401 36.0481 22.0119 36.0607 22.0245C36.141 22.1048 36.207 22.1985 36.2881 22.2796C36.7402 22.7317 37.2604 23.0619 37.8573 23.2971C38.6918 23.6259 39.6608 23.9639 40.5604 24.0457C41.3596 24.1183 42.2337 24.2175 43.0252 24.0401C43.8806 23.8484 44.7634 23.3244 45.343 22.6705C46.112 21.8029 46.8565 21.0266 46.9648 19.8343C47.0017 19.4294 47.2117 19.5184 47.4999 19.679C48.0699 19.9967 48.452 20.5033 48.8973 20.9655C49.3757 21.4621 49.7579 22.0954 50.1781 22.6456C50.5279 23.1035 50.7429 23.5066 50.9433 24.0484C51.1241 24.5373 51.1842 25.0616 51.3037 25.5677C51.3677 25.8388 51.4438 26.0907 51.5228 26.3579C51.5633 26.4949 51.6967 26.6421 51.703 26.7765C51.7253 27.2559 51.536 27.3802 51.0542 27.5029C50.6889 27.596 50.2618 27.6298 49.9286 27.4142C49.632 27.2223 49.4887 26.6698 49.4074 26.3607C49.0495 24.9994 48.8947 23.5967 48.3594 22.2851C48.2768 22.0828 48.1692 21.6409 47.938 21.5865C47.6812 21.5261 47.782 21.7818 47.816 21.9469C47.9446 22.5714 48.0703 23.199 48.1487 23.8322C48.256 24.6989 48.2943 25.5509 48.1986 26.4217C48.16 26.7727 48.0137 26.4547 47.9574 26.2969C47.7412 25.6917 47.5413 25.0648 47.3835 24.4421C47.2757 24.0171 47.1938 23.5836 47.1118 23.1529C47.057 22.8654 47.1006 23.1897 47.1783 23.3165C47.5554 23.9317 48.1746 24.3803 48.8806 24.5142C49.2401 24.5824 49.6054 24.618 49.9674 24.6695C50.1657 24.6977 50.4957 24.6935 50.6827 24.7915C51.2673 25.0977 49.1394 26.6888 49.047 26.7654C48.8062 26.9651 48.6535 27.1253 48.6588 26.7377C48.6737 25.6606 48.9549 24.5368 48.7115 23.469C48.6098 23.0229 48.233 22.5116 47.7384 22.4459C47.0167 22.3502 46.3129 23.2795 46.0472 23.8266C45.8015 24.3325 45.606 25.3039 46.2745 25.5955C46.388 25.645 46.639 25.7275 46.7458 25.6121C47.0474 25.2864 47.2661 24.3269 46.9233 23.9708C46.4786 23.509 45.2294 25.5248 45.1045 25.7951C44.913 26.2096 44.8602 26.7719 45.4372 26.7654C45.953 26.7597 46.2282 26.2925 46.3383 25.8311C46.6382 24.5736 45.1468 24.6063 44.3837 25.0465C43.8088 25.3782 43.3374 25.8827 42.9614 26.4217C42.8948 26.5172 42.4142 27.1406 42.6731 27.3033C43.2332 27.6554 44.0511 27.1565 44.3837 26.7266C44.578 26.4755 44.8408 26.0803 44.83 25.7424C44.8088 25.0779 43.748 25.3156 43.4133 25.4374C42.6887 25.7012 42.1016 26.1923 41.5669 26.7322C41.566 26.733 40.8331 27.4494 40.8848 27.5528C40.9422 27.6675 41.1387 27.5082 41.2591 27.4641C41.7868 27.2706 42.1923 26.9289 42.54 26.491C42.6868 26.3061 43.0394 25.8875 42.9697 25.601C42.8556 25.1316 41.7455 25.103 41.4338 25.0964C40.4147 25.0751 39.4234 25.3274 38.4672 25.6565C37.2349 26.0805 35.9077 26.6146 34.8658 27.4197C34.2755 27.8759 35.363 27.3772 35.4785 27.2978C36.0338 26.9158 36.7992 26.1432 36.679 25.382C36.6357 25.1079 36.2796 25.3322 36.1716 25.4014C35.555 25.7968 34.9481 26.4031 34.6301 27.0704C34.0376 28.3138 36.767 27.5975 37.1448 27.4613C37.9955 27.1547 38.7719 26.6666 39.3877 26.0002C39.4155 25.9702 40.241 24.9774 39.8257 24.8469C39.505 24.7461 38.9867 25.3109 38.8388 25.4624C38.2637 26.0514 37.6451 26.8529 37.5773 27.7081C37.4715 29.043 39.3627 28.3545 39.9755 28.0741C40.3748 27.8913 40.9075 27.6393 41.1704 27.2617C41.3977 26.9352 41.0399 26.7686 40.7601 26.8237C40.2047 26.9329 39.6633 27.285 39.2103 27.6027C38.8875 27.8291 38.5034 28.147 38.2233 28.4345C38.1245 28.5358 37.8524 28.758 37.9904 28.7893C38.1778 28.8319 38.7407 28.1751 38.7944 28.1184C39.3746 27.506 39.8743 26.8179 40.0725 25.9836C40.1595 25.6176 40.2505 25.0036 39.9366 24.6916C39.391 24.1492 38.2322 24.8278 37.7741 25.1131C37.0379 25.5715 36.3529 26.1731 35.8084 26.8486C35.6153 27.0882 35.2109 27.6969 35.5173 27.7247C35.7519 27.746 36.1263 27.4607 36.2825 27.3421C36.9532 26.8332 37.4912 26.126 37.7741 25.3293C37.8723 25.0529 37.9828 24.6245 37.6688 24.4338C37.0516 24.0591 36.1724 24.6888 35.728 25.0521C35.2021 25.4819 34.7406 26.0141 34.4028 26.6046C34.3301 26.7318 34.1652 27.0448 34.3113 27.0344C34.5151 27.0198 34.8387 26.6283 34.9296 26.5215C35.4627 25.8946 36.0519 25.0175 36.0386 24.1538C36.0314 23.6907 35.6923 23.5568 35.29 23.6242C34.2871 23.7924 33.4132 24.5674 32.7199 25.2572C32.6324 25.3443 31.8992 26.0085 31.9409 26.2775C31.9711 26.4727 32.8436 25.9068 32.8447 25.906C33.2958 25.5698 33.6735 25.1494 33.9703 24.6722C34.0886 24.482 34.6432 23.5929 34.3806 23.3304C34.1712 23.121 33.5162 23.6101 33.4158 23.6825C32.596 24.273 31.9022 25.0869 31.4474 25.9892C31.4018 26.0795 31.0455 26.7045 31.378 26.7627C32.1367 26.8954 33.1881 26.1396 33.7152 25.7147C34.3129 25.2329 34.8675 24.6212 35.1236 23.8821C35.3135 23.334 35.1828 22.8316 34.4971 22.9616C33.5923 23.1332 32.7501 23.7211 32.0767 24.3146C31.5348 24.7922 31.1952 25.1892 30.8041 25.7785C30.6857 25.9569 30.4502 26.3214 30.4326 26.588C30.4132 26.883 30.9418 26.6618 31.0204 26.6324C31.7493 26.3596 32.4814 25.8908 32.9833 25.2905C33.1952 25.0371 33.4512 24.6405 33.3437 24.2869C33.1984 23.8085 32.4145 24.1063 32.146 24.2037C31.1614 24.561 30.2288 25.0851 29.3181 25.5955C28.4856 26.062 27.5058 26.5545 26.8617 27.2867C26.6055 27.5779 27.0725 27.4064 27.1473 27.3837C28.0201 27.1184 28.8183 26.6938 29.4845 26.0612C29.9456 25.6233 30.3816 25.0706 30.5158 24.431C30.5996 24.0317 30.4224 23.6717 29.9669 23.8322C29.3711 24.042 28.8625 24.6028 28.467 25.0604C28.084 25.5034 27.8153 25.8728 27.5382 26.3801C27.4797 26.4871 27.263 26.866 27.3108 27.0676C27.3763 27.3435 28.0379 26.9312 28.065 26.9152C28.6863 26.5477 29.4131 25.9685 29.5732 25.2184C29.6576 24.8226 29.5281 24.4023 29.1379 24.2342C28.2877 23.868 27.2317 24.6705 26.6233 25.1491C26.0012 25.6385 25.3863 26.2264 24.9709 26.9096C24.6702 27.4041 25.2496 27.2694 25.5476 27.2146C26.1894 27.0966 26.8316 26.9001 27.4134 26.6019C27.819 26.394 28.4784 25.9995 28.4503 25.4513C28.4295 25.045 27.8416 25.2761 27.6546 25.3404C26.4792 25.7449 25.3329 26.3965 24.4386 27.2645C24.4083 27.2938 23.7122 27.972 23.7981 28.1572C23.8917 28.3587 25.0168 27.6941 25.0596 27.6665C25.5268 27.3654 26.0172 26.966 26.2518 26.4438C26.5172 25.853 26.0595 25.7529 25.6307 26.028C25.1737 26.3211 24.7814 26.7474 24.4691 27.1869C24.4022 27.281 24.0416 27.7479 24.4136 27.6859C25.2306 27.5497 26.3254 26.9366 26.8229 26.2609C27.2924 25.6232 25.3864 26.9793 24.8101 27.5223C24.5881 27.7315 24.2171 28.0643 24.1336 28.3901C24.1219 28.4358 24.2329 28.3669 24.2611 28.3291C24.3709 28.1824 24.5052 27.9295 24.5716 27.7691C24.8182 27.1735 25.0984 25.8278 24.0116 26.1832C23.4109 26.3797 22.8554 26.7381 22.3537 27.1148C22.126 27.2857 21.5235 27.8133 21.8047 27.7691C22.3526 27.683 22.9623 27.413 23.4543 27.1896C24.1865 26.8573 25.2095 26.395 25.5586 25.5982C25.6634 25.3591 25.5211 25.2949 25.3091 25.3792C24.7321 25.6088 24.2151 26.0969 23.812 26.5547C23.6762 26.7089 23.3413 27.0118 23.5264 27.1009C23.771 27.2187 24.1773 26.7257 24.2778 26.5797C24.3588 26.462 24.5055 25.8173 24.6548 25.8173" stroke="#051D46" stroke-width="2" stroke-linecap="round"/>
<path d="M10 44H55M10 29H55" stroke="#063424" stroke-width="2" stroke-linecap="round" stroke-linejoin="round"/>
</svg>
