<svg width="30" height="30" viewBox="0 0 30 30" fill="none" xmlns="http://www.w3.org/2000/svg">
<path d="M29.724 18.1391C29.5518 19.4122 28.9889 20.554 28.4206 21.6752C27.4613 23.5946 26.1164 25.2823 24.4748 26.6261C22.5349 28.2087 20.3167 29.1563 17.8922 29.5936C16.3892 29.8648 14.8752 30.0622 13.3402 29.982C9.63966 29.7885 6.44535 28.4573 3.84916 25.6628C2.74763 24.4574 1.81134 23.1029 1.06627 21.6367C0.636038 20.8127 0.474503 19.9508 0.329585 19.0675C0.0617432 17.4332 -0.103093 15.8005 0.0729847 14.1302C0.290362 12.0674 0.844008 10.1339 1.84475 8.33693C3.05797 6.11676 4.72026 4.19037 6.7193 2.68791C8.71003 1.20379 10.9631 0.443459 13.3974 0.141127C15.978 -0.200661 18.6004 0.0804208 21.0572 0.962046C23.4675 1.83246 25.6187 3.16058 27.0734 5.38803C28.528 7.61548 29.5375 10.0209 29.88 12.7434C30.1644 15.0023 29.8735 17.0347 29.724 18.1391ZM28.3181 14.7716C28.3059 13.1859 28.1607 11.6175 27.6015 10.143C27.2287 9.16018 26.7993 7.7613 26.1553 6.75486C25.8655 6.30197 25.5152 5.88866 25.1694 5.47693C23.9263 3.99674 22.3158 3.04276 20.5208 2.3853C18.1927 1.51505 15.6914 1.25075 13.2399 1.61595C10.735 1.98767 8.4907 2.93342 6.60347 4.69135C6.04657 5.21119 5.51602 5.76008 5.01389 6.33594C2.88141 8.77697 1.7316 11.6925 1.73282 16.4884C1.73355 19.4785 3.16759 22.0345 5.22149 24.2189C7.40162 26.5378 10.0298 27.7002 13.1037 27.9599C14.5965 28.0856 16.068 27.9186 17.536 27.6854C21.9256 26.9883 25.0588 24.5471 27.0791 20.4933C28.2967 18.0498 28.2446 15.6697 28.3181 14.7716Z" fill="#051d46"/>
<circle cx="15" cy="15" r="14" fill="#051d46"/>
<path d="M16.4095 13.7344C16.3734 14.1366 16.6802 14.4823 17.0841 14.4823V14.4823C18.9852 14.4849 20.8863 14.4843 22.7873 14.4949C23.0361 14.4969 23.2836 14.5299 23.5247 14.5933C23.6495 14.6199 23.7615 14.6903 23.8415 14.7924C23.9215 14.8945 23.9646 15.0221 23.9635 15.1532C23.976 15.2841 23.9448 15.4154 23.8752 15.5258C23.8055 15.636 23.7014 15.7188 23.5801 15.7601C23.2651 15.8676 22.9358 15.9243 22.6039 15.9281C20.7449 15.911 18.886 15.8677 17.0272 15.8344C16.6304 15.8272 16.233 15.8359 15.8367 15.8152C15.6294 15.8079 15.4242 15.7698 15.2275 15.702C14.9166 15.5876 14.7907 15.3429 14.814 14.9933C14.8629 14.2659 14.897 13.5373 14.923 12.8087C15.0075 10.4471 15.0832 8.08518 15.1701 5.7236C15.1897 5.48851 15.226 5.25518 15.2787 5.02551C15.336 4.71023 15.5151 4.52745 15.8364 4.52808C16.1687 4.52871 16.3212 4.7516 16.3787 5.04891C16.4255 5.27997 16.4503 5.51519 16.4527 5.75123C16.4505 8.28654 16.4428 10.8219 16.4296 13.3573C16.4289 13.4813 16.4211 13.6053 16.4095 13.7344Z" fill="#F2F0EF"/>
</svg>
