<svg width="68" height="102" viewBox="0 0 68 102" fill="none" xmlns="http://www.w3.org/2000/svg">
<mask id="path-1-inside-1_29_49" fill="white">
<path d="M6.07324 0.00292969H6.0791C6.08269 0.00319429 6.08792 0.00340291 6.09473 0.00390625C6.10884 0.00495031 6.12993 0.00675287 6.15723 0.00878906C6.21228 0.0128953 6.29409 0.0194214 6.39844 0.0273438C6.60707 0.0431836 6.90883 0.0661925 7.28223 0.0957031C8.02953 0.154766 9.06475 0.239534 10.2148 0.34082C12.5069 0.542679 15.2843 0.813977 17.1504 1.08789C17.8752 1.19429 18.511 1.58733 19.0439 2.05957C19.5836 2.53783 20.0872 3.1585 20.5508 3.83887C21.478 5.19982 22.3296 6.92785 23.0469 8.59473C23.738 10.2008 24.3194 11.787 24.7373 13H49.0137C49.2737 7.98574 53.421 4 58.5 4C63.7467 4 68 8.25329 68 13.5C68 18.7467 63.7467 23 58.5 23C57.3156 23 56.1824 22.7817 55.1367 22.3857L35.0391 46.3799C34.6907 47.0174 34.3379 47.6862 34.0459 48.2891C33.7271 48.9474 33.4973 49.4919 33.4111 49.8281C33.2613 50.4124 33.107 51.5724 32.9736 52.7803V96.3008C33.0453 96.467 33.121 96.6324 33.2002 96.7793C33.3107 96.9843 33.4062 97.1189 33.4736 97.1836L33.54 97.2344C33.5764 97.2595 33.6284 97.2925 33.6982 97.334C33.7727 97.3782 33.8596 97.4257 33.9561 97.4775C39.6664 97.6374 43.9961 98.4055 43.9961 99.3301C43.9952 100.37 38.5122 101.214 31.749 101.214C24.986 101.214 19.5029 100.37 19.502 99.3301C19.502 98.4389 23.5247 97.694 28.9287 97.498C29.0795 97.432 29.214 97.372 29.3262 97.3164C29.4963 97.2322 29.5849 97.1768 29.6143 97.1533C29.7013 97.0837 29.8166 96.9472 29.9473 96.7451C30.0646 96.5636 30.1774 96.3546 30.2793 96.1494V53.0576C30.0956 51.6886 29.8689 50.2717 29.6523 49.6221C29.5487 49.3112 29.2678 48.7949 28.8682 48.1602C28.4771 47.539 27.9983 46.8449 27.5322 46.1924C27.0668 45.5407 26.6165 44.9343 26.2822 44.4912C26.1154 44.2701 25.9777 44.0898 25.8818 43.9648C25.8339 43.9024 25.7959 43.8532 25.7705 43.8203C25.758 43.8041 25.7486 43.7915 25.7422 43.7832C25.739 43.7791 25.736 43.7755 25.7344 43.7734C25.7337 43.7726 25.7328 43.7719 25.7324 43.7715V43.7705L25.7578 43.75L0 13H22.6172C22.2372 11.9308 21.7589 10.6615 21.21 9.38574C20.5123 7.76454 19.7192 6.17101 18.8975 4.96484C18.4865 4.36165 18.0895 3.88607 17.7178 3.55664C17.3395 3.22138 17.0526 3.0947 16.8604 3.06641C15.058 2.80185 12.3325 2.53499 10.0391 2.33301C8.89651 2.23239 7.86795 2.14856 7.125 2.08984C6.75378 2.0605 6.45393 2.03719 6.24707 2.02148C6.14364 2.01363 6.06301 2.00697 6.00879 2.00293C5.98176 2.00091 5.96103 2.00004 5.94727 1.99902C5.94042 1.99852 5.93507 1.9983 5.93164 1.99805C5.93001 1.99793 5.92855 1.99713 5.92773 1.99707H5.92676L5.8252 1.98438C5.32608 1.89636 4.96504 1.44311 5.00293 0.926758C5.04086 0.410457 5.46413 0.0142292 5.9707 0L6.07324 0.00292969ZM30.6738 97.4531C31.0281 97.4484 31.3867 97.4463 31.749 97.4463C31.9784 97.4463 32.2064 97.4483 32.4326 97.4502C32.4318 97.4488 32.4305 97.4477 32.4297 97.4463H30.6797C30.678 97.4487 30.6756 97.4507 30.6738 97.4531Z"/>
</mask>
<path d="M6.07324 0.00292969H6.0791C6.08269 0.00319429 6.08792 0.00340291 6.09473 0.00390625C6.10884 0.00495031 6.12993 0.00675287 6.15723 0.00878906C6.21228 0.0128953 6.29409 0.0194214 6.39844 0.0273438C6.60707 0.0431836 6.90883 0.0661925 7.28223 0.0957031C8.02953 0.154766 9.06475 0.239534 10.2148 0.34082C12.5069 0.542679 15.2843 0.813977 17.1504 1.08789C17.8752 1.19429 18.511 1.58733 19.0439 2.05957C19.5836 2.53783 20.0872 3.1585 20.5508 3.83887C21.478 5.19982 22.3296 6.92785 23.0469 8.59473C23.738 10.2008 24.3194 11.787 24.7373 13H49.0137C49.2737 7.98574 53.421 4 58.5 4C63.7467 4 68 8.25329 68 13.5C68 18.7467 63.7467 23 58.5 23C57.3156 23 56.1824 22.7817 55.1367 22.3857L35.0391 46.3799C34.6907 47.0174 34.3379 47.6862 34.0459 48.2891C33.7271 48.9474 33.4973 49.4919 33.4111 49.8281C33.2613 50.4124 33.107 51.5724 32.9736 52.7803V96.3008C33.0453 96.467 33.121 96.6324 33.2002 96.7793C33.3107 96.9843 33.4062 97.1189 33.4736 97.1836L33.54 97.2344C33.5764 97.2595 33.6284 97.2925 33.6982 97.334C33.7727 97.3782 33.8596 97.4257 33.9561 97.4775C39.6664 97.6374 43.9961 98.4055 43.9961 99.3301C43.9952 100.37 38.5122 101.214 31.749 101.214C24.986 101.214 19.5029 100.37 19.502 99.3301C19.502 98.4389 23.5247 97.694 28.9287 97.498C29.0795 97.432 29.214 97.372 29.3262 97.3164C29.4963 97.2322 29.5849 97.1768 29.6143 97.1533C29.7013 97.0837 29.8166 96.9472 29.9473 96.7451C30.0646 96.5636 30.1774 96.3546 30.2793 96.1494V53.0576C30.0956 51.6886 29.8689 50.2717 29.6523 49.6221C29.5487 49.3112 29.2678 48.7949 28.8682 48.1602C28.4771 47.539 27.9983 46.8449 27.5322 46.1924C27.0668 45.5407 26.6165 44.9343 26.2822 44.4912C26.1154 44.2701 25.9777 44.0898 25.8818 43.9648C25.8339 43.9024 25.7959 43.8532 25.7705 43.8203C25.758 43.8041 25.7486 43.7915 25.7422 43.7832C25.739 43.7791 25.736 43.7755 25.7344 43.7734C25.7337 43.7726 25.7328 43.7719 25.7324 43.7715V43.7705L25.7578 43.75L0 13H22.6172C22.2372 11.9308 21.7589 10.6615 21.21 9.38574C20.5123 7.76454 19.7192 6.17101 18.8975 4.96484C18.4865 4.36165 18.0895 3.88607 17.7178 3.55664C17.3395 3.22138 17.0526 3.0947 16.8604 3.06641C15.058 2.80185 12.3325 2.53499 10.0391 2.33301C8.89651 2.23239 7.86795 2.14856 7.125 2.08984C6.75378 2.0605 6.45393 2.03719 6.24707 2.02148C6.14364 2.01363 6.06301 2.00697 6.00879 2.00293C5.98176 2.00091 5.96103 2.00004 5.94727 1.99902C5.94042 1.99852 5.93507 1.9983 5.93164 1.99805C5.93001 1.99793 5.92855 1.99713 5.92773 1.99707H5.92676L5.8252 1.98438C5.32608 1.89636 4.96504 1.44311 5.00293 0.926758C5.04086 0.410457 5.46413 0.0142292 5.9707 0L6.07324 0.00292969ZM30.6738 97.4531C31.0281 97.4484 31.3867 97.4463 31.749 97.4463C31.9784 97.4463 32.2064 97.4483 32.4326 97.4502C32.4318 97.4488 32.4305 97.4477 32.4297 97.4463H30.6797C30.678 97.4487 30.6756 97.4507 30.6738 97.4531Z" fill="#A3CCE4"/>
<path d="M6.07324 0.00292969L6.05896 0.502726C6.06372 0.502862 6.06848 0.50293 6.07324 0.50293V0.00292969ZM6.0791 0.00292969L6.11584 -0.495718C6.10362 -0.496619 6.09136 -0.49707 6.0791 -0.49707V0.00292969ZM6.09473 0.00390625L6.13161 -0.494731L6.13161 -0.494731L6.09473 0.00390625ZM6.15723 0.00878906L6.19442 -0.489826L6.19442 -0.489826L6.15723 0.00878906ZM6.39844 0.0273438L6.43629 -0.471221L6.43629 -0.471222L6.39844 0.0273438ZM7.28223 0.0957031L7.32162 -0.402743L7.32162 -0.402743L7.28223 0.0957031ZM10.2148 0.34082L10.2587 -0.157252L10.2587 -0.157252L10.2148 0.34082ZM17.1504 1.08789L17.223 0.593192L17.223 0.593192L17.1504 1.08789ZM19.0439 2.05957L19.3756 1.68537L19.3756 1.68536L19.0439 2.05957ZM20.5508 3.83887L20.964 3.55735L20.964 3.55734L20.5508 3.83887ZM23.0469 8.59473L23.5062 8.39709L23.5062 8.39708L23.0469 8.59473ZM24.7373 13L24.2646 13.1629C24.3341 13.3646 24.5239 13.5 24.7373 13.5V13ZM49.0137 13V13.5C49.2798 13.5 49.4992 13.2916 49.513 13.0259L49.0137 13ZM55.1367 22.3857L55.3138 21.9181C55.1149 21.8428 54.89 21.9016 54.7534 22.0647L55.1367 22.3857ZM35.0391 46.3799L34.6558 46.0588C34.6346 46.084 34.6161 46.1113 34.6003 46.1401L35.0391 46.3799ZM34.0459 48.2891L33.5959 48.0711L33.5959 48.0711L34.0459 48.2891ZM33.4111 49.8281L32.9268 49.7039L32.9268 49.704L33.4111 49.8281ZM32.9736 52.7803L32.4767 52.7254C32.4746 52.7436 32.4736 52.7619 32.4736 52.7803H32.9736ZM32.9736 96.3008H32.4736C32.4736 96.3688 32.4875 96.4361 32.5144 96.4986L32.9736 96.3008ZM33.2002 96.7793L32.76 97.0165L32.76 97.0165L33.2002 96.7793ZM33.4736 97.1836L33.1274 97.5443C33.1409 97.5572 33.1551 97.5694 33.1699 97.5808L33.4736 97.1836ZM33.54 97.2344L33.2363 97.6316C33.2425 97.6363 33.2489 97.6409 33.2553 97.6454L33.54 97.2344ZM33.6982 97.334L33.4428 97.7638L33.4428 97.7638L33.6982 97.334ZM33.9561 97.4775L33.7195 97.918C33.788 97.9549 33.8643 97.9752 33.9421 97.9773L33.9561 97.4775ZM43.9961 99.3301L44.4961 99.3305V99.3301H43.9961ZM31.749 101.214L31.749 101.714H31.749V101.214ZM19.502 99.3301L19.002 99.3301L19.002 99.3305L19.502 99.3301ZM28.9287 97.498L28.9468 97.9977C29.0097 97.9954 29.0716 97.9813 29.1293 97.9561L28.9287 97.498ZM29.3262 97.3164L29.548 97.7645L29.5481 97.7645L29.3262 97.3164ZM29.6143 97.1533L29.9261 97.5441L29.9267 97.5437L29.6143 97.1533ZM29.9473 96.7451L30.3671 97.0166L30.3672 97.0166L29.9473 96.7451ZM30.2793 96.1494L30.7271 96.3718C30.7614 96.3027 30.7793 96.2266 30.7793 96.1494H30.2793ZM30.2793 53.0576H30.7793C30.7793 53.0354 30.7778 53.0132 30.7749 52.9911L30.2793 53.0576ZM29.6523 49.6221L30.1267 49.464L30.1267 49.464L29.6523 49.6221ZM28.8682 48.1602L29.2913 47.8938L29.2913 47.8937L28.8682 48.1602ZM27.5322 46.1924L27.9391 45.9018L27.9391 45.9018L27.5322 46.1924ZM26.2822 44.4912L26.6814 44.1901L26.6814 44.1901L26.2822 44.4912ZM25.8818 43.9648L26.2785 43.6604L26.2785 43.6604L25.8818 43.9648ZM25.7705 43.8203L26.1661 43.5145L26.1661 43.5145L25.7705 43.8203ZM25.7422 43.7832L26.1374 43.4769L26.1373 43.4768L25.7422 43.7832ZM25.7344 43.7734L25.3395 44.0801L25.3399 44.0806L25.7344 43.7734ZM25.7324 43.7715H25.2324C25.2324 43.8911 25.2753 44.0067 25.3532 44.0974L25.7324 43.7715ZM25.7324 43.7705L25.4183 43.3815C25.3007 43.4765 25.2324 43.6194 25.2324 43.7705H25.7324ZM25.7578 43.75L26.072 44.139C26.1763 44.0547 26.2425 43.932 26.2555 43.7984C26.2685 43.6649 26.2273 43.5318 26.1411 43.4289L25.7578 43.75ZM0 13V12.5C-0.194239 12.5 -0.3709 12.6125 -0.453064 12.7885C-0.535228 12.9645 -0.508023 13.1722 -0.383295 13.3211L0 13ZM22.6172 13V13.5C22.7796 13.5 22.932 13.4211 23.0257 13.2883C23.1194 13.1556 23.1427 12.9857 23.0883 12.8326L22.6172 13ZM21.21 9.38574L21.6692 9.1881L21.6692 9.1881L21.21 9.38574ZM18.8975 4.96484L19.3107 4.68332L19.3107 4.68332L18.8975 4.96484ZM17.7178 3.55664L18.0494 3.18246L18.0494 3.18244L17.7178 3.55664ZM16.8604 3.06641L16.9331 2.57173L16.933 2.57171L16.8604 3.06641ZM10.0391 2.33301L10.0829 1.83494L10.0829 1.83494L10.0391 2.33301ZM7.125 2.08984L7.16439 1.5914L7.16439 1.5914L7.125 2.08984ZM6.24707 2.02148L6.28492 1.52292L6.28492 1.52292L6.24707 2.02148ZM6.00879 2.00293L6.04598 1.50431L6.04598 1.50431L6.00879 2.00293ZM5.94727 1.99902L5.98415 1.50039L5.98415 1.50039L5.94727 1.99902ZM5.93164 1.99805L5.96838 1.4994L5.96838 1.4994L5.93164 1.99805ZM5.92773 1.99707L5.9644 1.49842C5.9522 1.49752 5.93997 1.49707 5.92773 1.49707V1.99707ZM5.92676 1.99707L5.86474 2.49321C5.88531 2.49578 5.90603 2.49707 5.92676 2.49707V1.99707ZM5.8252 1.98438L5.73837 2.47678C5.74661 2.47823 5.75488 2.47948 5.76318 2.48051L5.8252 1.98438ZM5.00293 0.926758L4.50427 0.890129L4.50427 0.890162L5.00293 0.926758ZM5.9707 0L5.98498 -0.499796C5.97555 -0.500066 5.9661 -0.500068 5.95666 -0.499803L5.9707 0ZM30.6738 97.4531L30.2668 97.1628C30.1573 97.3162 30.1435 97.5181 30.2309 97.685C30.3183 97.852 30.4921 97.9556 30.6805 97.9531L30.6738 97.4531ZM31.749 97.4463L31.749 96.9463L31.749 96.9463L31.749 97.4463ZM32.4326 97.4502L32.4284 97.9502C32.6098 97.9517 32.7779 97.8548 32.8675 97.697C32.957 97.5392 32.9541 97.3452 32.8597 97.1902L32.4326 97.4502ZM32.4297 97.4463L32.8571 97.1869C32.7665 97.0375 32.6044 96.9463 32.4297 96.9463V97.4463ZM30.6797 97.4463V96.9463C30.5177 96.9463 30.3657 97.0248 30.2719 97.1569L30.6797 97.4463ZM6.07324 0.00292969L6.08752 -0.496866L6.06189 -0.497599L6.04761 0.00219727L6.03333 0.501993L6.05896 0.502726L6.07324 0.00292969ZM5.99634 0.000732422L6.01062 -0.499064L5.98498 -0.499796L5.9707 0L5.95642 0.499796L5.98206 0.500528L5.99634 0.000732422ZM5.9707 0L5.95666 -0.499803C5.76811 -0.494507 5.58686 -0.453897 5.42034 -0.383985L5.61389 0.0770328L5.80744 0.53805C5.86242 0.514969 5.92211 0.501562 5.98474 0.499803L5.9707 0ZM5.09536 0.573583L4.64305 0.360485C4.56644 0.523097 4.5181 0.701832 4.50427 0.890129L5.00293 0.926758L5.50159 0.963387C5.50629 0.899344 5.52252 0.840081 5.54768 0.78668L5.09536 0.573583ZM5.00293 0.926758L4.50427 0.890162C4.49045 1.07849 4.51217 1.26237 4.56425 1.43444L5.04281 1.28958L5.52137 1.14472C5.50429 1.08832 5.49689 1.02739 5.50159 0.963354L5.00293 0.926758ZM5.48346 1.8562L5.2249 2.28416C5.37941 2.37751 5.55272 2.44404 5.73837 2.47678L5.8252 1.98438L5.91202 1.49197C5.85023 1.48108 5.79307 1.45909 5.74202 1.42825L5.48346 1.8562ZM5.8252 1.98438L5.76318 2.48051L5.78857 2.48369L5.85059 1.98755L5.9126 1.49141L5.88721 1.48824L5.8252 1.98438ZM5.90137 1.9939L5.83935 2.49004L5.86474 2.49321L5.92676 1.99707L5.98878 1.50093L5.96338 1.49776L5.90137 1.9939ZM5.92676 1.99707V2.49707H5.927V1.99707V1.49707H5.92676V1.99707ZM5.92749 1.99707V2.49707H5.92773V1.99707V1.49707H5.92749V1.99707ZM5.92773 1.99707L5.89107 2.49572C5.84928 2.49265 5.81719 2.4849 5.80302 2.48123C5.78744 2.47721 5.77554 2.47328 5.77267 2.47234L5.92871 1.99731L6.08475 1.52228C6.0815 1.52121 6.06924 1.51718 6.05334 1.51307C6.03884 1.50932 6.00645 1.50151 5.9644 1.49842L5.92773 1.99707ZM5.93064 1.9979L5.82235 2.48603C5.84091 2.49014 5.86559 2.49454 5.8949 2.4967L5.93164 1.99805L5.96838 1.4994C5.997 1.50151 6.02102 1.50579 6.03893 1.50976L5.93064 1.9979ZM5.93164 1.99805L5.8949 2.4967C5.90059 2.49711 5.90564 2.4974 5.90708 2.49748L5.93555 1.99829L5.96401 1.4991C5.96354 1.49908 5.96377 1.49909 5.96431 1.49912C5.96483 1.49915 5.96632 1.49925 5.96838 1.4994L5.93164 1.99805ZM5.94336 1.99875L5.911 2.4977L5.91038 2.49766L5.94727 1.99902L5.98415 1.50039C5.98108 1.50016 5.97825 1.49997 5.97572 1.4998L5.94336 1.99875ZM5.94727 1.99902L5.91038 2.49766C5.91911 2.49831 5.92773 2.49882 5.93359 2.49916L5.96264 2L5.99169 1.50085C5.98906 1.50069 5.98721 1.50058 5.98579 1.50049C5.98435 1.5004 5.98392 1.50037 5.98415 1.50039L5.94727 1.99902ZM5.99341 2.00185L5.96058 2.50077C5.9642 2.50101 5.96786 2.50127 5.9716 2.50154L6.00879 2.00293L6.04598 1.50431C6.03896 1.50379 6.03237 1.50333 6.02624 1.50293L5.99341 2.00185ZM6.00879 2.00293L5.9716 2.50154C5.98774 2.50275 6.00677 2.50423 6.0291 2.50599L6.06835 2.00753L6.1076 1.50907C6.08504 1.5073 6.06429 1.50568 6.04598 1.50431L6.00879 2.00293ZM6.18748 2.0169L6.14874 2.5154C6.1679 2.51689 6.18808 2.51844 6.20922 2.52005L6.24707 2.02148L6.28492 1.52292C6.26447 1.52137 6.2449 1.51986 6.22622 1.51841L6.18748 2.0169ZM6.24707 2.02148L6.20922 2.52005C6.27333 2.52492 6.34649 2.53052 6.42806 2.53682L6.46656 2.03831L6.50507 1.5398C6.42317 1.53347 6.34956 1.52783 6.28492 1.52292L6.24707 2.02148ZM6.90548 2.07254L6.86631 2.571C6.93627 2.5765 7.00943 2.58227 7.08561 2.58829L7.125 2.08984L7.16439 1.5914C7.08808 1.58537 7.01477 1.57959 6.94465 1.57408L6.90548 2.07254ZM7.125 2.08984L7.08561 2.58829C7.30469 2.6056 7.54865 2.62511 7.81307 2.64658L7.85354 2.14822L7.89402 1.64986C7.62882 1.62832 7.38414 1.60877 7.16439 1.5914L7.125 2.08984ZM9.31074 2.26976L9.26807 2.76793C9.50389 2.78813 9.74685 2.80921 9.9952 2.83108L10.0391 2.33301L10.0829 1.83494C9.83373 1.81299 9.58997 1.79184 9.35341 1.77158L9.31074 2.26976ZM10.0391 2.33301L9.9952 2.83108C10.2739 2.85562 10.5589 2.88112 10.8479 2.90746L10.8932 2.40952L10.9386 1.91158C10.6486 1.88515 10.3625 1.85956 10.0829 1.83494L10.0391 2.33301ZM12.6011 2.57129L12.5519 3.06887C13.1283 3.12576 13.7012 3.18491 14.2527 3.24542L14.3072 2.7484L14.3618 2.25139C13.806 2.1904 13.2294 2.13088 12.6502 2.07371L12.6011 2.57129ZM16.0111 2.94994L15.9471 3.44583C16.2449 3.48427 16.5265 3.52276 16.7877 3.56111L16.8604 3.06641L16.933 2.57171C16.6649 2.53236 16.3775 2.49308 16.0751 2.45405L16.0111 2.94994ZM16.8604 3.06641L16.7876 3.56108C16.8059 3.56378 16.8435 3.57227 16.9012 3.59713L17.0991 3.13795L17.297 2.67878C17.1721 2.62498 17.0504 2.58899 16.9331 2.57173L16.8604 3.06641ZM17.5251 3.39728L17.2211 3.79429C17.2723 3.8335 17.3274 3.87875 17.3862 3.93084L17.7178 3.55664L18.0494 3.18244C17.9739 3.11557 17.9005 3.05499 17.829 3.00027L17.5251 3.39728ZM17.7178 3.55664L17.3861 3.93082C17.4804 4.01433 17.5788 4.11065 17.6811 4.22011L18.0464 3.87873L18.4117 3.53735C18.291 3.40822 18.1702 3.28952 18.0494 3.18246L17.7178 3.55664ZM18.6312 4.5893L18.2292 4.88661C18.3131 5.00006 18.3982 5.12002 18.4843 5.24637L18.8975 4.96484L19.3107 4.68332C19.2179 4.54709 19.1253 4.41656 19.0332 4.292L18.6312 4.5893ZM18.8975 4.96484L18.4842 5.24637C18.6988 5.56131 18.9129 5.90598 19.1251 6.27403L19.5583 6.02429L19.9914 5.77454C19.7691 5.3889 19.5418 5.0225 19.3107 4.68332L18.8975 4.96484ZM20.7001 8.24546L20.2468 8.45642C20.4192 8.82696 20.5875 9.20416 20.7507 9.58338L21.21 9.38574L21.6692 9.1881C21.5026 8.80087 21.3304 8.41472 21.1534 8.03449L20.7001 8.24546ZM21.21 9.38574L20.7507 9.58338C20.8781 9.87957 21.0018 10.1756 21.1214 10.4691L21.5844 10.2804L22.0475 10.0917C21.9257 9.79276 21.7995 9.49072 21.6692 9.1881L21.21 9.38574ZM22.2864 12.0885L21.8176 12.2623C21.9339 12.576 22.0435 12.879 22.1461 13.1674L22.6172 13L23.0883 12.8326C22.9845 12.5403 22.8732 12.233 22.7552 11.9147L22.2864 12.0885ZM22.6172 13V12.5H21.6748V13V13.5H22.6172V13ZM19.79 13V12.5H17.9053V13V13.5H19.79V13ZM16.0205 13V12.5H14.1357V13V13.5H16.0205V13ZM12.251 13V12.5H10.3662V13V13.5H12.251V13ZM8.48145 13V12.5H6.59668V13V13.5H8.48145V13ZM4.71191 13V12.5H2.82715V13V13.5H4.71191V13ZM0.942383 13V12.5H0V13V13.5H0.942383V13ZM0 13L-0.383295 13.3211L0.26065 14.0898L0.643945 13.7687L1.02724 13.4477L0.383295 12.6789L0 13ZM1.93184 15.3062L1.54854 15.6273L2.83643 17.1648L3.21973 16.8437L3.60302 16.5227L2.31513 14.9852L1.93184 15.3062ZM4.50762 18.3812L4.12432 18.7023L5.41221 20.2398L5.79551 19.9187L6.1788 19.5977L4.89091 18.0602L4.50762 18.3812ZM7.0834 21.4563L6.7001 21.7773L7.98799 23.3148L8.37129 22.9938L8.75458 22.6727L7.46669 21.1352L7.0834 21.4563ZM9.65918 24.5312L9.27588 24.8523L10.5638 26.3898L10.9471 26.0687L11.3304 25.7477L10.0425 24.2102L9.65918 24.5312ZM12.235 27.6062L11.8517 27.9273L13.1396 29.4648L13.5229 29.1437L13.9061 28.8227L12.6183 27.2852L12.235 27.6062ZM14.8107 30.6812L14.4274 31.0023L15.7153 32.5398L16.0986 32.2188L16.4819 31.8977L15.194 30.3602L14.8107 30.6812ZM17.3865 33.7563L17.0032 34.0773L18.2911 35.6148L18.6744 35.2938L19.0577 34.9727L17.7698 33.4352L17.3865 33.7563ZM19.9623 36.8313L19.579 37.1523L20.8669 38.6898L21.2502 38.3688L21.6335 38.0477L20.3456 36.5102L19.9623 36.8313ZM22.5381 39.9063L22.1548 40.2273L23.4427 41.7648L23.826 41.4438L24.2093 41.1227L22.9214 39.5852L22.5381 39.9063ZM25.1139 42.9813L24.7306 43.3023L25.3745 44.0711L25.7578 43.75L26.1411 43.4289L25.4972 42.6602L25.1139 42.9813ZM25.7578 43.75L25.4436 43.361L25.4373 43.3662L25.7515 43.7551L26.0656 44.1441L26.072 44.139L25.7578 43.75ZM25.7388 43.7654L25.4246 43.3764L25.4183 43.3815L25.7324 43.7705L26.0466 44.1595L26.0529 44.1544L25.7388 43.7654ZM25.7324 43.7705H25.2324V43.7708H25.7324H26.2324V43.7705H25.7324ZM25.7324 43.7712H25.2324V43.7715H25.7324H26.2324V43.7712H25.7324ZM25.7324 43.7715L25.3532 44.0974C25.3673 44.1137 25.3794 44.1256 25.3848 44.1309C25.3907 44.1366 25.3955 44.141 25.3967 44.142L25.7329 43.772L26.0692 43.4019C26.0701 43.4028 26.0747 43.407 26.0805 43.4126C26.0857 43.4176 26.0977 43.4294 26.1116 43.4456L25.7324 43.7715ZM25.7339 43.7729L25.373 44.119C25.3644 44.11 25.3525 44.0969 25.3395 44.0801L25.7344 43.7734L26.1293 43.4667C26.1159 43.4496 26.1037 43.4361 26.0948 43.4269L25.7339 43.7729ZM25.7344 43.7734L25.3399 44.0806C25.3439 44.0858 25.3475 44.0902 25.348 44.0909L25.7363 43.7759L26.1246 43.4609C26.1244 43.4606 26.1247 43.461 26.1253 43.4617C26.1257 43.4623 26.1271 43.464 26.1289 43.4662L25.7344 43.7734ZM25.7403 43.7807L25.3489 44.0919C25.3485 44.0914 25.3479 44.0906 25.3471 44.0896L25.7422 43.7832L26.1373 43.4768C26.1352 43.4741 26.1333 43.4716 26.1316 43.4696L25.7403 43.7807ZM25.7422 43.7832L25.347 44.0895C25.3473 44.09 25.3484 44.0913 25.3509 44.0947L25.7493 43.7925L26.1476 43.4903C26.1449 43.4866 26.1411 43.4818 26.1374 43.4769L25.7422 43.7832ZM25.7634 43.8111L25.3662 44.1148C25.3689 44.1183 25.3718 44.1221 25.3749 44.1261L25.7705 43.8203L26.1661 43.5145C26.1642 43.5121 26.1624 43.5097 26.1606 43.5073L25.7634 43.8111ZM25.7705 43.8203L25.3749 44.1261C25.3829 44.1364 25.3921 44.1484 25.4025 44.1619L25.7984 43.8564L26.1942 43.5509C26.1836 43.5372 26.1742 43.525 26.1661 43.5145L25.7705 43.8203ZM25.854 43.9287L25.4577 44.2334C25.4664 44.2448 25.4756 44.2568 25.4852 44.2693L25.8818 43.9648L26.2785 43.6604C26.2687 43.6477 26.2594 43.6355 26.2504 43.6239L25.854 43.9287ZM25.8818 43.9648L25.4852 44.2693C25.5146 44.3076 25.548 44.3512 25.585 44.3996L25.9823 44.0961L26.3797 43.7926C26.3422 43.7435 26.3083 43.6993 26.2785 43.6604L25.8818 43.9648ZM26.1825 44.3593L25.7839 44.6612C25.8157 44.7031 25.8487 44.7468 25.8831 44.7923L26.2822 44.4912L26.6814 44.1901C26.6467 44.1441 26.6132 44.0998 26.5811 44.0574L26.1825 44.3593ZM26.2822 44.4912L25.8831 44.7923C25.9791 44.9196 26.0847 45.0605 26.1977 45.2121L26.5987 44.9135L26.9997 44.6149C26.8855 44.4615 26.7786 44.3189 26.6814 44.1901L26.2822 44.4912ZM27.2239 45.764L26.8191 46.0576C26.9197 46.1963 27.0222 46.3386 27.1254 46.483L27.5322 46.1924L27.9391 45.9018C27.8344 45.7552 27.7306 45.611 27.6286 45.4705L27.2239 45.764ZM27.5322 46.1924L27.1254 46.483C27.2387 46.6417 27.3528 46.8028 27.4661 46.9646L27.8757 46.6779L28.2853 46.3911C28.17 46.2265 28.0541 46.0628 27.9391 45.9018L27.5322 46.1924ZM28.5456 47.6606L28.1283 47.9361C28.239 48.1037 28.3451 48.2678 28.445 48.4266L28.8682 48.1602L29.2913 47.8937C29.187 47.7281 29.0769 47.5578 28.9629 47.3852L28.5456 47.6606ZM28.8682 48.1602L28.445 48.4266C28.5205 48.5465 28.5914 48.6616 28.6573 48.7714L29.086 48.514L29.5147 48.2567C29.4448 48.1402 29.3702 48.019 29.2913 47.8938L28.8682 48.1602ZM29.4891 49.2404L29.0406 49.4614C29.1085 49.5994 29.153 49.7052 29.178 49.7802L29.6523 49.6221L30.1267 49.464C30.0817 49.3291 30.0159 49.1783 29.9376 49.0194L29.4891 49.2404ZM29.6523 49.6221L29.178 49.7802C29.2388 49.9624 29.3054 50.231 29.3747 50.5694L29.8645 50.469L30.3544 50.3686C30.2825 50.018 30.2065 49.7033 30.1267 49.464L29.6523 49.6221ZM30.1578 52.1921L29.6631 52.2651C29.7048 52.5481 29.7452 52.837 29.7837 53.1241L30.2793 53.0576L30.7749 52.9911C30.7359 52.7004 30.6949 52.4072 30.6524 52.1192L30.1578 52.1921ZM30.2793 53.0576H29.7793V54.037H30.2793H30.7793V53.0576H30.2793ZM30.2793 55.9957H29.7793V57.9544H30.2793H30.7793V55.9957H30.2793ZM30.2793 59.9131H29.7793V61.8718H30.2793H30.7793V59.9131H30.2793ZM30.2793 63.8306H29.7793V65.7893H30.2793H30.7793V63.8306H30.2793ZM30.2793 67.748H29.7793V69.7067H30.2793H30.7793V67.748H30.2793ZM30.2793 71.6654H29.7793V73.6242H30.2793H30.7793V71.6654H30.2793ZM30.2793 75.5829H29.7793V77.5416H30.2793H30.7793V75.5829H30.2793ZM30.2793 79.5003H29.7793V81.459H30.2793H30.7793V79.5003H30.2793ZM30.2793 83.4177H29.7793V85.3765H30.2793H30.7793V83.4177H30.2793ZM30.2793 87.3352H29.7793V89.2939H30.2793H30.7793V87.3352H30.2793ZM30.2793 91.2526H29.7793V93.2113H30.2793H30.7793V91.2526H30.2793ZM30.2793 95.17H29.7793V96.1494H30.2793H30.7793V95.17H30.2793ZM30.2793 96.1494L29.8315 95.9271C29.8076 95.9751 29.7833 96.023 29.7586 96.0705L30.202 96.3015L30.6454 96.5325C30.6735 96.4787 30.7007 96.425 30.7271 96.3718L30.2793 96.1494ZM30.0369 96.6L29.6066 96.3453C29.58 96.3902 29.5536 96.4331 29.5274 96.4736L29.9473 96.7451L30.3672 97.0166C30.4014 96.9637 30.4347 96.9095 30.4672 96.8547L30.0369 96.6ZM29.9473 96.7451L29.5274 96.4736C29.5055 96.5075 29.4844 96.5387 29.4644 96.5671L29.8734 96.8548L30.2824 97.1424C30.3104 97.1026 30.3386 97.0607 30.3671 97.0166L29.9473 96.7451ZM29.7096 97.0621L29.3411 96.7242C29.3186 96.7487 29.3054 96.7601 29.3018 96.7629L29.6143 97.1533L29.9267 97.5437C29.9808 97.5004 30.0315 97.4509 30.0782 97.4L29.7096 97.0621ZM29.6143 97.1533L29.3024 96.7625C29.3076 96.7584 29.311 96.7559 29.3119 96.7553C29.3129 96.7545 29.3127 96.7547 29.311 96.7559C29.3073 96.7583 29.2999 96.763 29.288 96.7702L29.5452 97.199L29.8024 97.6277C29.8429 97.6034 29.8878 97.5747 29.9261 97.5441L29.6143 97.1533ZM29.4001 97.279L29.1702 96.835C29.1503 96.8453 29.1283 96.8564 29.1043 96.8683L29.3262 97.3164L29.5481 97.7645C29.5772 97.75 29.6045 97.7362 29.63 97.723L29.4001 97.279ZM29.3262 97.3164L29.1043 96.8683C29.077 96.8819 29.0474 96.8961 29.0155 96.911L29.2277 97.3637L29.4399 97.8165C29.4769 97.7991 29.5131 97.7818 29.548 97.7645L29.3262 97.3164ZM29.0287 97.454L28.8262 96.9969C28.7946 97.0109 28.7619 97.0252 28.7281 97.04L28.9287 97.498L29.1293 97.9561C29.1639 97.9409 29.198 97.9259 29.2313 97.9112L29.0287 97.454ZM28.9287 97.498L28.9106 96.9984C28.4896 97.0136 28.0768 97.0322 27.6734 97.0539L27.7003 97.5532L27.7271 98.0525C28.1246 98.0311 28.5315 98.0128 28.9468 97.9977L28.9287 97.498ZM25.2504 97.7344L25.2024 97.2367C24.2966 97.324 23.4663 97.4291 22.7324 97.5494L22.8132 98.0428L22.8941 98.5362C23.602 98.4202 24.4099 98.3177 25.2983 98.2321L25.2504 97.7344ZM20.4259 98.6113L20.2516 98.1426C19.9338 98.2608 19.6499 98.3975 19.4362 98.5616C19.2325 98.7179 19.002 98.9715 19.002 99.3301H19.502H20.002C20.002 99.434 19.9356 99.4389 20.0451 99.3548C20.1446 99.2785 20.3226 99.1832 20.6002 99.0799L20.4259 98.6113ZM19.502 99.3301L19.002 99.3305C19.0022 99.6554 19.1932 99.8946 19.3746 100.049C19.5601 100.206 19.8043 100.336 20.0726 100.447L20.264 99.9854L20.4554 99.5235C20.231 99.4306 20.0944 99.348 20.0221 99.2866C19.9456 99.2217 20.0019 99.2352 20.002 99.3296L19.502 99.3301ZM22.2986 100.528L22.207 101.02C22.8344 101.137 23.546 101.241 24.3257 101.332L24.3833 100.835L24.4409 100.338C23.6789 100.25 22.9905 100.149 22.3902 100.037L22.2986 100.528ZM26.4824 101.031L26.4458 101.53C27.1215 101.579 27.8306 101.62 28.5663 101.65L28.5868 101.15L28.6072 100.651C27.8817 100.621 27.1834 100.581 26.5189 100.533L26.4824 101.031ZM30.694 101.207L30.6875 101.707C31.0374 101.712 31.3914 101.714 31.749 101.714L31.749 101.214L31.749 100.714C31.3958 100.714 31.0461 100.712 30.7006 100.707L30.694 101.207ZM31.749 101.214V101.714C32.1066 101.714 32.4607 101.712 32.8106 101.707L32.804 101.207L32.7975 100.707C32.4519 100.712 32.1022 100.714 31.749 100.714V101.214ZM34.9113 101.15L34.9318 101.65C35.6674 101.62 36.3765 101.579 37.0523 101.53L37.0157 101.031L36.9791 100.533C36.3147 100.581 35.6163 100.621 34.8908 100.651L34.9113 101.15ZM39.1148 100.835L39.1724 101.332C39.952 101.241 40.6636 101.137 41.2911 101.02L41.1994 100.528L41.1078 100.037C40.5075 100.149 39.8192 100.25 39.0571 100.338L39.1148 100.835ZM43.2341 99.9855L43.4255 100.447C43.6937 100.336 43.938 100.206 44.1235 100.049C44.3048 99.8946 44.4958 99.6554 44.4961 99.3305L43.9961 99.3301L43.4961 99.3296C43.4962 99.2352 43.5524 99.2217 43.476 99.2866C43.4037 99.3481 43.267 99.4306 43.0427 99.5235L43.2341 99.9855ZM43.9961 99.3301H44.4961C44.4961 99.0442 44.3471 98.8234 44.1914 98.6727C44.0361 98.5225 43.8335 98.4002 43.6163 98.2972L43.402 98.7489L43.1876 99.2006C43.3562 99.2806 43.4506 99.3475 43.496 99.3914C43.5409 99.4348 43.4961 99.4131 43.4961 99.3301H43.9961ZM41.7411 98.2408L41.8469 97.7522C41.3304 97.6403 40.7429 97.5382 40.0965 97.4471L40.0267 97.9422L39.9569 98.4373C40.585 98.5259 41.1478 98.624 41.6354 98.7295L41.7411 98.2408ZM38.2992 97.7387L38.3477 97.241C37.7919 97.1869 37.2068 97.1394 36.5969 97.0992L36.5641 97.5982L36.5313 98.0971C37.1314 98.1366 37.7061 98.1832 38.2507 98.2363L38.2992 97.7387ZM34.8267 97.507L34.8466 97.0074C34.5583 96.9959 34.266 96.986 33.97 96.9777L33.9561 97.4775L33.9421 97.9773C34.2341 97.9855 34.5225 97.9953 34.8069 98.0066L34.8267 97.507ZM33.9561 97.4775L34.1926 97.037C34.1709 97.0254 34.1499 97.0141 34.1296 97.0031L33.8911 97.4425L33.6526 97.882C33.6746 97.8939 33.6969 97.9059 33.7195 97.918L33.9561 97.4775ZM33.762 97.371L34.0093 96.9364C33.9894 96.9251 33.9708 96.9144 33.9537 96.9041L33.6982 97.334L33.4428 97.7638C33.4664 97.7778 33.4904 97.7917 33.5148 97.8056L33.762 97.371ZM33.6982 97.334L33.9537 96.9042C33.9408 96.8965 33.9288 96.8893 33.9176 96.8825L33.6582 97.3099L33.3987 97.7373C33.4128 97.7459 33.4275 97.7547 33.4428 97.7638L33.6982 97.334ZM33.5789 97.2604L33.8512 96.841C33.84 96.8337 33.8313 96.8279 33.8248 96.8234L33.54 97.2344L33.2553 97.6454C33.2716 97.6566 33.2887 97.6681 33.3066 97.6797L33.5789 97.2604ZM33.54 97.2344L33.8438 96.8372L33.8272 96.8245L33.5234 97.2217L33.2197 97.6189L33.2363 97.6316L33.54 97.2344ZM33.4902 97.1963L33.794 96.7991L33.7774 96.7864L33.4736 97.1836L33.1699 97.5808L33.1865 97.5935L33.4902 97.1963ZM33.4736 97.1836L33.8199 96.8229C33.8216 96.8246 33.8198 96.823 33.8146 96.8169C33.8096 96.8111 33.8024 96.8023 33.7932 96.7901L33.3938 97.091L32.9945 97.3918C33.0341 97.4445 33.0786 97.4975 33.1274 97.5443L33.4736 97.1836ZM33.26 96.8861L33.6918 96.6339C33.6755 96.606 33.6583 96.5754 33.6404 96.5421L33.2002 96.7793L32.76 97.0165C32.7831 97.0592 32.8058 97.0998 32.8283 97.1383L33.26 96.8861ZM33.2002 96.7793L33.6404 96.5421C33.6227 96.5094 33.6049 96.4749 33.5869 96.4388L33.1394 96.6617L32.6918 96.8846C32.7139 96.929 32.7367 96.9731 32.76 97.0165L33.2002 96.7793ZM33.0268 96.422L33.4833 96.2181C33.4664 96.1802 33.4496 96.1418 33.4328 96.1029L32.9736 96.3008L32.5144 96.4986C32.5326 96.5409 32.5513 96.5834 32.5703 96.626L33.0268 96.422ZM32.9736 96.3008H33.4736V95.3117H32.9736H32.4736V96.3008H32.9736ZM32.9736 93.3335H33.4736V91.3553H32.9736H32.4736V93.3335H32.9736ZM32.9736 89.3771H33.4736V87.3989H32.9736H32.4736V89.3771H32.9736ZM32.9736 85.4207H33.4736V83.4424H32.9736H32.4736V85.4207H32.9736ZM32.9736 81.4642H33.4736V79.486H32.9736H32.4736V81.4642H32.9736ZM32.9736 77.5078H33.4736V75.5296H32.9736H32.4736V77.5078H32.9736ZM32.9736 73.5514H33.4736V71.5732H32.9736H32.4736V73.5514H32.9736ZM32.9736 69.595H33.4736V67.6168H32.9736H32.4736V69.595H32.9736ZM32.9736 65.6386H33.4736V63.6604H32.9736H32.4736V65.6386H32.9736ZM32.9736 61.6822H33.4736V59.704H32.9736H32.4736V61.6822H32.9736ZM32.9736 57.7258H33.4736V55.7476H32.9736H32.4736V57.7258H32.9736ZM32.9736 53.7694H33.4736V52.7803H32.9736H32.4736V53.7694H32.9736ZM32.9736 52.7803L33.4706 52.8351C33.4981 52.5857 33.5266 52.3387 33.5556 52.0986L33.0592 52.0386L32.5628 51.9785C32.5333 52.2225 32.5045 52.4731 32.4767 52.7254L32.9736 52.7803ZM33.2649 50.5597L33.7581 50.6418C33.8058 50.355 33.8521 50.1213 33.8955 49.9523L33.4111 49.8281L32.9268 49.704C32.873 49.9137 32.8213 50.1797 32.7717 50.4776L33.2649 50.5597ZM33.4111 49.8281L33.8955 49.9523C33.9176 49.866 33.9547 49.7516 34.0085 49.6089L33.5407 49.4324L33.0729 49.2559C33.0119 49.4176 32.9613 49.5693 32.9268 49.7039L33.4111 49.8281ZM33.8675 48.6658L34.3215 48.8754C34.3757 48.7579 34.434 48.6348 34.4959 48.507L34.0459 48.2891L33.5959 48.0711C33.5316 48.2039 33.4707 48.3325 33.4135 48.4562L33.8675 48.6658ZM34.0459 48.2891L34.4959 48.507C34.5704 48.3532 34.6491 48.1946 34.731 48.0329L34.2849 47.807L33.8388 47.5812C33.7547 47.7474 33.6733 47.9113 33.5959 48.0711L34.0459 48.2891ZM34.783 46.8531L35.2237 47.0892C35.308 46.9319 35.393 46.7749 35.4778 46.6196L35.0391 46.3799L34.6003 46.1401C34.5143 46.2975 34.4279 46.457 34.3422 46.617L34.783 46.8531ZM35.0391 46.3799L35.4224 46.7009L36.0504 45.9511L35.6671 45.6301L35.2838 45.309L34.6558 46.0588L35.0391 46.3799ZM36.9232 44.1304L37.3065 44.4515L38.5626 42.9519L38.1793 42.6308L37.796 42.3097L36.5399 43.8094L36.9232 44.1304ZM39.4354 41.1312L39.8187 41.4522L41.0748 39.9526L40.6915 39.6315L40.3082 39.3105L39.0521 40.8101L39.4354 41.1312ZM41.9476 38.1319L42.3309 38.453L43.587 36.9533L43.2037 36.6323L42.8204 36.3112L41.5643 37.8108L41.9476 38.1319ZM44.4598 35.1326L44.8431 35.4537L46.0992 33.9541L45.7159 33.633L45.3326 33.3119L44.0765 34.8116L44.4598 35.1326ZM46.972 32.1334L47.3553 32.4544L48.6115 30.9548L48.2281 30.6337L47.8448 30.3127L46.5887 31.8123L46.972 32.1334ZM49.4843 29.1341L49.8676 29.4552L51.1237 27.9555L50.7404 27.6345L50.3571 27.3134L49.1009 28.813L49.4843 29.1341ZM51.9965 26.1348L52.3798 26.4559L53.6359 24.9563L53.2526 24.6352L52.8693 24.3141L51.6132 25.8138L51.9965 26.1348ZM54.5087 23.1356L54.892 23.4566L55.52 22.7068L55.1367 22.3857L54.7534 22.0647L54.1254 22.8145L54.5087 23.1356ZM55.1367 22.3857L54.9596 22.8533C55.2403 22.9596 55.527 23.0538 55.8191 23.135L55.9531 22.6533L56.0871 22.1716C55.8244 22.0985 55.5664 22.0138 55.3138 21.9181L55.1367 22.3857ZM57.6417 22.9615L57.5969 23.4595C57.8944 23.4863 58.1957 23.5 58.5 23.5V23V22.5C58.2257 22.5 57.9544 22.4877 57.6866 22.4635L57.6417 22.9615ZM58.5 23V23.5C58.8305 23.5 59.1574 23.4839 59.48 23.4526L59.4315 22.9549L59.3831 22.4573C59.0927 22.4855 58.7981 22.5 58.5 22.5V23ZM61.2586 22.5933L61.4036 23.0718C62.0363 22.8801 62.6425 22.6274 63.2151 22.3207L62.9791 21.8799L62.743 21.4392C62.2277 21.7152 61.6826 21.9424 61.1137 22.1148L61.2586 22.5933ZM64.5268 20.8439L64.8442 21.2302C65.3502 20.8145 65.8145 20.3502 66.2302 19.8442L65.8439 19.5268L65.4576 19.2094C65.0832 19.665 64.665 20.0832 64.2094 20.4576L64.5268 20.8439ZM66.8799 17.9791L67.3207 18.2151C67.6274 17.6425 67.8801 17.0363 68.0718 16.4036L67.5933 16.2586L67.1148 16.1137C66.9424 16.6826 66.7152 17.2277 66.4392 17.743L66.8799 17.9791ZM67.9549 14.4315L68.4526 14.48C68.4839 14.1574 68.5 13.8305 68.5 13.5H68H67.5C67.5 13.7981 67.4855 14.0927 67.4573 14.3831L67.9549 14.4315ZM68 13.5H68.5C68.5 13.1695 68.4839 12.8426 68.4526 12.52L67.9549 12.5685L67.4573 12.6169C67.4855 12.9073 67.5 13.2019 67.5 13.5H68ZM67.5933 10.7414L68.0718 10.5964C67.8801 9.96367 67.6274 9.35754 67.3207 8.78486L66.8799 9.02093L66.4392 9.25701C66.7152 9.77227 66.9424 10.3174 67.1148 10.8863L67.5933 10.7414ZM65.8439 7.47317L66.2302 7.15576C65.8145 6.64984 65.3502 6.18547 64.8442 5.76979L64.5268 6.15612L64.2094 6.54245C64.665 6.91678 65.0832 7.33498 65.4576 7.79058L65.8439 7.47317ZM62.9791 5.12006L63.2151 4.6793C62.6425 4.37256 62.0363 4.1199 61.4036 3.92821L61.2586 4.40673L61.1137 4.88525C61.6826 5.05761 62.2277 5.28483 62.743 5.56082L62.9791 5.12006ZM59.4315 4.04509L59.48 3.54744C59.1574 3.51605 58.8305 3.5 58.5 3.5V4V4.5C58.7981 4.5 59.0927 4.51448 59.3831 4.54274L59.4315 4.04509ZM58.5 4V3.5C58.1807 3.5 57.8647 3.51498 57.5528 3.54431L57.5996 4.04211L57.6464 4.53992C57.9273 4.51351 58.212 4.5 58.5 4.5V4ZM55.8313 4.37997L55.6911 3.90004C55.0778 4.07922 54.4889 4.31554 53.9307 4.60282L54.1595 5.0474L54.3883 5.49199C54.8905 5.23355 55.4201 5.02102 55.9716 4.85991L55.8313 4.37997ZM52.6441 6.01918L52.3356 5.6257C51.8374 6.01632 51.3772 6.4532 50.9615 6.92988L51.3383 7.25851L51.7151 7.58714C52.0895 7.15785 52.504 6.76441 52.9526 6.41267L52.6441 6.01918ZM50.2884 8.72092L49.8565 8.46904C49.5398 9.01205 49.2728 9.58769 49.0617 10.1897L49.5336 10.3552L50.0054 10.5206C50.1952 9.97925 50.4354 9.46143 50.7203 8.97279L50.2884 8.72092ZM49.1027 12.1031L48.6081 12.0302C48.5623 12.3405 48.5309 12.6554 48.5143 12.9741L49.0137 13L49.513 13.0259C49.5279 12.7387 49.5562 12.4552 49.5974 12.176L49.1027 12.1031ZM49.0137 13V12.5H48.0022V13V13.5H49.0137V13ZM45.9791 13V12.5H43.9561V13V13.5H45.9791V13ZM41.9331 13V12.5H39.91V13V13.5H41.9331V13ZM37.887 13V12.5H35.864V13V13.5H37.887V13ZM33.8409 13V12.5H31.8179V13V13.5H33.8409V13ZM29.7949 13V12.5H27.7719V13V13.5H29.7949V13ZM25.7488 13V12.5H24.7373V13V13.5H25.7488V13ZM24.7373 13L25.21 12.8371C25.0909 12.4913 24.9585 12.1153 24.8142 11.7172L24.3441 11.8876L23.8741 12.0581C24.0164 12.4507 24.147 12.8216 24.2646 13.1629L24.7373 13ZM23.501 9.68379L23.9645 9.49635C23.818 9.13404 23.665 8.76621 23.5062 8.39709L23.0469 8.59473L22.5876 8.79237C22.7433 9.15413 22.8934 9.51512 23.0374 9.87124L23.501 9.68379ZM23.0469 8.59473L23.5062 8.39708C23.329 7.98549 23.1436 7.56969 22.9507 7.15605L22.4975 7.3674L22.0444 7.57876C22.2326 7.9823 22.414 8.38888 22.5876 8.79237L23.0469 8.59473ZM21.264 4.97836L21.6966 4.72761C21.4597 4.31899 21.2152 3.9261 20.964 3.55735L20.5508 3.83887L20.1376 4.12038C20.373 4.4659 20.6046 4.83783 20.8314 5.22911L21.264 4.97836ZM20.5508 3.83887L20.964 3.55734C20.8497 3.38957 20.7326 3.2247 20.6128 3.06397L20.2119 3.36282L19.8111 3.66167C19.9216 3.80999 20.0305 3.96323 20.1376 4.1204L20.5508 3.83887ZM19.4633 2.46617L19.8258 2.12175C19.6798 1.96812 19.5297 1.82199 19.3756 1.68537L19.0439 2.05957L18.7123 2.43377C18.8428 2.54942 18.9724 2.67537 19.1009 2.81059L19.4633 2.46617ZM19.0439 2.05957L19.3756 1.68536C19.2306 1.5569 19.077 1.43241 18.9149 1.31597L18.6232 1.72204L18.3314 2.1281C18.4626 2.22231 18.5896 2.32504 18.7123 2.43378L19.0439 2.05957ZM17.6736 1.21696L17.8375 0.744608C17.6413 0.676485 17.4362 0.62449 17.223 0.593192L17.1504 1.08789L17.0778 1.58259C17.2245 1.60412 17.3684 1.64029 17.5096 1.68932L17.6736 1.21696ZM17.1504 1.08789L17.223 0.593192C16.9495 0.553051 16.6574 0.513066 16.3511 0.473434L16.2869 0.969302L16.2228 1.46517C16.5246 1.50422 16.811 1.54343 17.0778 1.58259L17.1504 1.08789ZM14.5546 0.763802L14.6093 0.266802C14.0425 0.204427 13.456 0.143767 12.869 0.085723L12.8198 0.583297L12.7706 1.08087C13.3547 1.13863 13.9374 1.19891 14.5 1.2608L14.5546 0.763802ZM11.0834 0.418638L11.1288 -0.0792964C10.8331 -0.106261 10.5422 -0.132288 10.2587 -0.157252L10.2148 0.34082L10.171 0.838892C10.4535 0.863774 10.7434 0.889709 11.038 0.916572L11.0834 0.418638ZM10.2148 0.34082L10.2587 -0.157252C10.0079 -0.179336 9.76266 -0.200635 9.52461 -0.221054L9.48188 0.277117L9.43915 0.775288C9.67648 0.795646 9.92102 0.816879 10.171 0.838893L10.2148 0.34082ZM8.01541 0.154538L8.05598 -0.343814C7.78903 -0.365543 7.54276 -0.385265 7.32162 -0.402743L7.28223 0.0957031L7.24283 0.594149C7.46321 0.611566 7.7087 0.631225 7.97484 0.65289L8.01541 0.154538ZM7.28223 0.0957031L7.32162 -0.402743C7.24472 -0.40882 7.17085 -0.414623 7.1002 -0.420144L7.06125 0.0783358L7.02229 0.576816C7.09266 0.582316 7.16624 0.588095 7.24283 0.594149L7.28223 0.0957031ZM6.61939 0.0441765L6.65753 -0.454367C6.57518 -0.460667 6.5012 -0.466293 6.43629 -0.471221L6.39844 0.0273438L6.36059 0.525909C6.4254 0.53083 6.49916 0.536439 6.58125 0.54272L6.61939 0.0441765ZM6.39844 0.0273438L6.43629 -0.471222C6.41545 -0.472803 6.39551 -0.47433 6.37648 -0.475795L6.33812 0.0227315L6.29975 0.521258C6.31906 0.522743 6.33935 0.524297 6.36059 0.525909L6.39844 0.0273438ZM6.21752 0.0133919L6.25608 -0.485119C6.23328 -0.486883 6.21258 -0.488471 6.19442 -0.489826L6.15723 0.00878906L6.12003 0.507404C6.13678 0.508653 6.15637 0.510155 6.17896 0.511903L6.21752 0.0133919ZM6.15723 0.00878906L6.19442 -0.489826C6.18951 -0.490192 6.18479 -0.490552 6.18025 -0.490904L6.14159 0.00759928L6.10294 0.506103C6.10831 0.506519 6.11402 0.506955 6.12004 0.507404L6.15723 0.00878906ZM6.11035 0.00512083L6.15011 -0.493296C6.14413 -0.493773 6.13767 -0.494283 6.13161 -0.494731L6.09473 0.00390625L6.05784 0.502544C6.06079 0.502762 6.06477 0.503073 6.07059 0.503538L6.11035 0.00512083ZM6.09473 0.00390625L6.13161 -0.494731C6.12851 -0.494961 6.12565 -0.495156 6.1231 -0.495321L6.09082 0.003636L6.05854 0.502593L6.05784 0.502544L6.09473 0.00390625ZM6.08301 0.00317554L6.11155 -0.496009C6.11029 -0.496081 6.11254 -0.495962 6.11584 -0.495718L6.0791 0.00292969L6.04236 0.501578C6.04794 0.501989 6.0528 0.502265 6.05446 0.50236L6.08301 0.00317554ZM6.0791 0.00292969V-0.49707H6.07764V0.00292969V0.50293H6.0791V0.00292969ZM6.07471 0.00292969V-0.49707H6.07324V0.00292969V0.50293H6.07471V0.00292969ZM30.6738 97.4531L31.0809 97.7434C31.0685 97.7608 31.0575 97.7739 31.051 97.7813L30.6752 97.4514L30.2995 97.1215C30.292 97.13 30.28 97.1442 30.2668 97.1628L30.6738 97.4531ZM30.6783 97.448L31.0543 97.7776C31.062 97.7689 31.0741 97.7545 31.0874 97.7357L30.6797 97.4463L30.2719 97.1569C30.2844 97.1393 30.2956 97.1261 30.3022 97.1185L30.6783 97.448ZM30.6797 97.4463V97.9463H31.1172V97.4463V96.9463H30.6797V97.4463ZM31.9922 97.4463V97.9463H32.4297V97.4463V96.9463H31.9922V97.4463ZM32.4297 97.4463L32.0022 97.7057C32.0149 97.7266 32.0267 97.7426 32.034 97.7521L32.4304 97.4473L32.8268 97.1425C32.8336 97.1514 32.8449 97.1667 32.8571 97.1869L32.4297 97.4463ZM32.4319 97.4492L32.0357 97.7542C32.029 97.7455 32.0177 97.7303 32.0055 97.7102L32.4326 97.4502L32.8597 97.1902C32.8471 97.1694 32.8353 97.1536 32.8281 97.1442L32.4319 97.4492ZM32.4326 97.4502L32.4368 96.9502C32.38 96.9497 32.3229 96.9492 32.2657 96.9488L32.2617 97.4488L32.2577 97.9488C32.3146 97.9492 32.3715 97.9497 32.4284 97.9502L32.4326 97.4502ZM31.9199 97.4466L31.9218 96.9466C31.8644 96.9464 31.8068 96.9463 31.749 96.9463V97.4463V97.9463C31.8054 97.9463 31.8617 97.9464 31.918 97.9466L31.9199 97.4466ZM31.749 97.4463L31.749 96.9463C31.6587 96.9463 31.5686 96.9464 31.4787 96.9467L31.4802 97.4467L31.4817 97.9467C31.5706 97.9464 31.6597 97.9463 31.749 97.9463L31.749 97.4463ZM30.9426 97.45L30.9378 96.9501C30.8473 96.9509 30.7571 96.952 30.6671 96.9532L30.6738 97.4531L30.6805 97.9531C30.7692 97.9519 30.8582 97.9509 30.9474 97.95L30.9426 97.45ZM6.07324 0.00292969L6.04468 1.00252C6.0542 1.00279 6.06372 1.00293 6.07324 1.00293L6.07324 0.00292969ZM6.0791 0.00292969L6.15259 -0.994367C6.12813 -0.996168 6.10362 -0.99707 6.0791 -0.99707L6.0791 0.00292969ZM6.09473 0.00390625L6.1685 -0.993369L6.1685 -0.993369L6.09473 0.00390625ZM6.15723 0.00878906L6.23161 -0.988441L6.23161 -0.988441L6.15723 0.00878906ZM6.39844 0.0273438L6.47414 -0.969787L6.47414 -0.969787L6.39844 0.0273438ZM7.28223 0.0957031L7.36102 -0.901188L7.36101 -0.901188L7.28223 0.0957031ZM10.2148 0.34082L10.3026 -0.655324L10.3026 -0.655324L10.2148 0.34082ZM17.1504 1.08789L17.2956 0.0984929L17.2956 0.0984924L17.1504 1.08789ZM19.0439 2.05957L19.7072 1.31116L19.7072 1.31115L19.0439 2.05957ZM20.5508 3.83887L21.3772 3.27584L21.3772 3.27581L20.5508 3.83887ZM23.0469 8.59473L23.9654 8.19945L23.9654 8.19944L23.0469 8.59473ZM24.7373 13L23.7918 13.3257C23.9309 13.7292 24.3106 14 24.7373 14V13ZM49.0137 13V14C49.5458 14 49.9848 13.5832 50.0123 13.0518L49.0137 13ZM55.1367 22.3857L55.4909 21.4506C55.093 21.2999 54.6433 21.4175 54.3701 21.7436L55.1367 22.3857ZM35.0391 46.3799L34.2725 45.7378C34.2302 45.7882 34.1931 45.8427 34.1615 45.9004L35.0391 46.3799ZM34.0459 48.2891L33.1459 47.8532L33.1459 47.8532L34.0459 48.2891ZM33.4111 49.8281L32.4425 49.5797L32.4425 49.5798L33.4111 49.8281ZM32.9736 52.7803L31.9797 52.6705C31.9756 52.707 31.9736 52.7436 31.9736 52.7803H32.9736ZM32.9736 96.3008H31.9736C31.9736 96.4369 32.0014 96.5715 32.0552 96.6965L32.9736 96.3008ZM33.2002 96.7793L32.3198 97.2536L32.3199 97.2537L33.2002 96.7793ZM33.4736 97.1836L32.7811 97.905C32.8081 97.9309 32.8365 97.9552 32.8662 97.978L33.4736 97.1836ZM33.54 97.2344L32.9326 98.0287C32.945 98.0383 32.9577 98.0475 32.9706 98.0564L33.54 97.2344ZM33.6982 97.334L33.1874 98.1936L33.1874 98.1937L33.6982 97.334ZM33.9561 97.4775L33.4829 98.3585C33.62 98.4322 33.7725 98.4728 33.9281 98.4771L33.9561 97.4775ZM43.9961 99.3301L44.9961 99.331V99.3301H43.9961ZM31.749 101.214L31.749 102.214H31.749V101.214ZM19.502 99.3301L18.502 99.3301L18.502 99.331L19.502 99.3301ZM28.9287 97.498L28.9649 98.4974C29.0907 98.4928 29.2145 98.4646 29.3299 98.4141L28.9287 97.498ZM29.3262 97.3164L29.7699 98.2126L29.77 98.2125L29.3262 97.3164ZM29.6143 97.1533L30.238 97.9349L30.2391 97.9341L29.6143 97.1533ZM29.9473 96.7451L30.787 97.2882L30.787 97.2881L29.9473 96.7451ZM30.2793 96.1494L31.175 96.5941C31.2436 96.4559 31.2793 96.3037 31.2793 96.1494H30.2793ZM30.2793 53.0576H31.2793C31.2793 53.0131 31.2763 52.9687 31.2704 52.9247L30.2793 53.0576ZM29.6523 49.6221L30.601 49.3059L30.601 49.3058L29.6523 49.6221ZM28.8682 48.1602L29.7144 47.6274L29.7144 47.6273L28.8682 48.1602ZM27.5322 46.1924L28.346 45.6111L28.346 45.6111L27.5322 46.1924ZM26.2822 44.4912L27.0805 43.889L27.0805 43.889L26.2822 44.4912ZM25.8818 43.9648L26.6751 43.356L26.6751 43.356L25.8818 43.9648ZM25.7705 43.8203L26.5617 43.2088L26.5617 43.2088L25.7705 43.8203ZM25.7422 43.7832L26.5325 43.1706L26.5324 43.1704L25.7422 43.7832ZM25.7344 43.7734L24.9446 44.3868L24.9454 44.3878L25.7344 43.7734ZM25.7324 43.7715H24.7324C24.7324 44.0107 24.8181 44.2419 24.974 44.4233L25.7324 43.7715ZM25.7324 43.7705L25.1041 42.9926C24.869 43.1824 24.7324 43.4684 24.7324 43.7705H25.7324ZM25.7578 43.75L26.3861 44.5279C26.5949 44.3593 26.7271 44.1139 26.7531 43.8469C26.7791 43.5798 26.6967 43.3136 26.5244 43.1079L25.7578 43.75ZM0 13V12C-0.388478 12 -0.741801 12.225 -0.906128 12.577C-1.07046 12.929 -1.01605 13.3443 -0.76659 13.6421L0 13ZM22.6172 13V14C22.9421 14 23.2468 13.8421 23.4341 13.5767C23.6215 13.3113 23.6683 12.9713 23.5595 12.6652L22.6172 13ZM21.21 9.38574L22.1285 8.99046L22.1285 8.99046L21.21 9.38574ZM18.8975 4.96484L19.7239 4.4018L19.7239 4.40179L18.8975 4.96484ZM17.7178 3.55664L18.3811 2.80827L18.381 2.80823L17.7178 3.55664ZM16.8604 3.06641L17.0059 2.07706L17.0056 2.07701L16.8604 3.06641ZM10.0391 2.33301L10.1268 1.33686L10.1268 1.33686L10.0391 2.33301ZM7.125 2.08984L7.20379 1.09295L7.20379 1.09295L7.125 2.08984ZM6.24707 2.02148L6.32277 1.02435L6.32277 1.02435L6.24707 2.02148ZM6.00879 2.00293L6.08317 1.0057L6.08317 1.0057L6.00879 2.00293ZM5.94727 1.99902L6.02104 1.00175L6.02104 1.00175L5.94727 1.99902ZM5.93164 1.99805L6.00512 1.00075L6.00511 1.00075L5.93164 1.99805ZM5.92773 1.99707L6.00107 0.999763C5.97667 0.997968 5.9522 0.99707 5.92773 0.99707V1.99707ZM5.92676 1.99707L5.80272 2.98935C5.84387 2.99449 5.88529 2.99707 5.92676 2.99707L5.92676 1.99707ZM5.8252 1.98438L5.65154 2.96918C5.66802 2.97209 5.68456 2.97458 5.70116 2.97665L5.8252 1.98438ZM5.00293 0.926758L4.00562 0.853499L4.00561 0.853566L5.00293 0.926758ZM5.9707 0L5.99926 -0.999592C5.98039 -1.00013 5.9615 -1.00014 5.94263 -0.999606L5.9707 0ZM30.6738 97.4531L29.8597 96.8725C29.6408 97.1793 29.6131 97.5831 29.7879 97.917C29.9627 98.2508 30.3104 98.4581 30.6872 98.453L30.6738 97.4531ZM31.749 97.4463L31.749 96.4463L31.749 96.4463L31.749 97.4463ZM32.4326 97.4502L32.4242 98.4502C32.7871 98.4532 33.1232 98.2594 33.3023 97.9438C33.4814 97.6282 33.4755 97.2403 33.2868 96.9303L32.4326 97.4502ZM32.4297 97.4463L33.2846 96.9275C33.1033 96.6287 32.7792 96.4463 32.4297 96.4463V97.4463ZM30.6797 97.4463V96.4463C30.3557 96.4463 30.0517 96.6033 29.8642 96.8675L30.6797 97.4463ZM6.07324 0.00292969L6.1018 -0.996662L6.07617 -0.997395L6.04761 0.00219727L6.01905 1.00179L6.04468 1.00252L6.07324 0.00292969ZM5.99634 0.000732422L6.0249 -0.99886L5.99926 -0.999592L5.9707 0L5.94214 0.999592L5.96778 1.00032L5.99634 0.000732422ZM5.9707 0L5.94263 -0.999606C5.69111 -0.992541 5.44908 -0.938331 5.22678 -0.845002L5.61389 0.0770328L6.001 0.999068C6.00074 0.999176 6.00029 0.999333 5.99971 0.999459C5.99909 0.999594 5.99872 0.999608 5.99878 0.999606L5.9707 0ZM5.09536 0.573583L4.19073 0.147387C4.08839 0.364605 4.02401 0.603076 4.00562 0.853499L5.00293 0.926758L6.00024 1.00002L5.99999 0.999778L5.09536 0.573583ZM5.00293 0.926758L4.00561 0.853566C3.98723 1.10404 4.01611 1.3494 4.0857 1.57929L5.04281 1.28958L5.99992 0.999868L6.00025 0.999949L5.00293 0.926758ZM5.48346 1.8562L4.96634 2.71212C5.17258 2.83672 5.40397 2.92553 5.65154 2.96918L5.8252 1.98438L5.99885 0.999568C5.99869 0.99954 5.99898 0.999585 5.99951 0.999784C6 0.999969 6.00037 1.00016 6.00059 1.00029L5.48346 1.8562ZM5.8252 1.98438L5.70116 2.97665L5.72655 2.97983L5.85059 1.98755L5.97462 0.995271L5.94923 0.992097L5.8252 1.98438ZM5.90137 1.9939L5.77733 2.98617L5.80272 2.98935L5.92676 1.99707L6.05079 1.00479L6.0254 1.00162L5.90137 1.9939ZM5.92676 1.99707V2.99707H5.927V1.99707V0.99707H5.92676V1.99707ZM5.92749 1.99707V2.99707H5.92773V1.99707V0.99707H5.92749V1.99707ZM5.92773 1.99707L5.8544 2.99438C5.7707 2.98822 5.70637 2.97269 5.67786 2.96532C5.64655 2.95722 5.62257 2.94932 5.61663 2.94737L5.92871 1.99731L6.24079 1.04726C6.23447 1.04518 6.21014 1.03717 6.17849 1.02899C6.14966 1.02153 6.08503 1.00594 6.00107 0.999763L5.92773 1.99707ZM5.93064 1.9979L5.71406 2.97416C5.75085 2.98232 5.79989 2.99105 5.85817 2.99534L5.93164 1.99805L6.00511 1.00075C6.06271 1.00499 6.11108 1.01361 6.14722 1.02163L5.93064 1.9979ZM5.93164 1.99805L5.85816 2.99534C5.86844 2.9961 5.87722 2.99659 5.87862 2.99667L5.93555 1.99829L5.99248 0.999913C5.99229 0.999902 5.99345 0.999968 5.99517 1.00007C5.99685 1.00018 6.00044 1.00041 6.00512 1.00075L5.93164 1.99805ZM5.94336 1.99875L5.87864 2.99666C5.8773 2.99657 5.87556 2.99645 5.87349 2.9963L5.94727 1.99902L6.02104 1.00175C6.01625 1.00139 6.0119 1.0011 6.00808 1.00085L5.94336 1.99875ZM5.94727 1.99902L5.87349 2.9963C5.88653 2.99726 5.89865 2.99797 5.90454 2.99831L5.96264 2L6.02074 1.00169L6.02104 1.00175L5.94727 1.99902ZM5.99341 2.00185L5.92775 2.99969C5.93012 2.99985 5.93231 3 5.93441 3.00016L6.00879 2.00293L6.08317 1.0057C6.07451 1.00505 6.06645 1.0045 6.05907 1.00401L5.99341 2.00185ZM6.00879 2.00293L5.9344 3.00016C5.94946 3.00128 5.96764 3.0027 5.98986 3.00445L6.06835 2.00753L6.14685 1.01062C6.12417 1.00883 6.10257 1.00715 6.08317 1.0057L6.00879 2.00293ZM6.18748 2.0169L6.10999 3.0139C6.12941 3.01541 6.14988 3.01698 6.17137 3.01861L6.24707 2.02148L6.32277 1.02435C6.30267 1.02283 6.28339 1.02134 6.26496 1.01991L6.18748 2.0169ZM6.24707 2.02148L6.17137 3.01861C6.23522 3.02346 6.30815 3.02905 6.38955 3.03534L6.46656 2.03831L6.54358 1.04128C6.4615 1.03494 6.38768 1.02928 6.32277 1.02435L6.24707 2.02148ZM6.90548 2.07254L6.82713 3.06947C6.89702 3.07496 6.9701 3.08072 7.04621 3.08674L7.125 2.08984L7.20379 1.09295C7.1274 1.08692 7.05402 1.08113 6.98383 1.07562L6.90548 2.07254ZM7.125 2.08984L7.04621 3.08674C7.26496 3.10402 7.50856 3.1235 7.7726 3.14494L7.85354 2.14822L7.93449 1.1515C7.66891 1.12993 7.42386 1.11035 7.20379 1.09295L7.125 2.08984ZM9.31074 2.26976L9.2254 3.26611C9.46085 3.28628 9.70341 3.30732 9.95133 3.32915L10.0391 2.33301L10.1268 1.33686C9.87718 1.31488 9.63301 1.2937 9.39608 1.27341L9.31074 2.26976ZM10.0391 2.33301L9.95133 3.32915C10.2295 3.35365 10.5141 3.37911 10.8025 3.40539L10.8932 2.40952L10.984 1.41365C10.6934 1.38716 10.4069 1.36153 10.1268 1.33686L10.0391 2.33301ZM12.6011 2.57129L12.5028 3.56646C13.0777 3.6232 13.6488 3.68216 14.1982 3.74244L14.3072 2.7484L14.4163 1.75437C13.8584 1.69315 13.2799 1.63344 12.6993 1.57613L12.6011 2.57129ZM16.0111 2.94994L15.8831 3.94172C16.1787 3.97986 16.4573 4.01796 16.7151 4.0558L16.8604 3.06641L17.0056 2.07701C16.7341 2.03716 16.4438 1.99748 16.1391 1.95817L16.0111 2.94994ZM16.8604 3.06641L16.7148 4.05575C16.6988 4.0534 16.6899 4.05086 16.6883 4.05042C16.6868 4.04996 16.6917 4.05131 16.7033 4.05631L17.0991 3.13795L17.4948 2.2196C17.3364 2.15134 17.1727 2.1016 17.0059 2.07706L16.8604 3.06641ZM17.5251 3.39728L16.9172 4.19129C16.9583 4.22275 17.0041 4.26033 17.0545 4.30505L17.7178 3.55664L18.381 2.80823C18.2972 2.73399 18.2146 2.66574 18.133 2.60327L17.5251 3.39728ZM17.7178 3.55664L17.0545 4.30501C17.1354 4.37674 17.2226 4.46187 17.3157 4.56149L18.0464 3.87873L18.777 3.19597C18.6472 3.05701 18.5151 2.92711 18.3811 2.80827L17.7178 3.55664ZM18.6312 4.5893L17.8272 5.18392C17.907 5.2918 17.9883 5.40648 18.071 5.5279L18.8975 4.96484L19.7239 4.40179C19.6277 4.26063 19.5315 4.12482 19.4352 3.99469L18.6312 4.5893ZM18.8975 4.96484L18.071 5.52789C18.2773 5.83071 18.4848 6.16453 18.692 6.52378L19.5583 6.02429L20.4246 5.5248C20.1972 5.13035 19.9632 4.75309 19.7239 4.4018L18.8975 4.96484ZM20.7001 8.24546L19.7935 8.66739C19.9637 9.03307 20.1299 9.40581 20.2914 9.78102L21.21 9.38574L22.1285 8.99046C21.9602 8.59922 21.7859 8.2086 21.6067 7.82353L20.7001 8.24546ZM21.21 9.38574L20.2914 9.78102C20.4175 10.074 20.5399 10.367 20.6584 10.6577L21.5844 10.2804L22.5105 9.90301C22.3876 9.60133 22.2601 9.29629 22.1285 8.99046L21.21 9.38574ZM22.2864 12.0885L21.3488 12.436C21.4642 12.7474 21.5731 13.0483 21.6749 13.3348L22.6172 13L23.5595 12.6652C23.4549 12.3709 23.3429 12.0615 23.2241 11.7409L22.2864 12.0885ZM22.6172 13V12H21.6748V13V14H22.6172V13ZM19.79 13V12H17.9053V13V14H19.79V13ZM16.0205 13V12H14.1357V13V14H16.0205V13ZM12.251 13V12H10.3662V13V14H12.251V13ZM8.48145 13V12H6.59668V13V14H8.48145V13ZM4.71191 13V12H2.82715V13V14H4.71191V13ZM0.942383 13V12H0V13V14H0.942383V13ZM0 13L-0.76659 13.6421L-0.122645 14.4109L0.643945 13.7687L1.41054 13.1266L0.76659 12.3579L0 13ZM1.93184 15.3062L1.16525 15.9484L2.45314 17.4859L3.21973 16.8437L3.98632 16.2016L2.69843 14.6641L1.93184 15.3062ZM4.50762 18.3812L3.74103 19.0234L5.02892 20.5609L5.79551 19.9187L6.5621 19.2766L5.27421 17.7391L4.50762 18.3812ZM7.0834 21.4563L6.31681 22.0984L7.6047 23.6359L8.37129 22.9938L9.13788 22.3516L7.84999 20.8141L7.0834 21.4563ZM9.65918 24.5312L8.89259 25.1734L10.1805 26.7109L10.9471 26.0687L11.7137 25.4266L10.4258 23.8891L9.65918 24.5312ZM12.235 27.6062L11.4684 28.2484L12.7563 29.7859L13.5229 29.1437L14.2894 28.5016L13.0016 26.9641L12.235 27.6062ZM14.8107 30.6812L14.0442 31.3234L15.332 32.8609L16.0986 32.2188L16.8652 31.5766L15.5773 30.0391L14.8107 30.6812ZM17.3865 33.7563L16.6199 34.3984L17.9078 35.9359L18.6744 35.2938L19.441 34.6516L18.1531 33.1141L17.3865 33.7563ZM19.9623 36.8313L19.1957 37.4734L20.4836 39.0109L21.2502 38.3688L22.0168 37.7266L20.7289 36.1891L19.9623 36.8313ZM22.5381 39.9063L21.7715 40.5484L23.0594 42.0859L23.826 41.4438L24.5926 40.8016L23.3047 39.2641L22.5381 39.9063ZM25.1139 42.9813L24.3473 43.6234L24.9912 44.3921L25.7578 43.75L26.5244 43.1079L25.8805 42.3391L25.1139 42.9813ZM25.7578 43.75L25.1295 42.9721L25.1231 42.9772L25.7515 43.7551L26.3798 44.5331L26.3861 44.5279L25.7578 43.75ZM25.7388 43.7654L25.1104 42.9874L25.1041 42.9926L25.7324 43.7705L26.3608 44.5484L26.3671 44.5433L25.7388 43.7654ZM25.7324 43.7705H24.7324V43.7708H25.7324H26.7324V43.7705H25.7324ZM25.7324 43.7712H24.7324V43.7715H25.7324H26.7324V43.7712H25.7324ZM25.7324 43.7715L24.974 44.4233C25.0021 44.4559 25.0262 44.4797 25.0369 44.49C25.0487 44.5014 25.0583 44.5101 25.0604 44.5121L25.7329 43.772L26.4054 43.0319C26.4074 43.0336 26.4167 43.0421 26.4284 43.0534C26.4389 43.0636 26.4629 43.0872 26.4908 43.1197L25.7324 43.7715ZM25.7339 43.7729L25.0121 44.465C24.9948 44.447 24.9708 44.4206 24.9446 44.3868L25.7344 43.7734L26.5242 43.16C26.4976 43.1259 26.4734 43.0992 26.4558 43.0808L25.7339 43.7729ZM25.7344 43.7734L24.9454 44.3878C24.9528 44.3974 24.9595 44.4055 24.9597 44.4059L25.7363 43.7759L26.5129 43.1459C26.513 43.1459 26.5132 43.1462 26.5136 43.1467C26.5139 43.1471 26.5145 43.1478 26.5153 43.1488C26.5166 43.1504 26.5196 43.1541 26.5234 43.159L25.7344 43.7734ZM25.7403 43.7807L24.9575 44.4031C24.9561 44.4013 24.9542 44.3989 24.9519 44.396L25.7422 43.7832L26.5324 43.1704C26.5289 43.1658 26.5257 43.1618 26.523 43.1584L25.7403 43.7807ZM25.7422 43.7832L24.9518 44.3959C24.9509 44.3947 24.9505 44.3941 24.9508 44.3945C24.951 44.3948 24.9515 44.3955 24.9526 44.3969L25.7493 43.7925L26.546 43.1881C26.5431 43.1843 26.538 43.1777 26.5325 43.1706L25.7422 43.7832ZM25.7634 43.8111L24.969 44.4185C24.9722 44.4226 24.9756 44.4271 24.9793 44.4318L25.7705 43.8203L26.5617 43.2088C26.5604 43.2071 26.5591 43.2054 26.5578 43.2036L25.7634 43.8111ZM25.7705 43.8203L24.9793 44.4318C24.9872 44.4421 24.9964 44.454 25.0067 44.4673L25.7984 43.8564L26.5901 43.2455C26.5794 43.2316 26.5699 43.2193 26.5617 43.2088L25.7705 43.8203ZM25.854 43.9287L25.0613 44.5382C25.0699 44.5495 25.079 44.5613 25.0885 44.5737L25.8818 43.9648L26.6751 43.356C26.6653 43.3432 26.6558 43.3309 26.6468 43.3191L25.854 43.9287ZM25.8818 43.9648L25.0885 44.5737C25.1177 44.6117 25.1509 44.655 25.1876 44.7031L25.9823 44.0961L26.777 43.4891C26.7393 43.4397 26.7052 43.3952 26.6751 43.356L25.8818 43.9648ZM26.1825 44.3593L25.3854 44.9631C25.4169 45.0047 25.4498 45.0482 25.4839 45.0935L26.2822 44.4912L27.0805 43.889C27.0456 43.8427 27.0119 43.7981 26.9797 43.7555L26.1825 44.3593ZM26.2822 44.4912L25.4839 45.0934C25.5793 45.2199 25.6844 45.36 25.7966 45.5107L26.5987 44.9135L27.4007 44.3162C27.2859 44.162 27.1783 44.0186 27.0805 43.889L26.2822 44.4912ZM27.2239 45.764L26.4143 46.3511C26.5143 46.489 26.6161 46.6302 26.7185 46.7736L27.5322 46.1924L28.346 45.6111C28.2406 45.4636 28.136 45.3184 28.0334 45.177L27.2239 45.764ZM27.5322 46.1924L26.7185 46.7736C26.8311 46.9312 26.9442 47.091 27.0565 47.2514L27.8757 46.6779L28.6949 46.1044C28.5786 45.9383 28.4618 45.7733 28.346 45.6111L27.5322 46.1924ZM28.5456 47.6606L27.711 48.2115C27.82 48.3766 27.9242 48.5377 28.0219 48.693L28.8682 48.1602L29.7144 47.6273C29.6079 47.4582 29.4958 47.2849 29.3802 47.1097L28.5456 47.6606ZM28.8682 48.1602L28.0219 48.693C28.0957 48.8102 28.1647 48.9223 28.2286 49.0287L29.086 48.514L29.9434 47.9994C29.8715 47.8795 29.795 47.7553 29.7144 47.6274L28.8682 48.1602ZM29.4891 49.2404L28.5921 49.6824C28.6549 49.8099 28.6886 49.8932 28.7037 49.9383L29.6523 49.6221L30.601 49.3058C30.5461 49.141 30.4695 48.9677 30.3861 48.7984L29.4891 49.2404ZM29.6523 49.6221L28.7037 49.9383C28.7549 50.092 28.8168 50.3375 28.8849 50.6697L29.8645 50.469L30.8442 50.2683C30.7711 49.9115 30.6903 49.5737 30.601 49.3059L29.6523 49.6221ZM30.1578 52.1921L29.1685 52.338C29.2098 52.6186 29.2499 52.9052 29.2882 53.1906L30.2793 53.0576L31.2704 52.9247C31.2312 52.6322 31.1899 52.3367 31.1471 52.0463L30.1578 52.1921ZM30.2793 53.0576H29.2793V54.037H30.2793H31.2793V53.0576H30.2793ZM30.2793 55.9957H29.2793V57.9544H30.2793H31.2793V55.9957H30.2793ZM30.2793 59.9131H29.2793V61.8718H30.2793H31.2793V59.9131H30.2793ZM30.2793 63.8306H29.2793V65.7893H30.2793H31.2793V63.8306H30.2793ZM30.2793 67.748H29.2793V69.7067H30.2793H31.2793V67.748H30.2793ZM30.2793 71.6654H29.2793V73.6242H30.2793H31.2793V71.6654H30.2793ZM30.2793 75.5829H29.2793V77.5416H30.2793H31.2793V75.5829H30.2793ZM30.2793 79.5003H29.2793V81.459H30.2793H31.2793V79.5003H30.2793ZM30.2793 83.4177H29.2793V85.3765H30.2793H31.2793V83.4177H30.2793ZM30.2793 87.3352H29.2793V89.2939H30.2793H31.2793V87.3352H30.2793ZM30.2793 91.2526H29.2793V93.2113H30.2793H31.2793V91.2526H30.2793ZM30.2793 95.17H29.2793V96.1494H30.2793H31.2793V95.17H30.2793ZM30.2793 96.1494L29.3836 95.7047C29.361 95.7502 29.3382 95.7952 29.3151 95.8395L30.202 96.3015L31.0889 96.7635C31.1186 96.7065 31.1473 96.6499 31.175 96.5941L30.2793 96.1494ZM30.0369 96.6L29.1763 96.0906C29.1527 96.1306 29.1297 96.1678 29.1075 96.2022L29.9473 96.7451L30.787 97.2881C30.8253 97.2289 30.8621 97.1691 30.8974 97.1094L30.0369 96.6ZM29.9473 96.7451L29.1076 96.2021C29.0889 96.2309 29.0715 96.2567 29.0554 96.2795L29.8734 96.8548L30.6914 97.43C30.7233 97.3846 30.7552 97.3373 30.787 97.2882L29.9473 96.7451ZM29.7096 97.0621L28.9725 96.3863C28.9682 96.391 28.967 96.3921 28.969 96.3902C28.9708 96.3885 28.9776 96.382 28.9894 96.3726L29.6143 97.1533L30.2391 97.9341C30.3185 97.8705 30.3879 97.802 30.4468 97.7379L29.7096 97.0621ZM29.6143 97.1533L28.9905 96.3717C29.0039 96.361 29.0145 96.3532 29.0206 96.3489C29.0271 96.3442 29.0317 96.3411 29.0339 96.3397C29.0381 96.3369 29.0375 96.3374 29.0308 96.3414L29.5452 97.199L30.0596 98.0565C30.1063 98.0285 30.1736 97.9863 30.238 97.9349L29.6143 97.1533ZM29.4001 97.279L28.9404 96.3909C28.9232 96.3998 28.9039 96.4096 28.8824 96.4203L29.3262 97.3164L29.77 98.2125C29.8017 98.1968 29.8316 98.1817 29.8598 98.1671L29.4001 97.279ZM29.3262 97.3164L28.8824 96.4202C28.8589 96.4319 28.8326 96.4445 28.8033 96.4583L29.2277 97.3637L29.6521 98.2692C29.6917 98.2507 29.7311 98.2318 29.7699 98.2126L29.3262 97.3164ZM29.0287 97.454L28.6236 96.5398C28.5929 96.5534 28.5609 96.5674 28.5276 96.582L28.9287 97.498L29.3299 98.4141C29.3649 98.3987 29.3997 98.3834 29.4338 98.3683L29.0287 97.454ZM28.9287 97.498L28.8925 96.4987C28.4686 96.5141 28.0529 96.5328 27.6465 96.5547L27.7003 97.5532L27.754 98.5518C28.1484 98.5305 28.5525 98.5123 28.9649 98.4974L28.9287 97.498ZM25.2504 97.7344L25.1544 96.739C24.2399 96.8272 23.3985 96.9336 22.6516 97.0559L22.8132 98.0428L22.9749 99.0296C23.6699 98.9158 24.4665 98.8146 25.3463 98.7298L25.2504 97.7344ZM20.4259 98.6113L20.0774 97.674C19.7395 97.7996 19.4025 97.9571 19.1317 98.165C18.881 98.3574 18.502 98.7403 18.502 99.3301H19.502H20.502C20.502 99.4925 20.447 99.6153 20.4024 99.6844C20.3624 99.7462 20.3313 99.7655 20.3496 99.7514C20.3655 99.7392 20.4057 99.7119 20.4813 99.6737C20.5554 99.6363 20.6521 99.5941 20.7744 99.5486L20.4259 98.6113ZM19.502 99.3301L18.502 99.331C18.5024 99.8655 18.817 100.231 19.0508 100.43C19.2929 100.635 19.591 100.789 19.8811 100.909L20.264 99.9854L20.6468 99.0616C20.5515 99.0222 20.4792 98.9868 20.4263 98.9571C20.3721 98.9268 20.349 98.9083 20.3458 98.9056C20.3412 98.9017 20.3759 98.9294 20.4148 98.9957C20.4573 99.0683 20.5018 99.1834 20.502 99.3292L19.502 99.3301ZM22.2986 100.528L22.1154 101.511C22.7564 101.631 23.4796 101.737 24.2681 101.828L24.3833 100.835L24.4985 99.8418C23.7453 99.7544 23.0686 99.6545 22.4819 99.5451L22.2986 100.528ZM26.4824 101.031L26.4092 102.029C27.0906 102.079 27.8051 102.119 28.5458 102.15L28.5868 101.15L28.6277 100.151C27.9073 100.122 27.2143 100.082 26.5555 100.034L26.4824 101.031ZM30.694 101.207L30.6809 102.207C31.033 102.212 31.3892 102.214 31.749 102.214L31.749 101.214L31.749 100.214C31.398 100.214 31.0505 100.212 30.7071 100.207L30.694 101.207ZM31.749 101.214V102.214C32.1088 102.214 32.465 102.212 32.8172 102.207L32.804 101.207L32.7909 100.207C32.4476 100.212 32.1001 100.214 31.749 100.214V101.214ZM34.9113 101.15L34.9523 102.15C35.693 102.119 36.4075 102.079 37.0889 102.029L37.0157 101.031L36.9425 100.034C36.2837 100.082 35.5908 100.122 34.8703 100.151L34.9113 101.15ZM39.1148 100.835L39.23 101.828C40.0184 101.737 40.7417 101.631 41.3827 101.511L41.1994 100.528L41.0162 99.5452C40.4295 99.6545 39.7527 99.7544 38.9995 99.8418L39.1148 100.835ZM43.2341 99.9855L43.6169 100.909C43.907 100.789 44.2051 100.635 44.4472 100.43C44.681 100.231 44.9956 99.8655 44.9961 99.331L43.9961 99.3301L42.9961 99.3292C42.9962 99.1834 43.0408 99.0683 43.0833 98.9957C43.1221 98.9294 43.1568 98.9017 43.1522 98.9056C43.1491 98.9083 43.126 98.9268 43.0718 98.9572C43.0189 98.9868 42.9465 99.0222 42.8513 99.0616L43.2341 99.9855ZM43.9961 99.3301H44.9961C44.9961 98.8598 44.7502 98.5177 44.539 98.3134C44.3288 98.11 44.0721 97.96 43.8307 97.8454L43.402 98.7489L42.9733 99.6523C43.0401 99.684 43.0872 99.7107 43.1185 99.7306C43.1506 99.7512 43.1569 99.759 43.1483 99.7507C43.1378 99.7405 42.9961 99.5975 42.9961 99.3301H43.9961ZM41.7411 98.2408L41.9527 97.2635C41.4217 97.1485 40.8219 97.0444 40.1664 96.952L40.0267 97.9422L39.887 98.9324C40.5061 99.0197 41.0565 99.1158 41.5296 99.2182L41.7411 98.2408ZM38.2992 97.7387L38.3962 96.7434C37.8348 96.6887 37.2444 96.6408 36.6297 96.6003L36.5641 97.5982L36.4984 98.596C37.0938 98.6352 37.6632 98.6814 38.2022 98.734L38.2992 97.7387ZM34.8267 97.507L34.8665 96.5078C34.5762 96.4962 34.2819 96.4863 33.984 96.4779L33.9561 97.4775L33.9281 98.4771C34.2182 98.4853 34.5046 98.495 34.787 98.5062L34.8267 97.507ZM33.9561 97.4775L34.4292 96.5966C34.4079 96.5851 34.3876 96.5742 34.3681 96.5636L33.8911 97.4425L33.4141 98.3214C33.4369 98.3338 33.4599 98.3462 33.4829 98.3585L33.9561 97.4775ZM33.762 97.371L34.2565 96.5018C34.2388 96.4918 34.2231 96.4826 34.2091 96.4743L33.6982 97.334L33.1874 98.1937C33.2141 98.2095 33.2409 98.2251 33.2676 98.2402L33.762 97.371ZM33.6982 97.334L34.2091 96.4743C34.1975 96.4674 34.1868 96.461 34.177 96.4551L33.6582 97.3099L33.1393 98.1648C33.1548 98.1742 33.1708 98.1838 33.1874 98.1936L33.6982 97.334ZM33.5789 97.2604L34.1235 96.4217C34.1156 96.4166 34.1112 96.4135 34.1095 96.4123L33.54 97.2344L32.9706 98.0564C32.9917 98.071 33.0131 98.0853 33.0343 98.0991L33.5789 97.2604ZM33.54 97.2344L34.1475 96.44L34.1309 96.4273L33.5234 97.2217L32.916 98.016L32.9326 98.0287L33.54 97.2344ZM33.4902 97.1963L34.0977 96.4019L34.0811 96.3892L33.4736 97.1836L32.8662 97.978L32.8828 97.9906L33.4902 97.1963ZM33.4736 97.1836L34.1662 96.4622C34.1813 96.4767 34.1903 96.487 34.1932 96.4903C34.1964 96.494 34.1961 96.4939 34.1925 96.4892L33.3938 97.091L32.5952 97.6927C32.6448 97.7586 32.707 97.8338 32.7811 97.905L33.4736 97.1836ZM33.26 96.8861L34.1235 96.3818C34.1103 96.3591 34.0959 96.3335 34.0805 96.3049L33.2002 96.7793L32.3199 97.2537C32.3454 97.3011 32.371 97.3467 32.3965 97.3904L33.26 96.8861ZM33.2002 96.7793L34.0805 96.305C34.0657 96.2775 34.0504 96.2478 34.0345 96.2158L33.1394 96.6617L32.2443 97.1076C32.2684 97.1561 32.2936 97.205 32.3198 97.2536L33.2002 96.7793ZM33.0268 96.422L33.9398 96.0142C33.924 95.9786 33.908 95.9423 33.892 95.9051L32.9736 96.3008L32.0552 96.6965C32.0742 96.7404 32.0937 96.785 32.1138 96.8299L33.0268 96.422ZM32.9736 96.3008H33.9736V95.3117H32.9736H31.9736V96.3008H32.9736ZM32.9736 93.3335H33.9736V91.3553H32.9736H31.9736V93.3335H32.9736ZM32.9736 89.3771H33.9736V87.3989H32.9736H31.9736V89.3771H32.9736ZM32.9736 85.4207H33.9736V83.4424H32.9736H31.9736V85.4207H32.9736ZM32.9736 81.4642H33.9736V79.486H32.9736H31.9736V81.4642H32.9736ZM32.9736 77.5078H33.9736V75.5296H32.9736H31.9736V77.5078H32.9736ZM32.9736 73.5514H33.9736V71.5732H32.9736H31.9736V73.5514H32.9736ZM32.9736 69.595H33.9736V67.6168H32.9736H31.9736V69.595H32.9736ZM32.9736 65.6386H33.9736V63.6604H32.9736H31.9736V65.6386H32.9736ZM32.9736 61.6822H33.9736V59.704H32.9736H31.9736V61.6822H32.9736ZM32.9736 57.7258H33.9736V55.7476H32.9736H31.9736V57.7258H32.9736ZM32.9736 53.7694H33.9736V52.7803H32.9736H31.9736V53.7694H32.9736ZM32.9736 52.7803L33.9676 52.89C33.995 52.642 34.0232 52.3967 34.052 52.1587L33.0592 52.0386L32.0664 51.9185C32.0367 52.1645 32.0077 52.4168 31.9797 52.6705L32.9736 52.7803ZM33.2649 50.5597L34.2514 50.7238C34.2981 50.4426 34.3417 50.2251 34.3798 50.0765L33.4111 49.8281L32.4425 49.5798C32.3835 49.8099 32.329 50.0921 32.2785 50.3956L33.2649 50.5597ZM33.4111 49.8281L34.3798 50.0765C34.3957 50.0143 34.4261 49.9186 34.4763 49.7854L33.5407 49.4324L32.6051 49.0794C32.5405 49.2506 32.4832 49.4209 32.4425 49.5797L33.4111 49.8281ZM33.8675 48.6658L34.7754 49.085C34.8282 48.9705 34.8852 48.8503 34.9459 48.7249L34.0459 48.2891L33.1459 47.8532C33.0804 47.9884 33.0182 48.1198 32.9596 48.2466L33.8675 48.6658ZM34.0459 48.2891L34.9459 48.725C35.0189 48.5742 35.0963 48.4182 35.1771 48.2587L34.2849 47.807L33.3927 47.3554C33.3074 47.5239 33.2247 47.6904 33.1459 47.8532L34.0459 48.2891ZM34.783 46.8531L35.6644 47.3253C35.748 47.1693 35.8324 47.0135 35.9166 46.8594L35.0391 46.3799L34.1615 45.9004C34.0749 46.0589 33.9879 46.2195 33.9015 46.3809L34.783 46.8531ZM35.0391 46.3799L35.8057 47.022L36.4337 46.2722L35.6671 45.6301L34.9005 44.988L34.2725 45.7378L35.0391 46.3799ZM36.9232 44.1304L37.6898 44.7725L38.9459 43.2729L38.1793 42.6308L37.4127 41.9887L36.1566 43.4883L36.9232 44.1304ZM39.4354 41.1312L40.202 41.7733L41.4581 40.2736L40.6915 39.6315L39.9249 38.9894L38.6688 40.489L39.4354 41.1312ZM41.9476 38.1319L42.7142 38.774L43.9703 37.2744L43.2037 36.6323L42.4371 35.9901L41.181 37.4898L41.9476 38.1319ZM44.4598 35.1326L45.2264 35.7747L46.4826 34.2751L45.7159 33.633L44.9493 32.9909L43.6932 34.4905L44.4598 35.1326ZM46.972 32.1334L47.7387 32.7755L48.9948 31.2758L48.2281 30.6337L47.4615 29.9916L46.2054 31.4912L46.972 32.1334ZM49.4843 29.1341L50.2509 29.7762L51.507 28.2766L50.7404 27.6345L49.9737 26.9923L48.7176 28.492L49.4843 29.1341ZM51.9965 26.1348L52.7631 26.7769L54.0192 25.2773L53.2526 24.6352L52.486 23.9931L51.2298 25.4927L51.9965 26.1348ZM54.5087 23.1356L55.2753 23.7777L55.9033 23.0279L55.1367 22.3857L54.3701 21.7436L53.7421 22.4934L54.5087 23.1356ZM55.1367 22.3857L54.7826 23.3209C55.0772 23.4325 55.3783 23.5314 55.685 23.6167L55.9531 22.6533L56.2212 21.6899C55.9731 21.6209 55.7295 21.5409 55.4909 21.4506L55.1367 22.3857ZM57.6417 22.9615L57.552 23.9575C57.8644 23.9856 58.1806 24 58.5 24V23V22C58.2407 22 57.9844 21.9883 57.7314 21.9655L57.6417 22.9615ZM58.5 23V24C58.8467 24 59.1898 23.9832 59.5284 23.9502L59.4315 22.9549L59.3347 21.9596C59.0603 21.9863 58.7819 22 58.5 22V23ZM61.2586 22.5933L61.5486 23.5503C62.2132 23.349 62.8498 23.0836 63.4512 22.7615L62.9791 21.8799L62.5069 20.9984C62.0204 21.259 61.5057 21.4735 60.9687 21.6362L61.2586 22.5933ZM64.5268 20.8439L65.1617 21.6165C65.6927 21.1802 66.1802 20.6927 66.6165 20.1617L65.8439 19.5268L65.0712 18.892C64.7176 19.3224 64.3224 19.7176 63.892 20.0712L64.5268 20.8439ZM66.8799 17.9791L67.7615 18.4512C68.0836 17.8498 68.349 17.2132 68.5503 16.5486L67.5933 16.2586L66.6362 15.9687C66.4735 16.5057 66.259 17.0204 65.9984 17.5069L66.8799 17.9791ZM67.9549 14.4315L68.9502 14.5284C68.9832 14.1898 69 13.8467 69 13.5H68H67C67 13.7819 66.9863 14.0603 66.9596 14.3347L67.9549 14.4315ZM68 13.5H69C69 13.1533 68.9832 12.8102 68.9502 12.4716L67.9549 12.5685L66.9596 12.6653C66.9863 12.9397 67 13.2181 67 13.5H68ZM67.5933 10.7414L68.5503 10.4514C68.349 9.7868 68.0836 9.15018 67.7615 8.54878L66.8799 9.02093L65.9984 9.49309C66.259 9.97964 66.4735 10.4943 66.6362 11.0313L67.5933 10.7414ZM65.8439 7.47317L66.6165 6.83834C66.1802 6.30726 65.6927 5.81981 65.1617 5.38347L64.5268 6.15612L63.892 6.92877C64.3224 7.28243 64.7176 7.67756 65.0712 8.108L65.8439 7.47317ZM62.9791 5.12006L63.4512 4.23854C62.8498 3.91642 62.2132 3.65104 61.5486 3.44969L61.2586 4.40673L60.9687 5.36377C61.5057 5.52647 62.0204 5.74097 62.5069 6.00157L62.9791 5.12006ZM59.4315 4.04509L59.5284 3.04979C59.1898 3.01684 58.8467 3 58.5 3V4V5C58.7819 5 59.0603 5.01369 59.3347 5.04039L59.4315 4.04509ZM58.5 4V3C58.165 3 57.8335 3.01572 57.506 3.0465L57.5996 4.04211L57.6932 5.03772C57.9585 5.01278 58.2276 5 58.5 5V4ZM55.8313 4.37997L55.5509 3.4201C54.9067 3.60831 54.2882 3.85654 53.7019 4.15823L54.1595 5.0474L54.6171 5.93658C55.0913 5.69255 55.5912 5.49193 56.1118 5.33985L55.8313 4.37997ZM52.6441 6.01918L52.0271 5.23221C51.5041 5.64228 51.021 6.10087 50.5846 6.60125L51.3383 7.25851L52.092 7.91577C52.4457 7.51017 52.8372 7.13845 53.2611 6.80615L52.6441 6.01918ZM50.2884 8.72092L49.4246 8.21717C49.0921 8.78735 48.8116 9.39191 48.5899 10.0243L49.5336 10.3552L50.4772 10.6861C50.6564 10.175 50.8832 9.68613 51.1523 9.22466L50.2884 8.72092ZM49.1027 12.1031L48.1134 11.9573C48.0654 12.2832 48.0324 12.6137 48.015 12.9482L49.0137 13L50.0123 13.0518C50.0264 12.7804 50.0532 12.5126 50.092 12.2489L49.1027 12.1031ZM49.0137 13V12H48.0022V13V14H49.0137V13ZM45.9791 13V12H43.9561V13V14H45.9791V13ZM41.9331 13V12H39.91V13V14H41.9331V13ZM37.887 13V12H35.864V13V14H37.887V13ZM33.8409 13V12H31.8179V13V14H33.8409V13ZM29.7949 13V12H27.7719V13V14H29.7949V13ZM25.7488 13V12H24.7373V13V14H25.7488V13ZM24.7373 13L25.6828 12.6743C25.5628 12.3262 25.4296 11.9476 25.2842 11.5467L24.3441 11.8876L23.404 12.2285C23.5454 12.6184 23.6751 12.9868 23.7918 13.3257L24.7373 13ZM23.501 9.68379L24.428 9.30891C24.2803 8.9435 24.1259 8.57226 23.9654 8.19945L23.0469 8.59473L22.1283 8.99001C22.2824 9.34808 22.4311 9.70566 22.5739 10.0587L23.501 9.68379ZM23.0469 8.59473L23.9654 8.19944C23.7866 7.7838 23.5991 7.36339 23.4038 6.9447L22.4975 7.3674L21.5912 7.79011C21.7771 8.1886 21.9564 8.59058 22.1283 8.99001L23.0469 8.59473ZM21.264 4.97836L22.1292 4.47686C21.8873 4.05957 21.6363 3.6562 21.3772 3.27584L20.5508 3.83887L19.7243 4.40189C19.9518 4.7358 20.1771 5.09725 20.3989 5.47986L21.264 4.97836ZM20.5508 3.83887L21.3772 3.27581C21.2593 3.10274 21.1381 2.93205 21.0136 2.76512L20.2119 3.36282L19.4102 3.96051C19.5161 4.10264 19.6209 4.25006 19.7244 4.40192L20.5508 3.83887ZM19.4633 2.46617L20.1883 1.77733C20.0335 1.61449 19.8732 1.45827 19.7072 1.31116L19.0439 2.05957L18.3807 2.80798C18.4994 2.91314 18.6187 3.029 18.7384 3.15501L19.4633 2.46617ZM19.0439 2.05957L19.7072 1.31115C19.5511 1.17283 19.3842 1.03746 19.2066 0.909904L18.6232 1.72204L18.0397 2.53417C18.1554 2.61726 18.2691 2.70911 18.3807 2.80799L19.0439 2.05957ZM17.6736 1.21696L18.0015 0.272251C17.7777 0.194583 17.5421 0.134676 17.2956 0.0984929L17.1504 1.08789L17.0052 2.07729C17.1186 2.09393 17.2319 2.12219 17.3457 2.16168L17.6736 1.21696ZM17.1504 1.08789L17.2956 0.0984924C17.0188 0.0578622 16.7238 0.0174901 16.4152 -0.0224335L16.2869 0.969302L16.1586 1.96104C16.4582 1.99979 16.7417 2.03862 17.0052 2.07729L17.1504 1.08789ZM14.5546 0.763802L14.664 -0.230198C14.095 -0.292813 13.5067 -0.353664 12.9182 -0.411851L12.8198 0.583297L12.7214 1.57844C13.3041 1.63606 13.8849 1.69615 14.4453 1.7578L14.5546 0.763802ZM11.0834 0.418638L11.1742 -0.577231C10.8779 -0.604245 10.5865 -0.630318 10.3026 -0.655324L10.2148 0.34082L10.1271 1.33696C10.4092 1.3618 10.6985 1.38769 10.9926 1.41451L11.0834 0.418638ZM10.2148 0.34082L10.3026 -0.655324C10.0514 -0.677443 9.80574 -0.698775 9.56734 -0.719224L9.48188 0.277117L9.39641 1.27346C9.63339 1.29379 9.87755 1.31499 10.1271 1.33696L10.2148 0.34082ZM8.01541 0.154538L8.09654 -0.842166C7.8292 -0.863927 7.58254 -0.88368 7.36102 -0.901188L7.28223 0.0957031L7.20344 1.09259C7.42343 1.10998 7.66853 1.12961 7.93428 1.15124L8.01541 0.154538ZM7.28223 0.0957031L7.36101 -0.901188C7.28396 -0.907278 7.20995 -0.913092 7.13916 -0.918624L7.06125 0.0783358L6.98333 1.0753C7.05356 1.08078 7.127 1.08655 7.20344 1.09259L7.28223 0.0957031ZM6.61939 0.0441765L6.69568 -0.95291C6.61318 -0.959221 6.5391 -0.964855 6.47414 -0.969787L6.39844 0.0273438L6.32273 1.02447C6.3875 1.02939 6.46116 1.03499 6.54311 1.04126L6.61939 0.0441765ZM6.39844 0.0273438L6.47414 -0.969787C6.45351 -0.971353 6.43374 -0.972867 6.41484 -0.974321L6.33812 0.0227315L6.26139 1.01978C6.28083 1.02128 6.3013 1.02285 6.32274 1.02447L6.39844 0.0273438ZM6.21752 0.0133919L6.29464 -0.98363C6.27174 -0.985402 6.25048 -0.987033 6.23161 -0.988441L6.15723 0.00878906L6.08284 1.00602C6.09888 1.00721 6.11791 1.00867 6.1404 1.01041L6.21752 0.0133919ZM6.15723 0.00878906L6.23161 -0.988441C6.22726 -0.988765 6.22303 -0.989088 6.2189 -0.989408L6.14159 0.00759928L6.06429 1.00461C6.07007 1.00506 6.07627 1.00553 6.08285 1.00602L6.15723 0.00878906ZM6.11035 0.00512083L6.18987 -0.991713C6.18381 -0.992196 6.17611 -0.992806 6.1685 -0.993369L6.09473 0.00390625L6.02095 1.00118C6.02235 1.00128 6.02508 1.0015 6.03083 1.00195L6.11035 0.00512083ZM6.09473 0.00390625L6.1685 -0.993369C6.16365 -0.993727 6.15925 -0.994028 6.15538 -0.994278L6.09082 0.003636L6.02626 1.00155C6.02487 1.00146 6.02307 1.00134 6.02096 1.00118L6.09473 0.00390625ZM6.08301 0.00317554L6.14009 -0.995194C6.14013 -0.995192 6.14042 -0.995175 6.14088 -0.995148C6.14134 -0.995121 6.14208 -0.995076 6.14304 -0.995017C6.1448 -0.994907 6.1482 -0.99469 6.15259 -0.994367L6.0791 0.00292969L6.00561 1.00023C6.01563 1.00096 6.02405 1.00144 6.02592 1.00154L6.08301 0.00317554ZM6.0791 0.00292969V-0.99707H6.07764V0.00292969V1.00293H6.0791V0.00292969ZM6.07471 0.00292969V-0.99707H6.07324V0.00292969V1.00293H6.07471V0.00292969ZM30.6738 97.4531L31.488 98.0338C31.4627 98.0692 31.4402 98.0958 31.4267 98.1112L30.6752 97.4514L29.9238 96.7916C29.9093 96.8081 29.8858 96.8359 29.8597 96.8725L30.6738 97.4531ZM30.6783 97.448L31.4304 98.1071C31.4451 98.0903 31.4689 98.0621 31.4952 98.0251L30.6797 97.4463L29.8642 96.8675C29.8896 96.8317 29.9124 96.8047 29.9261 96.789L30.6783 97.448ZM30.6797 97.4463V98.4463H31.1172V97.4463V96.4463H30.6797V97.4463ZM31.9922 97.4463V98.4463H32.4297V97.4463V96.4463H31.9922V97.4463ZM32.4297 97.4463L31.5748 97.9651C31.6 98.0066 31.6233 98.0382 31.6377 98.0569L32.4304 97.4473L33.2231 96.8377C33.237 96.8558 33.2598 96.8867 33.2846 96.9275L32.4297 97.4463ZM32.4319 97.4492L31.6396 98.0592C31.6258 98.0414 31.6031 98.0107 31.5784 97.9701L32.4326 97.4502L33.2868 96.9303C33.2617 96.889 33.2385 96.8576 33.2243 96.8391L32.4319 97.4492ZM32.4326 97.4502L32.4411 96.4502C32.3843 96.4498 32.3271 96.4493 32.2697 96.4488L32.2617 97.4488L32.2537 98.4487C32.3105 98.4492 32.3672 98.4497 32.4242 98.4502L32.4326 97.4502ZM31.9199 97.4466L31.9237 96.4466C31.8657 96.4464 31.8075 96.4463 31.749 96.4463V97.4463V98.4463C31.8046 98.4463 31.8603 98.4464 31.9162 98.4466L31.9199 97.4466ZM31.749 97.4463L31.749 96.4463C31.6582 96.4463 31.5676 96.4464 31.4772 96.4467L31.4802 97.4467L31.4832 98.4467C31.5715 98.4464 31.6601 98.4463 31.749 98.4463L31.749 97.4463ZM30.9426 97.45L30.933 96.4501C30.8419 96.451 30.7511 96.452 30.6604 96.4532L30.6738 97.4531L30.6872 98.453C30.7753 98.4519 30.8636 98.4508 30.9523 98.45L30.9426 97.45Z" fill="#A3CCE4" mask="url(#path-1-inside-1_29_49)"/>
</svg>
