<svg width="94" height="156" viewBox="0 0 94 156" fill="none" xmlns="http://www.w3.org/2000/svg">
<g clip-path="url(#clip0_24_5)">
<path d="M69.7994 8.37849C69.1912 7.32975 68.5829 6.28056 68.0009 5.22788C66.8084 3.07403 64.5808 1.55107 60.9916 0.434817C60.4836 0.23944 59.929 0.134018 59.3656 0.125648C58.8023 0.117279 58.2436 0.206016 57.7269 0.386169C57.2792 0.589508 56.8919 0.868489 56.5918 1.20357C56.2916 1.53867 56.0857 1.92183 55.9883 2.32695C55.571 3.67525 55.3606 5.05936 55.3609 6.44856C55.2979 9.79927 55.2674 13.1506 55.238 16.5013C55.1865 22.1219 55.1353 27.9348 54.9179 33.6432C54.6097 41.7709 54.2093 50.0294 53.8227 58.0188C53.4214 66.3101 53.0047 74.8849 52.6908 83.32C52.1619 97.5252 51.7698 111.97 51.3905 125.94L51.0776 137.388C50.982 140.873 50.985 144.5 51.0888 148.169C51.01 149.517 51.3559 150.86 52.0938 152.072C52.5556 152.687 54.2268 154.723 56.3619 155.087C56.6335 155.134 56.9102 155.157 57.1881 155.158C59.4147 155.158 60.9482 153.544 61.4738 151.876C61.9094 150.416 62.1267 148.92 62.1211 147.419C62.1756 141.245 62.2125 135.07 62.2305 128.896C62.2463 125.102 62.2641 121.308 62.2848 117.514C62.2897 116.73 62.3541 115.955 62.4276 115.056C62.4481 114.807 62.4687 114.551 62.4891 114.285C64.6536 114.285 66.7957 114.294 68.9149 114.311C74.483 114.34 79.7403 114.369 85.099 114.24C91.2907 114.09 93.5582 112.23 93.7633 107.129C93.7756 106.312 93.7249 105.495 93.6096 104.684L93.5377 104.037C93.4167 102.873 93.2851 101.711 93.1527 100.548C92.9075 98.4068 92.6566 96.1914 92.4923 94.0139L92.3157 91.6437C91.4983 80.6202 90.6458 69.221 87.4931 58.2403C84.0372 46.2158 79.981 33.5103 74.7308 18.2571C73.4287 14.8611 71.7792 11.5569 69.7994 8.37849ZM83.5312 105.576H62.9122C62.7185 95.0148 63.1156 83.9991 63.4997 73.3406C63.6689 68.6436 63.844 63.7876 63.9691 59.0014C64.2535 48.0084 64.5292 37.0156 64.7968 26.0222L65.0499 15.7889C74.7498 42.168 84.0715 73.0771 83.5296 105.576H83.5312Z" fill="#A3CCE4"/>
<path d="M8.62828 26.1332C8.15746 22.7903 7.94736 19.3619 7.74383 16.0433C7.65064 14.5062 7.55664 12.969 7.43731 11.4333C7.38772 10.7857 7.3402 10.1381 7.29443 9.49053C7.14321 7.37077 6.98606 5.17998 6.69016 3.0281C6.57839 2.53606 6.30506 2.07649 5.89831 1.69734C5.49158 1.31818 4.96609 1.03312 4.37609 0.870968C3.34944 0.708413 2.37035 1.57781 1.57748 2.28047C1.11501 2.76467 0.861017 3.35596 0.855074 3.96585C0.773335 6.13543 0.682445 8.3048 0.589263 10.4744C0.333419 16.3735 0.0682138 22.4693 0.127884 28.4714C0.171542 30.6063 0.802274 32.7071 1.975 34.6241C3.14772 36.541 4.83337 38.2268 6.91207 39.5612C9.00861 40.8701 11.2618 42.0092 13.638 42.9626C14.6189 43.392 15.6311 43.8329 16.6545 44.3107C16.5556 46.5891 16.4354 48.8858 16.3145 51.1931C16.0349 56.5318 15.7426 62.0514 15.7214 67.5245C15.6331 87.1359 15.6476 107.076 15.6623 126.358C15.6677 133.64 15.6721 140.921 15.6743 148.201C15.6743 148.448 15.6736 148.696 15.6679 148.943C15.6589 149.706 15.6493 150.494 15.727 151.279C16 154.026 17.9302 155.843 20.5499 155.843C20.6014 155.843 20.6517 155.843 20.7032 155.843C23.4325 155.77 25.2218 153.881 25.2635 151.029C25.2856 149.462 25.2288 147.875 25.1749 146.341C25.1275 145.011 25.0782 143.637 25.0815 142.288C25.1267 125.014 25.1839 107.742 25.2531 90.4683L25.3018 76.7468C25.3099 74.513 25.3163 72.2792 25.3201 70.0454C25.3324 64.0897 25.3463 57.9331 25.4207 51.8786C25.4452 49.9162 25.6086 47.9125 25.7664 45.9743C25.8277 45.2179 25.8888 44.4616 25.9427 43.7045C34.2981 41.2898 39.2814 36.4347 42.0655 28.0311C44.7392 19.9584 44.8451 11.9485 44.5999 5.17756L44.5927 4.93304C44.5763 4.21793 44.5561 3.32615 43.903 2.78998C42.7366 1.83235 41.3695 0.80529 39.8687 0.739744C38.4456 0.674198 36.8229 2.05051 36.2025 3.06779C35.7968 3.87211 35.6117 4.73711 35.6596 5.60386C35.6482 5.93749 35.6383 6.271 35.5958 6.59221C35.3808 8.26429 35.1939 9.94031 35.0075 11.617C34.5686 15.5498 34.1154 19.6136 33.2873 23.5503C32.7503 26.0975 31.3912 28.6216 30.0761 31.0626C29.8169 31.5443 29.5583 32.0256 29.3057 32.5047C29.0536 33.0265 28.6702 33.5016 28.1794 33.8995C27.6886 34.2974 27.1008 34.61 26.4528 34.8181C26.4495 34.4444 26.4463 34.0778 26.4424 33.7177C26.4277 32.3877 26.4132 31.1314 26.4664 29.8873C26.517 28.7036 26.576 27.5198 26.6348 26.336C26.9741 19.5527 27.3241 12.538 26.0098 5.62883C25.8896 4.54197 25.4884 3.48731 24.8324 2.53138C24.4409 2.15963 23.9441 1.86884 23.3828 1.68389C22.8215 1.49895 22.2127 1.42523 21.6084 1.46882C20.3782 1.5678 19.5572 2.94484 19.406 3.22013C19.1996 3.67596 19.1318 4.16463 19.2088 4.64564C19.2203 4.80885 19.2321 4.97353 19.2256 5.13019C19.1259 7.30981 19.028 9.48961 18.9326 11.6701C18.6727 17.5542 18.4039 23.6387 18.077 29.6191C17.9953 31.0611 17.7604 32.503 17.5087 34.0236C17.4335 34.4733 17.3594 34.9263 17.2875 35.3864C12.1085 33.7353 9.27075 30.7004 8.62828 26.1332Z" fill="#A3CCE4"/>
<path d="M70.2434 71.0168C70.4973 65.5579 72.3057 60.1844 73.0787 54.7732C73.2743 53.4037 73.3029 52.0162 73.5118 50.6582C73.7609 49.0391 73.7875 47.4899 73.7875 45.854C73.7875 43.3401 72.5599 41.0782 72.3896 38.6084C71.8311 30.5113 67.4082 23.1127 67.4082 14.9223C67.4082 9.92219 66.6994 24.9057 66.6994 29.9058C66.6994 32.522 66.7928 35.1661 66.6994 37.7814C66.5917 40.7965 65.9906 43.6714 65.9906 46.7203C65.9906 49.8364 65.2818 52.8716 65.2818 55.9349C65.2818 69.1162 63.8641 82.2272 63.8641 95.4511C63.8641 97.7022 63.8641 99.9534 63.8641 102.204C63.8641 103.385 67.0632 103.675 68.117 103.977C71.0688 104.82 73.4228 105.394 76.6227 105.394C77.5047 105.394 83.2044 105.88 82.8248 104.666C82.1861 102.622 82.604 100.419 81.8601 98.306C80.9082 95.6028 80.1731 92.6215 79.4777 89.8397C78.1478 84.5203 76.6923 78.9833 76.6227 73.4189C76.5913 70.9062 76.6227 68.3909 76.6227 65.8779C76.6227 64.0729 75.9704 60.903 76.6424 59.223C76.8927 58.5972 77.1647 60.4658 77.4103 61.0934C77.837 62.1839 78.4979 63.0316 79.1036 64.0075C80.2425 65.8423 80.3909 67.9007 80.8756 69.9536C81.9639 74.5626 82.2932 79.2351 82.2932 83.9723C82.2932 86.3541 82.0637 89.5299 79.6549 90.8438C78.7329 91.3468 78.0219 91.735 77.0559 92.0055C75.7851 92.3613 75.7171 87.0951 75.5595 86.1775C74.6535 80.9014 74.1419 75.2789 74.1419 69.9339C74.1419 68.2175 73.9908 66.4137 74.2994 64.7163C74.6073 63.0229 75.3442 61.4654 75.6383 59.7546C75.7301 59.2202 76.1885 55.9774 76.8196 55.7971C78.2921 55.3763 75.8799 58.5605 75.8352 58.6126C73.514 61.3206 71.8793 63.851 70.5978 67.1971C69.6978 69.5472 70.2434 72.6547 70.2434 75.1318C70.2434 77.7768 70.2434 80.4217 70.2434 83.0666C70.2434 86.2654 70.6945 89.974 69.8103 93.0687C68.356 98.1588 72.0952 102.427 77.2528 100.708C78.0737 100.434 78.8853 99.8682 79.1036 98.9952C79.3533 97.9964 79.5051 97.0386 79.4383 96.0024C79.4198 95.7159 78.9085 92.9626 78.2373 93.8169C77.3534 94.9418 76.9706 101.589 78.6704 101.85C79.6157 101.996 80.1668 101.3 80.1668 100.432" stroke="#A3CCE4" stroke-width="9" stroke-linecap="round"/>
</g>
<defs>
<clipPath id="clip0_24_5">
<rect width="94" height="156" fill="white"/>
</clipPath>
</defs>
</svg>
