<svg width="176" height="141" viewBox="0 0 176 141" fill="none" xmlns="http://www.w3.org/2000/svg">
<path d="M13.527 68.1719C11.6132 67.5694 9.96976 67.1834 8.43262 66.5435C4.3482 64.8436 1.83115 62.0435 0.884706 57.4419C-0.167302 52.6999 0.480353 47.7389 2.71455 43.4258C8.70756 31.4766 15.1462 19.7976 23.8571 9.54628C27.765 4.94666 32.3896 2.06796 38.7804 1.71157C62.4316 0.29808 86.1404 0.125912 109.81 1.19528C115.744 1.48603 121.654 2.23152 127.58 2.6903C129.923 2.87145 132.286 2.93377 134.635 2.88323C137.97 2.81169 141.133 3.34726 143.96 5.18042C145.933 6.46027 148.038 7.63128 149.736 9.2229C160.166 19.0023 168.517 30.2911 174.126 43.515C175.822 47.5134 175.734 51.5795 174.678 55.7085C172.919 62.5935 168.666 66.8008 161.594 68.0393C161.264 68.1043 160.937 68.1916 160.619 68.3018C160.407 68.3675 160.208 68.4777 159.684 68.7075C159.434 73.5545 159.199 78.5657 158.913 83.5735C158.273 94.7759 157.78 105.99 156.863 117.169C156.51 121.482 155.347 125.76 154.226 129.968C153.237 133.686 150.565 136.043 146.932 137.298C141.848 139.107 136.491 140.031 131.095 140.029C106.733 139.854 82.3711 139.679 58.0098 139.504C49.3658 139.444 40.7185 139.533 32.0784 139.316C28.7162 139.238 25.3728 138.79 22.1087 137.98C15.6904 136.361 11.5954 132.188 11.3257 125.435C10.9319 115.581 10.7134 105.696 11.0573 95.8464C11.3507 87.4551 12.5445 79.096 13.3361 70.7218C13.4056 69.9532 13.4542 69.1767 13.527 68.1719ZM97.0993 132.277C97.2437 131.902 97.3487 131.514 97.4137 131.118C97.6349 120.354 97.8896 109.59 98.0215 98.8222C98.0648 95.3147 98.303 91.8965 99.6223 88.5958C101.297 84.4097 104.298 82.121 108.821 81.9386C113.532 81.7482 118.245 81.5251 122.958 81.4791C125.758 81.443 128.558 81.5966 131.337 81.9386C132.871 82.0561 134.322 82.6822 135.458 83.7179C136.595 84.7543 137.354 86.1404 137.613 87.6566C138.164 90.1717 138.489 92.7307 138.584 95.3042C138.947 107.161 139.186 119.022 139.474 131.064C140.204 130.905 141.144 130.639 142.104 130.502C144.94 130.096 146.424 128.447 146.814 125.655C147.232 122.66 147.977 119.689 148.137 116.684C148.911 102.228 149.547 87.7642 150.199 73.2999C150.294 71.1871 150.212 69.0665 150.212 67.5503L140.653 59.3908C137.99 63.5513 134.039 66.3538 128.5 66.5507C123.04 66.7476 118.543 64.6471 114.836 60.8358C106.401 68.7416 95.9212 68.4725 87.5936 60.1731C84.2246 65.433 79.1334 67.3928 73.1837 67.1959C67.4591 67.0056 62.2063 65.3082 58.0261 60.9528C54.388 65.3712 49.9984 67.763 44.4983 67.91C39.2147 68.0892 34.0516 66.3066 30.0037 62.9061C28.911 64.4814 27.4702 65.7841 25.7929 66.7128C24.1157 67.6416 22.2471 68.1712 20.332 68.2618C20.202 68.6661 20.1045 69.0809 20.0406 69.501C19.6527 79.8186 19.1039 90.1349 18.9556 100.456C18.846 108.08 19.1408 115.716 19.4808 123.336C19.7151 128.548 21.6755 130.622 26.8974 131.102C32.5878 131.627 38.3131 131.885 44.0278 132.001C53.7915 132.198 63.559 132.221 73.3255 132.269C81.1825 132.308 89.0323 132.277 97.0993 132.277ZM128.832 89.9026C122.728 90.1218 117.255 90.2563 111.793 90.5353C107.907 90.7322 107.468 91.1746 106.655 94.873C106.488 95.7519 106.394 96.6438 106.377 97.5391C105.892 107.941 105.754 118.369 103.913 128.667C103.8 129.824 103.791 130.987 103.885 132.146H128.832V89.9026ZM68.4764 10.0603C67.3751 16.1813 66.3105 21.894 65.3259 27.6199C64.092 34.7845 63.0465 41.9837 61.6734 49.1208C60.9121 53.0772 62.1395 56.8245 65.8084 58.3262C68.292 59.313 70.9246 59.8718 73.5946 59.9789C77.2471 60.1417 79.923 58.2958 81.5815 54.8894C82.9979 51.9811 83.8787 49.0933 83.1239 45.8352C82.8568 44.631 82.7341 43.3996 82.757 42.1664C82.8706 32.9849 83.0366 23.8042 83.1777 14.6233C83.2007 13.1085 83.181 11.5929 83.181 10.0603H68.4764ZM129.045 11.1701C131.042 15.9548 132.885 20.2735 134.651 24.625C137.467 31.5593 140.23 38.5153 143.024 45.4574C143.189 45.867 143.352 46.4352 143.68 46.5954C145.943 47.7 146.466 49.9783 147.46 51.9525C149.84 56.6782 153.543 59.3348 158.989 59.126C164.363 58.9199 167.712 53.7296 165.887 48.6423C163.338 41.8097 159.808 35.3851 155.407 29.57C150.752 23.2331 145.859 17.1416 139.348 12.4953C136.175 10.2283 132.997 10.3294 129.045 11.1701ZM61.3052 10.3824H49.4398C49.0427 11.3459 48.7271 12.0496 48.4593 12.7703C43.4239 26.3138 38.4174 39.8692 33.3282 53.3924C33.0551 53.9446 32.9923 54.5775 33.1515 55.1727C33.3106 55.7678 33.6809 56.2844 34.1932 56.6266C38.0249 59.8046 42.4106 60.8012 47.0844 59.1866C48.736 58.5485 50.1051 57.3407 50.9443 55.7815C52.2445 53.0568 53.2152 50.1865 53.836 47.2319C56.3596 35.746 58.7133 24.2181 61.1096 12.702C61.2221 11.9344 61.2875 11.1609 61.3052 10.3853V10.3824ZM90.4053 10.4968C90.3056 10.7197 90.2366 10.955 90.1999 11.1964C90.4493 23.5277 90.532 35.8661 91.0531 48.1863C91.275 53.4586 94.8264 58.563 101.932 57.8089C107.348 57.234 111.209 51.2059 109.449 46.0445C108.19 42.3519 107.242 38.546 106.289 34.7557C104.273 26.7425 102.345 18.7063 100.336 10.4955L90.4053 10.4968ZM42.3778 10.6772C40.5577 10.8538 39.1249 11.0651 37.6862 11.1163C34.6809 11.222 32.5608 12.5196 30.643 14.9422C22.3128 25.4652 16.0126 37.2155 9.69206 48.9541C8.76413 50.8692 8.10327 52.9024 7.72771 54.997C7.21183 57.348 7.76906 58.3634 9.94219 59.2632C13.0514 60.5978 16.4739 61.0283 19.8167 60.5051C22.0004 60.1559 23.0742 58.8432 23.7732 56.8952C25.8807 51.0092 27.897 45.0812 30.2558 39.2962C34.098 29.8706 38.1831 20.5453 42.3778 10.6798V10.6772ZM107.796 10.5394C107.752 10.948 107.755 11.3603 107.806 11.7682C113.155 24.8739 116.215 38.6594 119.822 52.2797C120.028 53.1544 120.439 53.9678 121.022 54.6528C121.604 55.3379 122.339 55.8756 123.169 56.2213C126.648 57.7565 130.423 57.8166 132.832 53.7552C133.859 52.0224 135.532 50.6574 134.132 48.0616C128.581 37.7722 124.859 26.757 121.811 15.5001C121.436 14.1159 120.922 12.7688 120.446 11.3255L107.796 10.5394Z" fill="#A3CCE4"/>
<path d="M58.4045 75.2596C65.828 75.6914 73.1153 75.9933 80.3796 76.5762C86.4836 77.0664 89.212 79.634 89.4069 85.74C89.6084 92.3473 89.4266 98.9606 88.8628 105.547C88.3968 111.052 85.7583 113.863 79.592 113.854C67.9289 113.836 56.2649 114.271 44.5998 114.396C41.9084 114.389 39.2226 114.153 36.5714 113.691C30.7247 112.746 27.6786 109.365 27.6905 103.296C27.7023 97.2488 28.0639 91.1882 28.5713 85.1591C28.7253 82.9564 29.6645 80.8824 31.2183 79.3138C32.772 77.7451 34.8371 76.7862 37.0381 76.611C44.1856 75.9717 51.3627 75.6868 58.4045 75.2596ZM80.5792 105.986C82.1222 99.5375 82.4714 92.8612 81.6109 86.2867C81.5354 85.6579 80.5929 84.8979 79.8893 84.6353C78.8202 84.2908 77.7031 84.1181 76.5807 84.126C70.1841 83.9206 63.7852 83.6456 57.3865 83.6357C52.0006 83.6279 46.6088 83.8569 41.2288 84.1503C35.6355 84.4555 34.3707 85.8798 34.4935 91.4225C34.563 94.5638 34.7435 97.7043 34.9312 100.842C35.2003 105.344 35.6237 106.071 40.0152 106.19C51.1172 106.491 62.2263 106.54 73.3332 106.596C75.6671 106.608 78.0037 106.214 80.5792 105.986Z" fill="#A3CCE4"/>
</svg>
