<svg width="48" height="210" viewBox="0 0 48 210" fill="none" xmlns="http://www.w3.org/2000/svg">
<path d="M47.9994 114.743C47.9994 122.944 47.9264 131.146 47.835 139.347C47.7985 143.878 47.7437 148.076 47.7072 151.962C42.1174 152.782 34.3818 153.524 24.5426 153.524C13.887 153.524 5.85928 152.724 0.295018 151.845C0.253016 147.998 0.209183 143.839 0.163529 139.347C0.0777006 131.146 -0.00264135 122.944 0.00101094 114.743C0.00101094 109.099 -0.0227298 103.378 0.159885 97.6758C5.72415 98.2226 13.7884 98.7498 24.5426 98.7498C34.6211 98.7498 42.3365 98.3007 47.8533 97.7735C48.0177 103.436 47.9994 109.138 47.9994 114.743V114.743Z" fill="#A3CCE4"/>
<path d="M47.3602 89.0448C47.5976 91.9348 47.7437 94.8639 47.8351 97.793C42.3274 98.3008 34.6119 98.7499 24.5334 98.7499C13.7774 98.7499 5.71319 98.2226 0.150757 97.6759C0.24389 94.7858 0.389976 91.8958 0.623722 89.0448C0.97982 84.6706 0.846515 80.9214 2.7384 76.8792C3.64234 74.946 12.6251 59.6561 13.5236 58.2111C14.4221 56.7856 14.234 39.7186 14.234 39.7186C14.2157 39.621 14.234 38.7813 14.2906 37.4339C16.9349 37.1801 20.1069 36.9848 23.5236 36.9848C27.1028 36.9848 30.4136 37.1996 33.1309 37.473C33.1802 38.8008 33.204 39.621 33.1857 39.7186C33.1857 39.7186 32.8004 56.1412 33.6989 57.5667C34.5973 59.0117 43.7792 74.946 44.6831 76.8792C46.575 80.9214 46.995 84.6706 47.3602 89.0448V89.0448Z" fill="#A3CCE4"/>
<path d="M47.7072 151.962C47.1411 203.924 46.9402 200.39 46.9402 200.39C46.9402 200.39 45.4446 209.997 23.7226 209.997C2.00063 209.997 1.06383 200.39 1.06383 200.39C1.06383 200.39 0.870254 203.924 0.296844 151.845C5.86293 152.724 13.8907 153.544 24.5444 153.544C34.3818 153.544 42.1192 152.802 47.7072 151.962V151.962Z" fill="#A3CCE4"/>
<path d="M33.193 7.08843V8.29911C33.193 8.29911 28.1492 7.69376 23.7171 7.6547C19.3892 7.61565 14.2431 8.29911 14.2431 8.29911V7.08843C14.2431 7.08843 19.727 6.40497 23.719 6.40497C28.1529 6.40497 33.193 7.08843 33.193 7.08843Z" fill="#A3CCE4"/>
<path d="M33.193 8.27958V11.0525C33.193 11.0525 33.1565 11.6773 32.5192 11.8921C32.0571 12.0288 32.678 26.3033 33.0122 34.3486C33.0122 34.3486 26.8636 33.8604 23.7171 33.8604C20.5707 33.8604 14.4239 34.3486 14.4239 34.3486C14.7562 26.3033 15.379 12.0288 14.917 11.8921C14.2815 11.6773 14.2431 11.0525 14.2431 11.0525V8.27958C14.2431 8.27958 19.3892 7.59616 23.7171 7.63522C28.1492 7.67427 33.193 8.27958 33.193 8.27958Z" fill="#A3CCE4"/>
<path d="M33.193 5.64339V7.08844C33.193 7.08844 28.1529 6.40498 23.719 6.40498C19.727 6.40498 14.2431 7.08844 14.2431 7.08844V5.64339C14.318 5.37001 14.8786 4.80375 14.8786 4.80375V1.83555C15.0283 0.605329 16.5641 0 16.5641 0H30.8702C30.8702 0 32.4059 0.605329 32.5557 1.83555V4.80375C32.5557 4.80375 33.1181 5.37001 33.193 5.64339V5.64339Z" fill="#A3CCE4"/>
<path d="M33.0816 36.028C33.1035 36.5552 33.1218 37.0434 33.1382 37.473C30.4227 37.1996 27.1101 36.9848 23.5309 36.9848C20.116 36.9848 16.944 37.1801 14.2997 37.4339C14.318 37.0043 14.3344 36.5357 14.3545 36.028C14.3545 36.028 21.5477 35.5398 23.719 35.5398C25.8903 35.5398 33.0816 36.028 33.0816 36.028V36.028Z" fill="#A3CCE4"/>
<path d="M33.0122 34.3486C33.0378 34.9539 33.0615 35.5007 33.0816 36.028C33.0816 36.028 25.8903 35.5593 23.719 35.5593C21.5459 35.5593 14.3527 36.028 14.3527 36.028C14.3746 35.5007 14.3965 34.9539 14.4239 34.3486C14.4239 34.3486 20.5707 33.8604 23.7172 33.8604C26.8636 33.8604 33.0122 34.3486 33.0122 34.3486Z" fill="#A3CCE4"/>
</svg>
