<svg width="24" height="23" viewBox="0 0 24 23" fill="none" xmlns="http://www.w3.org/2000/svg">
<path fill-rule="evenodd" clip-rule="evenodd" d="M7.91115 7.57712C8.99558 6.53052 10.4664 5.94255 12 5.94255C13.5336 5.94255 15.0044 6.53052 16.0888 7.57712C17.1733 8.62372 17.7825 10.0432 17.7825 11.5233C17.7825 13.0034 17.1733 14.4229 16.0888 15.4695C15.0044 16.5161 13.5336 17.1041 12 17.1041C10.4664 17.1041 8.99558 16.5161 7.91115 15.4695C6.82673 14.4229 6.2175 13.0034 6.2175 11.5233C6.2175 10.0432 6.82673 8.62372 7.91115 7.57712ZM10.5635 14.8704C11.0189 15.0524 11.507 15.1461 12 15.1461C12.9956 15.1461 13.9503 14.7645 14.6543 14.085C15.3583 13.4056 15.7537 12.4842 15.7537 11.5233C15.7537 10.5625 15.3583 9.64103 14.6543 8.96162C13.9503 8.28221 12.9956 7.90053 12 7.90053C11.507 7.90053 11.0189 7.99423 10.5635 8.1763C10.1081 8.35836 9.69427 8.62521 9.3457 8.96162C8.99713 9.29803 8.72063 9.69741 8.53199 10.1369C8.34334 10.5765 8.24625 11.0476 8.24625 11.5233C8.24625 11.9991 8.34334 12.4702 8.53199 12.9097C8.72063 13.3493 8.99713 13.7486 9.3457 14.085C9.69427 14.4215 10.1081 14.6883 10.5635 14.8704Z" fill="#4E769C"/>
<path d="M19.0644 6.77402C19.3207 6.52663 19.4647 6.19108 19.4647 5.84121C19.4647 5.49134 19.3207 5.1558 19.0644 4.9084C18.8081 4.661 18.4604 4.52202 18.0979 4.52202C17.7354 4.52202 17.3877 4.661 17.1313 4.9084C16.875 5.1558 16.731 5.49134 16.731 5.84121C16.731 6.19108 16.875 6.52663 17.1313 6.77402C17.3877 7.02142 17.7354 7.1604 18.0979 7.1604C18.4604 7.1604 18.8081 7.02142 19.0644 6.77402Z" fill="#4E769C"/>
<path fill-rule="evenodd" clip-rule="evenodd" d="M7.362 0.730917C8.562 0.678077 8.9445 0.665771 12 0.665771C15.0563 0.665771 15.438 0.6788 16.6373 0.730917C17.835 0.783757 18.654 0.968336 19.3695 1.23543C20.1199 1.50822 20.7997 1.93554 21.3615 2.48767C21.9338 3.03006 22.3766 3.68639 22.659 4.4109C22.9372 5.10145 23.1278 5.89115 23.1825 7.04712C23.2373 8.20526 23.25 8.57442 23.25 11.5233C23.25 14.4722 23.2373 14.8414 23.1825 15.9995C23.1278 17.1555 22.9372 17.9452 22.6597 18.6358C22.3771 19.36 21.9343 20.016 21.3623 20.5583C20.7998 21.1113 20.1195 21.5383 19.3695 21.8105C18.654 22.079 17.8358 22.2629 16.638 22.3157C15.438 22.3686 15.0555 22.3809 12 22.3809C8.9445 22.3809 8.562 22.3686 7.362 22.3157C6.16425 22.2629 5.346 22.079 4.6305 21.8112C3.88013 21.5384 3.20037 21.1111 2.6385 20.559C2.0655 20.0161 1.623 19.3596 1.341 18.6358C1.06275 17.9452 0.87225 17.1555 0.8175 15.9995C0.76275 14.8414 0.75 14.473 0.75 11.5233C0.75 8.57369 0.7635 8.20526 0.8175 7.04784C0.87225 5.89188 1.0635 5.10145 1.34025 4.4109C1.62289 3.6867 2.06567 3.03064 2.63775 2.48839C3.20025 1.93538 3.8805 1.50832 4.6305 1.23616C5.346 0.967612 6.16425 0.783757 7.362 0.730917ZM16.5465 2.68528C15.36 2.63316 15.0038 2.6223 12 2.6223C8.99625 2.6223 8.64 2.63316 7.4535 2.68528C6.357 2.73377 5.7615 2.91039 5.36475 3.0595C4.87606 3.2332 4.43396 3.51048 4.071 3.87092C3.678 4.25094 3.4335 4.61286 3.23025 5.11954C3.075 5.50245 2.89275 6.07718 2.8425 7.13543C2.7885 8.28054 2.77725 8.62436 2.77725 11.5233C2.77725 14.4223 2.7885 14.7661 2.8425 15.9112C2.89275 16.9695 3.07575 17.5442 3.23025 17.9271C3.41035 18.3987 3.69763 18.8254 4.071 19.1757C4.434 19.5361 4.87609 19.8134 5.36475 19.9872C5.7615 20.137 6.357 20.3129 7.4535 20.3614C8.64 20.4135 8.9955 20.4244 12 20.4244C15.0045 20.4244 15.36 20.4135 16.5465 20.3614C17.643 20.3129 18.2385 20.1363 18.6353 19.9872C19.124 19.8135 19.5661 19.5362 19.929 19.1757C20.3024 18.8254 20.5897 18.3987 20.7698 17.9271C20.925 17.5442 21.1073 16.9695 21.1575 15.9112C21.2115 14.7661 21.2228 14.4223 21.2228 11.5233C21.2228 8.62436 21.2115 8.28054 21.1575 7.13543C21.1073 6.07718 20.9243 5.50245 20.7698 5.11954C20.5665 4.61286 20.3228 4.25094 19.929 3.87092C19.5353 3.49163 19.1603 3.25566 18.6353 3.0595C18.2385 2.90967 17.643 2.73377 16.5465 2.68528Z" fill="#4E769C"/>
</svg>
