<svg width="19" height="22" viewBox="0 0 19 22" fill="none" xmlns="http://www.w3.org/2000/svg">
<path d="M8.66592 12.2468C8.40969 12.2468 8.15937 12.3055 7.89925 12.2795C7.56064 12.2457 7.26242 12.0139 6.93467 11.9702C6.649 11.9321 6.35006 11.8112 6.08346 11.7011C5.69864 11.5423 5.30736 11.4388 4.9152 11.313C4.47214 11.1709 4.00858 11.1125 3.56441 10.9671C3.20808 10.8505 2.84118 10.745 2.4903 10.6174C2.20438 10.5135 1.8832 10.2408 1.57568 10.2408" stroke="#A3CCE4" stroke-width="2" stroke-linecap="round"/>
<path d="M8.11252 7.47392C7.79295 7.68697 7.20034 7.52152 6.85204 7.46624C6.74715 7.44959 6.79904 7.22024 6.804 7.15496C6.84906 6.56172 7.04014 5.98042 7.30935 5.45253C7.54342 4.99353 7.89083 4.60878 8.13942 4.16131C8.22682 4.00399 8.07377 4.0598 7.9588 4.09213C7.61954 4.18755 7.15403 4.34295 6.97309 4.67626C6.82282 4.95306 8.11758 4.15143 7.83967 4.29965C7.20033 4.64063 6.72072 5.41186 6.45237 6.06356C6.39403 6.20525 6.35832 6.33948 6.26407 6.46515C6.182 6.57457 6.00736 6.62229 5.8913 6.68612C5.65903 6.81387 5.36054 6.92451 5.15538 7.09347C5.00834 7.21456 4.83888 7.33575 4.67501 7.43549C4.52734 7.52538 4.72506 7.41239 4.76532 7.38938C4.93152 7.29441 5.04973 7.13156 5.20726 7.03967C5.45556 6.89483 5.59049 6.76171 5.77217 6.52856C5.87841 6.39221 6.10266 6.12712 6.10266 5.93867C6.10266 5.86818 5.70982 6.14841 5.67417 6.17309C5.47052 6.31408 5.28104 6.46374 5.15346 6.69765C4.98821 7.0006 4.56983 7.24156 4.30801 7.45663C4.19454 7.54984 3.79886 7.78706 3.65086 7.64686C3.44328 7.4502 3.1744 7.30678 2.92455 7.18186C2.85115 7.14516 2.73639 7.15088 2.66323 7.12998C2.60949 7.11463 2.46948 7.04512 2.41344 7.10116C2.39074 7.12385 2.3826 7.23271 2.36924 7.26833C2.33756 7.3528 2.28171 7.44014 2.23282 7.5162C2.1731 7.60909 2.05468 7.79956 1.96958 7.8563C1.88904 7.90999 1.81662 7.98648 1.75629 8.06189C1.71328 8.11566 1.60476 8.16073 1.57952 8.21753C1.54554 8.29397 1.60394 8.38107 1.54877 8.45003C1.50605 8.50344 1.51299 8.58645 1.46423 8.64218C1.45498 8.65274 1.58114 8.64986 1.59873 8.64986C1.77551 8.64986 1.95228 8.64986 2.12906 8.64986C2.69543 8.64986 3.27128 8.56383 3.78921 8.8228C3.86675 8.86157 4.05279 8.93033 3.98904 9.0649C3.96186 9.12228 3.8785 9.13408 3.8238 9.13408C3.7352 9.13408 3.78822 9.17307 3.73541 9.20325C3.66834 9.24157 3.56518 9.30701 3.65663 9.30701C3.9258 9.30701 4.18075 9.27272 4.44443 9.23976C4.77549 9.19837 5.12483 9.29805 5.44936 9.19556C5.62135 9.14125 5.77656 8.87965 5.89899 8.75362C5.93343 8.71817 5.96816 8.62533 5.96816 8.70559C5.96816 8.83865 5.95742 8.9645 5.93357 9.09565C5.88625 9.35592 5.8644 9.59102 5.8644 9.86039C5.8644 9.96053 5.95823 9.92956 6.03733 9.92956C6.11569 9.92956 6.20469 9.79862 6.24677 9.7355C6.41665 9.48068 6.55613 9.28888 6.55613 8.96114C6.55613 8.87228 6.60103 8.63984 6.51386 8.58069C6.4527 8.53919 6.09591 8.47356 6.19874 8.35204C6.40713 8.10575 6.78693 7.99179 7.08646 7.9101C7.29534 7.85313 7.55252 7.75062 7.76666 7.75062C8.05509 7.75062 7.74137 7.90698 7.636 7.96582C7.58813 7.99255 7.15784 8.28835 7.39005 8.14644C7.72279 7.9431 8.19912 7.84093 8.58905 7.85437C8.72481 7.85906 8.85606 7.91547 8.99448 7.92163C9.1612 7.92904 9.3291 7.92355 9.49598 7.92355C9.63957 7.92355 9.85193 7.93247 9.96482 8.02923C10.1589 8.19557 10.127 8.5345 10.2146 8.75362C10.2655 8.8808 10.2562 9.07281 10.2838 9.21093C10.3085 9.33437 10.3393 9.46921 10.3587 9.58562C10.3887 9.76518 10.3952 9.95361 10.3952 10.1371C10.3952 10.3158 10.3952 10.4945 10.3952 10.6732C10.3952 10.8013 10.0552 11.0378 10.1877 11.0709" stroke="#A3CCE4" stroke-width="2" stroke-linecap="round"/>
<path d="M1.36816 9.30701C1.36816 9.51196 1.2644 9.67132 1.2644 9.87961C1.2644 10.0106 1.36295 10.1443 1.41044 10.2677C1.42833 10.3143 1.46993 10.3332 1.47192 10.3869C1.47382 10.4381 1.45463 10.5125 1.48922 10.554C1.52892 10.6017 1.51649 10.7458 1.5411 10.8134C1.57246 10.8997 1.59862 10.9895 1.63717 11.0709C1.72351 11.2532 1.81779 11.595 1.81779 11.7972C1.81779 11.9499 1.95613 12.0604 1.95613 12.2296C1.95613 12.3399 2.00831 12.4462 2.05221 12.5389C2.08503 12.6082 2.05989 12.7426 2.05989 12.8175C2.05989 13.1231 2.05989 13.4286 2.05989 13.7341" stroke="#A3CCE4" stroke-width="2" stroke-linecap="round"/>
<path d="M2.50952 11.486C2.65616 11.4972 2.84466 11.603 2.98605 11.6589C3.10031 11.7041 3.22358 11.7531 3.32423 11.8241C3.71357 12.099 4.29155 11.8815 4.69616 11.7896C5.1982 11.6754 5.60605 11.3041 5.96817 10.9518C6.07922 10.8437 6.18969 10.7323 6.29482 10.6213C6.46513 10.4415 6.38321 10.8072 6.38321 10.9326C6.38321 11.2265 6.39214 11.5401 6.42548 11.8318C6.45447 12.0854 6.53289 12.1642 6.80209 12.2123C7.20624 12.2844 7.61203 12.3191 8.00877 12.3852C8.07684 12.3966 8.16831 12.526 8.18939 12.585C8.27574 12.8268 8.25541 12.9364 7.9934 13.0424C6.63646 13.5912 5.24132 12.7707 3.86608 12.6696C3.76007 12.6618 3.63801 12.6491 3.53174 12.6696C3.50351 12.675 3.29647 12.752 3.40877 12.7657C3.5433 12.782 3.69924 12.8592 3.82381 12.9117C3.9171 12.951 3.97604 12.9817 4.02364 13.0769C4.05064 13.1309 4.13744 13.2432 4.07744 13.2499C3.94688 13.2644 3.60521 13.2153 3.93525 13.2153C4.33497 13.2153 4.61956 13.2591 4.93826 13.492C5.00134 13.5381 5.31589 13.9416 5.1381 13.9416C5.09531 13.9416 4.6093 13.9675 4.79992 13.8378C4.88055 13.783 5.1003 13.7393 5.1919 13.7341C5.32239 13.7266 5.31564 13.8731 5.33793 13.9762C5.36981 14.1237 5.26035 14.7371 5.41479 14.7371" stroke="#A3CCE4" stroke-width="2" stroke-linecap="round"/>
<path d="M3.06292 13.0424C2.91587 13.0505 2.8491 13.2499 3.01296 13.2499C3.11426 13.2499 3.17556 13.1655 3.27236 13.1461C3.4138 13.1178 3.53917 13.0769 3.68548 13.0769" stroke="#A3CCE4" stroke-width="2" stroke-linecap="round"/>
<path d="M6.17572 13.8033C6.35012 13.8142 6.57695 14.2812 6.67723 14.4124C6.80602 14.5808 6.86977 14.6266 6.7291 14.7525C6.63492 14.8367 6.49393 14.8562 6.38324 14.9273C6.26032 15.0063 6.16017 15.0639 6.05467 15.1694C5.88825 15.3358 5.7582 15.5403 5.57046 15.6863C5.46146 15.7711 5.27508 16.1908 5.55316 15.9822" stroke="#A3CCE4" stroke-width="2" stroke-linecap="round"/>
<path d="M6.86741 14.9446C6.82744 15.0045 7.02494 15.1021 7.06724 15.1444C7.12711 15.2043 7.10951 15.2827 7.10951 15.3616C7.10951 15.4486 7.09667 15.53 7.03266 15.5941C7.00633 15.6204 6.86244 15.6609 6.97501 15.6171C7.51827 15.4058 8.09324 15.1867 8.67936 15.1867C8.7913 15.1867 8.47158 15.2703 8.37 15.3174C8.30847 15.3459 8.19424 15.376 8.19323 15.375C8.00398 15.1858 7.48045 15.1739 7.23249 15.154C7.02537 15.1375 6.78909 15.1227 6.60993 15.2367C6.50748 15.3019 6.81277 15.1943 6.84051 15.179C7.05618 15.0601 7.21321 14.9046 7.37084 14.7217C7.50429 14.5669 8.27939 13.5459 8.56983 13.9224C8.88267 14.3279 8.9838 14.9151 9.41144 15.2328C9.68371 15.4351 10.0685 15.5442 10.3952 15.644C10.8027 15.7685 11.2223 15.7401 11.648 15.7401C11.7073 15.7401 11.475 15.8197 11.4328 15.8362C11.2763 15.8974 11.1242 15.9498 10.964 15.9995C10.6969 16.0824 10.427 16.2391 10.155 16.2935C9.93516 16.3375 9.76667 16.3626 9.53249 16.3626C9.4583 16.3626 9.3575 16.344 9.28846 16.3703C9.18708 16.409 9.22757 16.4459 9.16549 16.4991C9.05375 16.5948 8.87343 16.8772 8.87343 17.0371C8.87343 17.1524 8.87343 17.2677 8.87343 17.3829C8.87343 17.5023 8.73892 17.5811 8.73892 17.6577C8.73892 17.694 9.15619 17.6769 9.21929 17.6769C9.40545 17.6769 9.55845 17.7201 9.7304 17.773C10.0238 17.8633 10.286 18.0228 10.6028 18.0228C10.6933 18.0228 10.8457 18.0896 10.9409 18.1189C11.0483 18.1519 11.1609 18.1539 11.2599 18.2034C11.3548 18.2509 11.4404 18.2908 11.5366 18.3418C11.5852 18.3675 11.8748 18.4558 11.7441 18.3687" stroke="#A3CCE4" stroke-width="2" stroke-linecap="round"/>
<path d="M11.2945 16.8123C11.0749 16.8123 10.8809 16.9444 10.6719 17.0025C10.3986 17.0784 10.1473 16.9304 9.91101 16.8123" stroke="#A3CCE4" stroke-width="2" stroke-linecap="round"/>
<path d="M8.59684 16.3972C8.1902 16.3972 8.60483 15.6365 8.69291 15.4865C8.90707 15.1216 9.37205 14.8212 9.45766 14.3931C9.51108 14.126 9.61318 13.8552 9.68631 13.5919C9.7389 13.4026 9.75065 13.1843 9.83426 13.0078C9.88856 12.8932 9.98568 12.9004 10.0917 12.8425C10.2005 12.7832 10.1036 13.0978 10.1609 13.2076C10.1851 13.2539 10.2442 13.524 10.257 13.5112C10.3101 13.458 10.3953 13.3069 10.3953 13.2326C10.3953 13.2051 10.3953 13.0151 10.3953 13.0981C10.3953 13.2977 10.3607 13.4962 10.3607 13.6976C10.3607 13.8302 10.3607 13.9627 10.3607 14.0953C10.3607 14.218 10.3433 14.2329 10.4645 14.2606C10.6074 14.2932 10.7367 14.3497 10.8795 14.3835C11.0004 14.4122 11.1077 14.5157 11.2254 14.5296C11.3747 14.5471 11.5188 14.8754 11.6577 14.8754C11.7802 14.8754 11.8448 14.9776 11.9517 15.0311C12.0803 15.0953 12.1942 15.1517 12.3341 15.1867C12.6435 15.2641 12.9469 15.2981 13.2391 15.179C13.4587 15.0896 13.7249 14.8109 13.7925 14.5911C13.8462 14.4165 13.8882 14.1604 14.148 14.3048C14.3127 14.3963 14.4632 14.3671 14.6149 14.5104C14.7534 14.6412 14.8486 14.7135 15.0146 14.789C15.2366 14.8899 15.4456 15.0321 15.6717 15.1348C15.8463 15.2142 16.0588 15.2239 16.2136 15.3251C16.295 15.3783 16.3807 15.3778 16.4557 15.4288C16.5293 15.4789 16.5639 15.5621 16.6555 15.5672C16.8095 15.5757 16.9741 15.8054 17.0878 15.8938C17.2564 16.0249 17.6724 16.2437 17.3203 16.501C17.1195 16.6478 16.9157 16.7783 16.6901 16.8815C16.6207 16.9132 16.5236 16.9763 16.448 16.9852C16.3752 16.9938 16.3151 17.1047 16.2558 17.1216C16.1531 17.151 15.9868 17.438 15.9657 17.554C15.9261 17.7717 15.86 17.9678 15.86 18.1957C15.86 18.2967 15.8563 18.3985 15.86 18.4993C15.8628 18.5742 15.9256 18.65 15.9292 18.7145C15.9358 18.8331 15.954 18.9351 16.006 19.045C16.0389 19.1144 16.1148 19.0914 16.1348 19.1815C16.1522 19.2598 16.255 19.4244 16.3096 19.4927C16.3718 19.5705 16.5952 19.5863 16.6824 19.6561C16.8702 19.8063 17.0752 19.9251 17.3472 19.9251" stroke="#A3CCE4" stroke-width="2" stroke-linecap="round"/>
<path d="M15.9291 17.8845C15.9291 18.0923 15.9562 18.2965 15.9637 18.4993C15.9712 18.701 16.2338 18.3892 16.2404 18.3072C16.25 18.1865 16.3739 18.0761 16.3787 17.9459C16.3862 17.7432 16.5659 17.5935 16.5863 17.4002C16.6136 17.1408 16.8262 16.7811 16.9667 16.5625C17.0627 16.4131 17.2039 16.2841 17.2857 16.1205C17.3308 16.0303 17.3817 15.913 17.3817 15.8093C17.3817 15.6946 17.202 15.4272 17.1031 15.3942C16.993 15.3575 17.0069 15.2809 16.9456 15.2059C16.8838 15.1304 16.794 15.0557 16.7592 14.96C16.6959 14.786 16.564 14.6487 16.4652 14.495C16.3739 14.353 16.2372 14.2175 16.1558 14.078C16.1451 14.0595 16.0863 13.8785 16.0867 13.8782C16.1148 13.8595 16.1388 13.9244 16.1712 13.9339C16.2241 13.9495 16.2708 13.9499 16.3096 13.9935C16.4287 14.1275 16.5413 14.2268 16.6362 14.3758C16.6786 14.4424 16.7117 14.5273 16.7284 14.6026C16.7515 14.7062 16.8637 14.8408 16.7169 14.714C16.524 14.5474 16.3951 14.3572 16.2365 14.1626C16.1242 14.0247 15.9325 13.8801 15.8599 13.7168C15.8222 13.6318 15.5793 13.5266 15.7908 13.5266C16.013 13.5266 15.6989 13.285 15.6332 13.1884C15.5576 13.0772 15.4231 13.1183 15.3066 13.0692C15.0779 12.973 14.737 13.0108 14.5533 12.8271C14.0705 12.3443 14.0269 11.6786 14.0269 11.019C14.0269 10.8483 14.1544 10.9049 14.2997 10.8634C14.4103 10.8318 14.0298 10.3514 13.975 10.2966C13.8161 10.1377 13.761 9.9498 13.681 9.72972C13.5547 9.38241 13.3852 9.02736 13.3351 8.65178C13.3031 8.41186 13.2789 8.15706 13.2141 7.92354C13.165 7.74686 13.2026 7.48893 13.093 7.33557C12.944 7.12698 12.9626 6.79012 12.7817 6.60925" stroke="#A3CCE4" stroke-width="2" stroke-linecap="round"/>
<path d="M12.5396 6.67842C12.4948 6.92491 12.383 7.16904 12.3398 7.42395C12.3094 7.60261 12.2975 7.82942 12.2975 8.01C12.2975 8.45393 12.3493 8.90582 12.5819 9.29931C12.6545 9.42222 12.6788 9.58005 12.7625 9.69513C12.8675 9.83954 12.9139 10.015 13.0104 10.1544C13.11 10.2984 13.1357 10.4143 13.1641 10.5848C13.1754 10.6528 13.2355 10.7596 13.3005 10.7596" stroke="#A3CCE4" stroke-width="2" stroke-linecap="round"/>
<path d="M14.269 13.6303C14.174 13.6359 13.9923 13.8386 13.9923 13.6956C13.9923 13.4549 13.9014 13.3991 14.1306 13.2845" stroke="#A3CCE4" stroke-width="2" stroke-linecap="round"/>
<path d="M14.7185 12.489C14.848 12.489 14.9763 12.7116 15.1144 12.7618C15.1847 12.7874 15.2998 12.7794 15.3757 12.7925C15.5353 12.8202 15.6318 12.8888 15.7734 12.9559C15.9381 13.0339 16.0817 13.1466 16.2269 13.2306C16.391 13.3256 16.5813 13.4077 16.6727 13.5803C16.7306 13.6897 16.8629 13.8697 16.8629 13.9935C16.8629 14.0571 16.9296 14.0548 16.9321 14.1222C16.9346 14.1911 16.9146 14.2768 16.9494 14.3393C17.0075 14.4439 16.9667 14.6373 16.9667 14.7563C16.9667 14.9628 16.9845 15.1376 16.8802 15.3231C16.817 15.4354 16.4916 15.5236 16.371 15.5326C16.1341 15.5501 15.9923 15.7344 15.7907 15.8016C15.6897 15.8352 15.5621 16.0056 15.5486 16.1205C15.5369 16.2203 15.2766 16.2707 15.2104 16.2166C15.0363 16.0741 14.6148 15.828 14.6148 15.5672C14.6148 15.4386 14.4213 15.3194 14.3035 15.2636C14.2563 15.2412 14.2042 15.2031 14.1536 15.1886C14.0276 15.1526 14.4158 15.2027 14.5456 15.2213" stroke="#A3CCE4" stroke-width="2" stroke-linecap="round"/>
<path d="M15.5487 19.51C15.5487 19.4739 15.5515 19.4338 15.5141 19.414C15.4937 19.4031 15.445 19.4429 15.445 19.4197C15.445 19.3276 15.418 19.1911 15.4795 19.1296" stroke="#A3CCE4" stroke-width="2" stroke-linecap="round"/>
<path d="M15.4795 16.916C15.4795 17.2275 15.4449 18.1613 15.4449 17.8499" stroke="#A3CCE4" stroke-width="2" stroke-linecap="round"/>
<path d="M12.5051 9.61829C12.3373 9.59855 12.1479 9.50421 11.9863 9.57601C11.9336 9.59943 11.8854 9.64263 11.8306 9.65479C11.6748 9.68943 11.6919 9.91978 11.5636 9.99874C11.4513 10.0678 11.087 10.1408 11.087 9.96223C11.087 9.77093 11.1216 9.59709 11.1216 9.41077" stroke="#A3CCE4" stroke-width="2" stroke-linecap="round"/>
<path d="M10.0148 14.5642C10.177 14.333 10.2271 14.1126 10.3088 13.8494C10.3499 13.7167 10.3921 13.5702 10.3952 13.4305C10.3966 13.3671 10.3805 13.2901 10.4125 13.2326C10.5115 13.0544 10.4644 12.7844 10.4644 12.585C10.4644 12.1083 10.508 11.738 10.7334 11.3322C10.9149 11.0056 11.1812 10.5874 11.4751 10.3523C11.5194 10.3168 11.6512 10.3136 11.7095 10.2927C11.8028 10.2594 11.9063 10.2216 12.0016 10.2043C12.2528 10.1587 12.1591 9.77848 12.1591 9.58369" stroke="#A3CCE4" stroke-width="2" stroke-linecap="round"/>
<path d="M11.5712 8.75362C11.2908 8.20501 10.9875 7.67441 10.7065 7.12805C10.5877 6.89704 10.387 6.74797 10.3242 6.48628C10.2397 6.13417 10.044 5.82846 9.93026 5.48712C9.81042 5.12761 9.64827 4.75719 9.49601 4.40341C9.39808 4.17588 9.37434 4.11528 9.11555 4.11903C8.84216 4.12299 8.61421 4.38707 8.52758 4.63783C8.43483 4.90633 8.4564 5.33071 8.50068 5.60625C8.52678 5.76863 8.66449 6.10981 8.83886 6.15963C9.03859 6.2167 9.20426 6.39238 9.42107 6.44977C9.6809 6.51855 9.65232 6.47325 9.41146 6.32488C8.99308 6.06716 8.48757 6.0059 8.07796 5.74459C7.81753 5.57846 7.51542 5.51521 7.24404 5.37951C6.95967 5.23733 6.65945 5.02633 6.35056 4.94911C6.24842 4.92357 6.27472 4.8427 6.1757 4.93181C6.14473 4.95969 5.96983 5.14607 5.96626 5.13357C5.93921 5.03888 5.86934 4.89925 5.86442 4.81076C5.85818 4.69841 5.8267 4.49351 5.75298 4.40341C5.68863 4.32476 5.74606 4.29196 5.62232 4.29196C5.52986 4.29196 5.51916 4.15362 5.60503 4.15362C6.3479 4.15362 6.87977 3.54488 7.56685 3.31585C7.9283 3.19537 8.24172 2.98202 8.57946 2.82204C8.99841 2.62359 9.42961 2.46065 9.84187 2.24367C10.0146 2.15278 11.0097 1.52243 11.0543 1.67876C11.099 1.835 11.0829 2.08669 11.1831 2.22446C11.2508 2.31753 10.8384 2.3884 10.7603 2.407C10.6822 2.42561 10.4614 2.4398 10.4318 2.3359C10.3987 2.22003 10.4644 2.09049 10.4644 1.97467C10.4644 1.83464 10.4627 1.85124 10.328 1.8344C10.2001 1.81841 10.07 1.77626 9.93794 1.76715C9.83148 1.7598 9.73585 1.73256 9.62667 1.73256C9.53026 1.73256 9.45929 1.79611 9.36535 1.82863C9.19468 1.88771 8.96489 1.98232 8.82157 2.0938C8.71156 2.17936 8.5828 2.24104 8.45841 2.30324C8.32183 2.37153 8.16352 2.48273 8.02608 2.52613C7.76095 2.60985 7.57057 2.77903 7.35164 2.9354C7.09075 3.12175 6.78297 3.33696 6.48698 3.46381C6.41585 3.49429 6.29503 3.59327 6.24295 3.65403C6.16002 3.75079 5.9743 3.83329 6.24488 3.77316" stroke="#A3CCE4" stroke-width="2" stroke-linecap="round"/>
<path d="M10.8103 2.42429C10.53 2.66955 10.0494 2.76674 10.0494 3.21978C10.0494 3.50241 10.0384 3.66421 10.2224 3.89421C10.3702 4.07894 10.3607 3.27962 10.3607 3.80775C10.3607 4.18593 10.255 4.77301 10.4145 5.12203C10.4532 5.2067 10.3985 5.49498 10.5337 5.50248C10.6311 5.5079 10.6856 5.63128 10.7777 5.67734C10.8617 5.71933 10.9116 5.84244 11.0179 5.84835C11.1322 5.8547 11.2142 5.90484 11.3311 5.91944C11.5498 5.94679 11.8045 5.99933 12.0132 6.06355C12.2058 6.12281 12.5272 6.19629 12.1246 6.26339" stroke="#A3CCE4" stroke-width="2" stroke-linecap="round"/>
<path d="M9.87642 3.42729C10.0043 3.44328 9.83634 3.79385 9.80725 3.84233" stroke="#A3CCE4" stroke-width="2" stroke-linecap="round"/>
<path d="M14.0614 15.8093C14.0128 15.8639 14.0564 15.9968 13.975 16.0149C13.9062 16.0301 13.8206 16.0168 13.7501 16.0168C13.6672 16.0168 13.5945 16.0168 13.5253 15.963C13.4094 15.8728 13.2032 15.8784 13.0584 15.8784C12.9304 15.8784 12.5274 15.9306 12.505 16.1205C12.4845 16.2953 12.2975 16.3605 12.2975 16.5625C12.2975 16.7479 12.0619 16.7808 12.0554 16.9429C12.0485 17.1165 12.0463 17.2884 12.0977 17.4425C12.1608 17.6319 12.2873 17.932 12.2975 18.1266C12.3077 18.3193 12.4893 18.5125 12.5415 18.6953C12.5815 18.8353 12.8244 19.0452 12.9546 19.1104C13.2901 19.2781 13.6291 19.4107 14.0095 19.4389C14.3565 19.4646 15.0298 19.516 15.0298 19.0104C15.0298 18.8359 15.0704 18.5762 14.8223 18.5762C14.6037 18.5762 14.4547 18.8183 14.2516 18.8183C14.1648 18.8183 14.1156 18.9171 14.0268 18.9221C13.9673 18.9254 13.8989 18.9447 13.8366 18.9586C13.3728 19.0616 12.9264 18.8152 12.5742 18.507" stroke="#A3CCE4" stroke-linecap="round"/>
<path d="M5.69148 16.7085C5.68291 16.7771 5.61584 16.8739 5.58772 16.9372C5.52077 17.0878 5.43512 17.0561 5.30334 17.0966C5.18781 17.1322 5.09721 16.9136 5.07084 16.795C5.04642 16.6851 4.89992 16.5816 4.79991 16.6816C4.76144 16.7201 4.5746 16.8201 4.58663 16.8622C4.5975 16.9003 4.68722 16.8296 4.68078 16.8199C4.63035 16.7443 4.73992 16.6155 4.68078 16.5433C4.58665 16.4282 4.62245 16.7061 4.62314 16.7085C4.63877 16.7632 4.86659 17.068 4.68847 17.089C4.60709 17.0985 4.46467 17.1364 4.39448 17.1754C4.27525 17.2417 4.00139 17.1927 3.86608 17.1927C3.56541 17.1927 3.26589 17.2565 2.95914 17.2273C2.65714 17.1985 2.45435 16.9402 2.24051 16.7777C1.93983 16.5492 1.71403 16.1912 1.71403 15.8093C1.71403 15.4157 1.67944 15.0016 1.67944 14.5987C1.67944 14.4879 1.70493 14.3203 1.81779 14.2605C1.96955 14.1802 1.97751 14.4505 1.9888 14.5296C2.03285 14.8379 2.12907 15.1104 2.12907 15.4288C2.12907 15.5633 2.18541 15.6527 2.19824 15.7747C2.20688 15.8567 2.28699 15.8948 2.30008 15.9668C2.31804 16.0656 2.34651 16.1512 2.38847 16.2435C2.4058 16.2816 2.4372 16.3656 2.44035 16.4049C2.44874 16.5098 2.51708 16.4893 2.57869 16.5509C2.66976 16.642 2.76722 16.7415 2.89381 16.7777C3.31713 16.8986 3.81777 16.9147 4.25806 16.8795C4.44644 16.8644 4.72306 16.8264 4.72306 16.6047C4.72306 16.4606 4.75728 16.2121 4.84795 16.1013C5.0066 15.9074 5.11743 15.7356 5.2995 15.5595C5.46878 15.3957 5.6744 15.2933 5.86441 15.1598C5.97879 15.0794 6.07045 14.9992 6.21027 14.9792" stroke="#A3CCE4" stroke-linecap="round"/>
<path d="M14.6636 17.5029C14.6636 17.0206 14.5085 16.8614 14.0447 16.5398C13.1156 16.0575 12.6503 16.2183 12.4953 17.3422C12.3402 17.6637 12.4953 17.9837 12.6504 18.3053C13.4243 19.1091 14.6636 18.6268 14.6636 17.5029ZM13.1156 16.8614C13.2707 16.5398 13.2707 16.5398 13.7345 17.0221C14.1997 17.3437 14.1998 17.5044 14.0447 17.8245C13.7345 18.3068 13.2707 18.3068 13.1156 17.9853C12.8055 17.5029 12.8055 17.1829 13.1156 16.8614Z" fill="#A3CCE4"/>
<path d="M15.9027 18.6268C15.9027 16.7006 15.9027 16.7006 15.7477 16.7006C15.5926 16.7006 15.4374 19.7522 15.5925 20.0723C15.7491 20.3938 15.9027 19.9115 15.9027 18.6268Z" fill="#A3CCE4"/>
<path d="M1.1874 16.2183C1.1874 17.0206 1.3425 17.6637 1.49758 17.8245C1.49758 17.8245 2.58171 17.9852 3.97599 17.9852H6.29927V17.5029C6.29927 17.3422 6.45437 17.0206 6.60945 16.8614C6.91961 16.7006 7.53847 16.8614 7.38338 17.1829C7.38338 17.3437 7.22833 17.6652 7.22833 17.9852C7.07325 18.6268 7.22831 18.6268 8.00226 18.7876C8.4675 18.7876 8.77625 18.9484 11.4097 19.7507C12.0286 19.9115 12.6489 20.0723 12.804 20.0723C15.5926 20.7138 16.9869 21.1962 17.4507 21.6785C17.9159 21.8392 18.2246 22 18.3796 22C18.3796 21.8392 18.5348 21.3584 18.5348 20.8761C18.5348 20.3938 18.6898 19.913 18.6898 19.7522C18.6898 19.7522 18.3797 19.4307 18.0695 19.2699C17.7594 19.1091 17.4507 18.7876 17.4507 18.6283C17.2956 17.9868 17.6057 17.826 18.0695 18.146H18.5348C18.5348 17.9852 18.6898 17.3437 18.6898 16.7006C18.8449 16.059 19 15.2552 19 15.0944C19 14.9336 19 14.7728 18.8449 14.4528C17.7608 13.3289 17.4506 12.6858 17.2955 12.3658C17.2955 12.205 17.1404 12.0443 16.9853 12.0443C15.9012 12.0443 15.436 11.7227 16.0564 11.4012L16.3665 11.0796L15.7462 10.2773C15.2809 9.63571 14.507 8.19028 14.507 7.86873C14.507 7.70796 14.1969 7.22716 14.0418 6.74484C13.8867 6.10327 13.5765 5.29941 13.4229 4.97787C13.2678 4.17552 12.9576 4.01475 12.8025 4.65633C12.8025 5.13864 12.0286 5.13864 11.7184 4.65633C11.5633 4.49556 11.5634 4.17402 11.5634 4.01325C11.5634 3.69171 12.0286 3.2109 12.3373 3.37167C12.8025 3.53244 12.9562 3.2109 12.6475 2.08701C12.3373 0.96312 12.0286 0.16077 11.7184 0C11.4083 0 9.24004 0.641577 9.08496 0.641577C8.92988 0.802348 8.15596 1.12389 7.38055 1.6047C5.8312 2.24628 3.97309 3.69171 3.97309 4.17402C3.97309 4.33479 3.97306 4.33479 4.12814 4.49556C4.74702 4.65633 4.59339 5.61945 4.12814 5.94099C3.6629 6.26253 3.35424 6.10176 2.73392 5.45868C2.57884 5.29791 2.42377 5.29791 2.26869 5.29791C2.1136 5.13714 1.49468 6.10026 1.49468 6.26103C1.49468 6.26103 1.18452 6.58257 0.875806 6.90261C0.720726 7.22415 0.410562 7.70496 0.25693 8.0265C-0.0532313 8.66808 -0.0532058 9.95424 0.101875 10.1135C0.258405 10.2773 0.72361 13.0074 1.1874 16.2183ZM17.9173 19.7522C18.0724 19.7522 18.2275 19.913 18.2275 19.913C18.2275 19.913 18.0724 20.0738 17.9173 20.0738C17.7622 20.0738 17.7622 19.913 17.7622 19.913C17.7622 19.7522 17.7622 19.7522 17.9173 19.7522ZM17.4521 20.0723C17.297 20.8746 17.297 20.7138 17.297 19.9115C17.297 19.5899 17.297 19.4292 17.297 19.4292C17.4521 19.4307 17.4521 19.7522 17.4521 20.0723ZM0.878708 8.02951C1.03379 7.70796 2.273 6.10326 2.273 6.10326C2.273 6.10326 2.58313 6.10326 2.89329 6.42481C3.82233 7.22716 5.06159 6.58558 5.06159 5.30092C5.06159 4.8186 4.90649 4.3378 4.75141 4.3378C4.44125 3.85548 5.21661 3.21391 7.53993 2.09002C9.55308 0.966125 9.86323 0.966124 10.7923 0.966124C11.5662 0.966124 11.5662 0.966125 11.8764 1.44844C12.1865 2.09002 12.1865 2.89387 11.8764 2.89387C11.4111 2.89387 11.1025 3.37618 11.2561 4.17853C11.2561 5.14165 11.7213 5.62396 12.6504 5.46319C13.1156 5.46319 13.1156 5.46319 13.4243 6.26554C13.5794 6.74785 13.8896 7.5502 14.0432 8.03251C14.1983 8.83486 14.3533 9.31717 15.1273 10.4411C15.2824 10.7626 15.2824 11.0826 15.1273 11.2434C14.8171 11.7257 14.9722 11.885 15.9012 12.3673C16.8303 12.8496 17.4506 13.4912 17.7608 14.4543C17.9158 14.6151 17.6057 14.6151 17.4507 14.2935C17.2956 14.1328 16.8317 13.972 16.2114 13.8112C15.7462 13.4897 15.1273 13.3289 14.8171 13.1697C14.507 13.0089 14.0432 12.8481 13.733 12.8481C13.2678 12.6873 13.2678 12.5266 13.2678 12.2065C13.4228 11.7242 12.6475 10.9219 12.0286 10.9219C11.7184 10.9219 11.2546 11.0826 11.0995 11.5634C11.0995 11.7242 10.9445 11.5634 10.4793 11.4027C10.1691 11.2419 9.86033 11.2419 9.70525 11.2419C9.24001 11.2419 9.0864 10.9204 9.55019 10.7596C9.70528 10.5988 9.70525 10.2773 9.70525 9.95725C9.70525 9.47494 9.55017 8.99413 9.08637 8.83336C8.31242 8.35105 7.07327 9.1549 7.07327 10.118C7.07327 10.6003 7.07325 10.6003 6.14422 10.4396C4.90502 10.118 2.73678 9.47644 2.11646 9.31567C1.8063 9.31567 1.34251 9.1549 1.03235 9.1549C0.567106 9.1549 0.567111 9.1549 0.567111 8.83336C0.568561 8.51031 0.723627 8.19028 0.878708 8.02951ZM11.8764 11.8835C11.7213 11.7227 11.7213 11.7227 11.8764 11.5619C12.3416 11.2404 12.6504 11.7227 12.6504 12.8466C12.6504 13.649 12.4953 13.8097 12.0315 13.4882C11.7213 13.3274 11.7213 12.6858 12.0315 12.6858C12.1851 12.6858 12.1851 11.8835 11.8764 11.8835ZM8.9328 10.4381C8.46756 10.9204 8.00373 10.9204 7.69357 10.5988C7.53849 10.2773 7.53849 10.2773 7.69357 9.79647C7.84865 9.47493 8.00372 9.31416 8.1588 9.31416C8.31388 9.31416 8.3139 9.15339 8.46898 9.15339C8.46898 8.83185 9.08783 9.1534 9.24292 9.63571C9.398 9.95575 9.24297 10.1165 8.9328 10.4381ZM0.878708 9.6342C1.18887 9.79497 1.65266 9.95575 1.96282 9.95575C3.04694 10.1165 5.37024 10.7581 6.29927 11.0796C6.76451 11.2404 7.53849 11.4012 7.69357 11.4012C8.15881 11.4012 9.24294 11.5619 10.172 12.0443C10.4821 12.205 10.7908 12.205 10.9459 12.3658C11.2561 12.3658 11.2561 12.5266 11.2561 13.0074C11.4112 13.6505 11.5662 14.1313 11.8764 13.9705H12.0315C12.0315 14.1313 12.3417 14.292 12.6504 14.292C12.9605 14.292 13.1156 14.1313 13.2707 13.6505C13.4258 13.3289 13.4258 13.3289 13.5809 13.3289C14.1997 13.4897 16.2143 14.4528 16.9882 14.7743C17.4535 14.9351 17.9173 15.2567 18.0724 15.2567C18.2274 15.2567 18.2275 15.5782 18.2275 16.059C18.2275 17.0221 18.2275 17.1829 17.7622 17.3437C17.1434 17.3437 16.9882 17.9853 16.9882 19.2699C16.9882 19.913 16.8332 20.5546 16.8332 20.5546C16.523 20.5546 16.523 18.4676 16.523 17.0221C16.6781 16.3791 16.523 16.059 16.523 16.2198C16.3679 16.3805 16.2129 17.3437 16.2129 18.4676V20.3953L15.7477 20.2345C15.4375 20.0738 15.2824 19.913 15.2824 19.913V19.1106C15.1273 18.3083 14.9722 18.1475 14.8171 18.7891V19.1106C14.662 18.7891 14.0432 18.9499 13.8881 19.1106C13.578 19.4322 13.733 19.7537 14.0432 19.7537H13.733C13.4228 19.593 13.4229 19.593 13.4229 19.2714C13.4229 18.9499 13.2678 18.9499 13.1127 18.9499C12.9576 18.9499 12.8025 18.9499 12.8025 19.2714C12.8025 19.593 12.8025 19.593 12.4924 19.1106C12.3373 18.9499 12.1822 18.7891 12.0271 18.7891C11.872 18.7891 11.8721 18.7891 11.8721 18.7891C11.8721 18.6283 11.717 18.6283 11.5619 18.6283C11.4068 18.6283 11.2517 18.6283 11.4068 18.7891C11.4068 18.9499 11.4068 18.9499 11.2518 18.9499C11.2518 18.9499 11.0966 18.6283 11.0966 18.4676V18.6283L10.9416 18.9499L10.7865 18.4676C10.7865 18.3068 10.6314 18.146 10.4763 18.146C10.4763 18.146 10.4763 18.146 10.4763 18.4676C10.6314 18.7891 10.4763 18.9499 10.1662 18.7891C9.5473 18.6283 9.5473 18.3068 10.1662 18.3068C10.1662 18.3068 10.3212 18.3068 10.3212 18.146C10.3212 17.8245 10.1661 17.8245 9.85599 17.8245C9.54583 17.8245 9.39075 17.9852 9.39075 18.146C9.39075 18.4676 9.39075 18.4676 9.39075 18.4676C9.39075 18.4676 9.08061 18.4676 8.61682 18.3068L7.84289 18.146V17.3437C7.99797 16.5413 7.84289 16.2198 7.22401 16.2198C6.60514 16.2198 6.13988 16.3806 5.82972 17.0221C5.82972 17.3437 5.67464 17.5044 5.36448 17.5044H4.28037C3.35133 17.6652 2.11214 17.5044 2.11214 17.1829C2.11214 17.0221 1.95704 17.0221 1.80196 17.0221C1.64688 17.0221 1.64686 16.5398 1.49178 15.7375C1.3367 14.1313 1.02659 11.5619 0.562795 9.79647C0.413511 9.31416 0.568547 9.31417 0.878708 9.6342Z" fill="#A3CCE4"/>
<path d="M3.51074 16.7006C3.97598 16.7006 4.12959 16.5398 4.28467 16.2183C4.74991 15.4159 4.74991 14.7728 4.28467 14.4513C3.81943 14.1298 3.04548 13.969 2.73532 14.1298C2.27008 14.4513 2.11503 15.736 2.58027 16.3775C2.7368 16.5398 3.04695 16.7006 3.51074 16.7006ZM3.20205 14.4528C3.82092 14.1313 4.44122 15.0944 3.97598 15.7375C3.66582 16.2198 3.66581 16.2198 3.3571 16.059C2.73678 15.7375 2.58172 14.7728 3.20205 14.4528Z" fill="#A3CCE4"/>
</svg>
