<svg width="30" height="29" viewBox="0 0 30 29" fill="none" xmlns="http://www.w3.org/2000/svg">
<g clip-path="url(#clip0_26_45)">
<path d="M4.3751 24.7708L22.5445 7.20707M4.3751 24.7708L5.98871 23.211C7.31586 21.9281 7.57659 19.9396 6.6225 18.3772M4.3751 24.7708L9.58221 19.7373C10.7954 18.5645 10.7954 16.6631 9.58221 15.4903M4.3751 24.7708L14.0016 15.4652C14.7267 14.7643 14.7267 13.628 14.0016 12.9271M4.3751 24.7708L19.7469 9.91146C20.2278 9.44652 20.2278 8.69271 19.7469 8.22777M4.3751 24.7708L17.9791 11.6203C18.4601 11.1554 18.4601 10.4016 17.9791 9.93661M4.3751 24.7708L6.00736 23.193C7.33226 21.9122 9.37284 21.631 11.0153 22.5027M4.3751 24.7708L9.55619 19.7625C10.7838 18.5758 12.7741 18.5758 14.0016 19.7625M4.3751 24.7708L13.9756 15.4903C14.715 14.7756 15.9139 14.7756 16.6533 15.4903M4.3751 24.7708L19.7208 9.93661C20.2162 9.45779 21.0193 9.45779 21.5146 9.93662M4.3751 24.7708L17.9531 11.6455C18.4484 11.1666 19.2515 11.1666 19.7469 11.6455M8.24156 14.1688L8.90743 15.2416C9.44021 16.0999 9.15227 17.2133 8.26431 17.7283C7.97291 17.8973 7.63946 17.9866 7.29963 17.9866L5.96789 17.9866C4.93236 17.9866 4.09289 17.1751 4.09289 16.1741C4.09289 15.8456 4.18525 15.5233 4.3601 15.2416L5.02596 14.1688C5.55874 13.3104 6.71048 13.0321 7.59844 13.5471M8.24156 14.1688C8.08322 13.9137 7.86235 13.7002 7.59844 13.5471M8.24156 14.1688L8.74853 14.9886C8.91775 15.0371 9.09696 15.0631 9.28246 15.0631L10.6142 15.0631C10.954 15.0631 11.2875 14.9739 11.5789 14.8048C12.4668 14.2898 12.7548 13.1765 12.222 12.3181M7.59844 13.5471C7.54023 13.5133 7.48088 13.483 7.42065 13.456C7.41153 13.3892 7.40746 13.3204 7.40746 13.2506C7.40746 12.9221 7.49982 12.5998 7.67466 12.3181L8.34053 11.2453C8.8733 10.387 10.025 10.1086 10.913 10.6236M14.259 20.4147L15.3688 21.0584C15.6327 21.2115 15.8535 21.425 16.0119 21.6801C16.5447 22.5385 16.2567 23.6518 15.3688 24.1668M14.259 20.4147C13.371 19.8997 12.2193 20.1781 11.6865 21.0364C11.5117 21.3181 11.4193 21.6404 11.4193 21.9689L11.4193 23.2563C11.4193 24.2573 12.2588 25.0688 13.2943 25.0688C13.6341 25.0688 13.9676 24.9795 14.259 24.8105L15.3688 24.1668M14.259 20.4147L14.5203 20.5672C14.4704 20.4039 14.4436 20.2311 14.4436 20.0522L14.4436 18.7649C14.4436 18.4364 14.5359 18.114 14.7108 17.8323C15.2435 16.974 16.3953 16.6956 17.2832 17.2107M15.3688 24.1668C16.1985 23.6856 16.5043 22.6819 16.105 21.8531C16.1751 21.8608 16.2464 21.8647 16.3186 21.8647C16.6584 21.8647 16.9918 21.7754 17.2832 21.6064L18.393 20.9627C19.281 20.4477 19.5689 19.3344 19.0361 18.476M12.222 12.3181L11.5561 11.2453C11.3978 10.9902 11.1769 10.7767 10.913 10.6236M12.222 12.3181C12.2576 12.3755 12.2896 12.4341 12.318 12.4936L12.4519 12.4999L13.7836 12.4999C14.1234 12.4999 14.4569 12.4106 14.7483 12.2416C15.6363 11.7266 15.9242 10.6132 15.3914 9.75485L14.7255 8.68206C14.5672 8.42696 14.3463 8.21345 14.0824 8.06038C13.1945 7.54536 12.0427 7.8237 11.5099 8.68206L10.8441 9.75485C10.7071 9.97551 10.6208 10.2211 10.5913 10.4749C10.7012 10.5138 10.8089 10.5633 10.913 10.6236M19.0361 18.476C18.8778 18.2209 18.6569 18.0074 18.393 17.8543L17.2832 17.2107M19.0361 18.476C19.0986 18.5766 19.1498 18.6807 19.1898 18.7885C19.4526 18.7585 19.7066 18.675 19.9349 18.5426L21.0447 17.899C21.9326 17.384 22.2206 16.2706 21.6878 15.4122C21.5295 15.1571 21.3086 14.9436 21.0447 14.7906L19.9349 14.1469C19.0469 13.6319 17.8952 13.9102 17.3624 14.7686C17.1876 15.0503 17.0952 15.3726 17.0952 15.7011L17.0952 16.9884L17.1017 17.1179C17.1632 17.1453 17.2238 17.1762 17.2832 17.2107M18.3106 7.05294C18.8288 7.88787 18.5487 8.97081 17.685 9.47177C17.4016 9.63617 17.0772 9.72301 16.7467 9.72301L16.5599 9.72301C15.5526 9.72301 14.7361 8.93369 14.7361 7.96C14.7361 7.64047 14.8259 7.32694 14.996 7.05295C15.5452 6.16816 16.7324 5.88126 17.6476 6.41213C17.9197 6.56991 18.1473 6.78999 18.3106 7.05294ZM23.6139 12.1795C24.1321 13.0144 23.852 14.0973 22.9883 14.5983C22.7049 14.7627 22.3805 14.8495 22.05 14.8495L21.8632 14.8495C20.8559 14.8495 20.0394 14.0602 20.0394 13.0865C20.0394 12.767 20.1292 12.4535 20.2993 12.1795C20.8485 11.2947 22.0357 11.0078 22.9509 11.5387C23.223 11.6964 23.4506 11.9165 23.6139 12.1795ZM21.8461 5.3441C22.3643 6.17903 22.0842 7.26197 21.2205 7.76293C20.9371 7.92733 20.6128 8.01417 20.2822 8.01417L20.0954 8.01417C19.0882 8.01417 18.2716 7.22484 18.2716 6.25116C18.2716 5.93163 18.3615 5.6181 18.5315 5.3441C19.0807 4.45932 20.2679 4.17242 21.1832 4.70329C21.4552 4.86106 21.6829 5.08114 21.8461 5.3441ZM25.3816 8.76179C25.8999 9.59671 25.6198 10.6797 24.7561 11.1806C24.4726 11.345 24.1483 11.4319 23.8177 11.4319L23.631 11.4319C22.6237 11.4319 21.8072 10.6425 21.8072 9.66885C21.8072 9.34931 21.897 9.03578 22.0671 8.76179C22.6162 7.877 23.8034 7.5901 24.7187 8.12097C24.9907 8.27875 25.2184 8.49883 25.3816 8.76179ZM26.2655 4.48968C26.7837 5.32461 26.5037 6.40755 25.64 6.90851C25.3565 7.07291 25.0322 7.15975 24.7016 7.15975L24.5148 7.15975C23.5076 7.15975 22.691 6.37042 22.691 5.39674C22.691 5.07721 22.7809 4.76368 22.9509 4.48968C23.5001 3.6049 24.6873 3.318 25.6026 3.84887C25.8746 4.00664 26.1023 4.22672 26.2655 4.48968Z" stroke="#A3CCE4" stroke-linecap="round"/>
<path d="M11.7917 12.9588C11.6135 12.975 11.5307 13.0786 11.3369 13.0444C11.0945 13.0016 10.9526 12.8808 10.8072 12.6939C10.712 12.5715 10.5973 12.3186 10.5503 12.1775C10.4933 12.0063 10.5006 11.6171 10.3202 11.514C9.8714 11.2575 9.15185 11.6199 8.74708 11.803C8.29884 12.0057 8.41011 12.6533 8.42068 13.0551C8.44041 13.8047 9.35207 13.8738 9.89752 13.8738C10.1644 13.8738 10.973 14.0021 10.973 13.6062C10.973 13.2337 10.3235 13.2347 10.058 13.1514C9.86322 13.0903 9.80885 13.0399 9.98581 12.8865C10.0906 12.7957 10.1249 12.6154 10.2507 12.5735" stroke="#A3CCE4" stroke-width="2" stroke-linecap="round"/>
<path d="M11.5028 11.4177C11.6655 11.1509 11.7708 10.8691 11.8988 10.599C11.9765 10.4349 12.0413 10.2365 12.1396 10.08C12.2372 9.92448 12.429 9.74557 12.5997 9.67332C12.7378 9.61491 12.9286 9.56521 13.0546 9.49139C13.3761 9.30292 13.9147 9.32134 14.1515 9.58771C14.3252 9.78308 14.1996 10.4942 14.1996 10.7542C14.1996 11.1221 13.8759 11.2437 13.5736 11.3588C13.4203 11.4172 13.0525 11.4462 12.9208 11.3214C12.7518 11.1613 12.8512 10.6598 12.8512 10.4438C12.8512 10.0176 12.8512 9.59127 12.8512 9.16499C12.8512 9.05393 12.7866 8.74145 12.9475 8.81718C13.2058 8.93872 13.3964 9.11126 13.6699 9.20244" stroke="#A3CCE4" stroke-width="2" stroke-linecap="round"/>
<path d="M16.7519 7.85401C16.409 7.8883 16.9637 7.99849 16.7519 7.99849C16.6354 7.99849 16.1976 8.05457 16.1767 8.16971C16.119 8.48713 16.6485 8.68728 16.8964 8.6727C17.0443 8.664 17.0582 8.31107 17.0864 8.21252C17.2106 7.77755 17.0436 7.38594 16.6182 7.23866C16.421 7.1704 16.0875 7.21623 15.9627 7.39651C15.9325 7.44012 15.9375 7.49716 15.9038 7.53831C15.8871 7.55875 15.7741 7.61444 15.7995 7.65068C15.9021 7.79734 16.2671 7.7577 16.4148 7.7577" stroke="#A3CCE4" stroke-width="2" stroke-linecap="round"/>
<path d="M20.123 6.12035C20.2996 6.12035 20.4184 6.16851 20.5939 6.16851C20.8135 6.16851 20.8806 6.05507 20.6527 5.92772C20.2194 5.68556 19.9858 5.4742 19.497 5.74579C19.2092 5.90564 19.1293 6.73905 19.4381 6.85342C19.6926 6.94768 20.1112 7.01715 20.3638 6.89087" stroke="#A3CCE4" stroke-width="2" stroke-linecap="round"/>
<path d="M25.3241 5.25348C25.1511 5.09978 24.8211 5.0127 24.591 5.0127C24.167 5.0127 24.1201 5.25769 24.1201 5.60129C24.1201 5.94713 24.4912 5.88584 24.698 5.79392C24.8249 5.73755 24.8838 5.70286 24.9896 5.61467C25.1112 5.51336 25.2355 5.54243 24.9388 5.54243" stroke="#A3CCE4" stroke-width="2" stroke-linecap="round"/>
<path d="M24.0239 9.20245C24.0239 9.05162 24.0657 8.88867 23.8901 8.82789C23.746 8.77802 23.6047 8.82069 23.4914 8.88675C23.209 9.05152 23.0326 9.44964 23.3256 9.68403C23.4119 9.75308 23.4508 9.93653 23.569 9.9703C23.7058 10.0094 23.7549 10.0693 23.9275 10.0693C24.1106 10.0693 24.3326 10.0819 24.4332 9.90074C24.4858 9.80603 24.5692 9.54734 24.4573 9.4914" stroke="#A3CCE4" stroke-width="2" stroke-linecap="round"/>
<path d="M23.5423 9.92483C23.5307 9.8321 23.3302 9.86751 23.3015 9.92483" stroke="#A3CCE4" stroke-width="2" stroke-linecap="round"/>
<path d="M22.4346 12.2364C22.4249 12.1584 22.0655 12.1401 21.9905 12.1401C21.8144 12.1401 21.6319 12.2534 21.4955 12.3595C21.3829 12.4471 21.0983 12.6047 21.0862 12.7554C21.0785 12.8512 20.959 13.117 21.0621 13.1995C21.2015 13.3111 21.2216 13.4788 21.4019 13.5607C21.593 13.6476 21.9197 13.5848 22.135 13.5848C22.3792 13.5848 23.0219 12.937 22.7236 12.8624" stroke="#A3CCE4" stroke-width="2" stroke-linecap="round"/>
<path d="M20.0748 15.3667C20.0748 15.0793 19.8736 15.0786 19.6521 14.9814C19.5139 14.9207 19.5586 14.8369 19.3899 14.8369C19.2811 14.8369 19.1723 14.8369 19.0635 14.8369C18.8688 14.8369 18.6481 14.7838 18.507 14.9332C18.3509 15.0986 18.2948 15.2954 18.1512 15.463C17.9442 15.7044 18.0522 16.2227 18.0522 16.5225C18.0522 16.6494 18.1002 16.8014 18.1592 16.9077C18.2134 17.0052 18.3529 17.004 18.4482 17.004C18.6178 17.004 18.6548 17.1061 18.7933 17.1913C19.1043 17.3827 19.5019 17.4832 19.8795 17.3652C20.1924 17.2674 20.9981 16.873 21.038 16.4743C21.0522 16.3323 21.1623 16.1171 21.038 15.9927C20.8975 15.8522 20.5767 15.7695 20.3932 15.7305C20.1867 15.6867 19.9719 15.7038 19.7618 15.7038C19.6202 15.7038 19.522 15.9802 19.4006 16.0409" stroke="#A3CCE4" stroke-width="2" stroke-linecap="round"/>
<path d="M23.4459 6.98718C23.0491 7.00372 22.7763 7.62999 22.5309 7.87543C22.1982 8.20812 21.8984 8.58287 21.5677 8.9135" stroke="#A3CCE4" stroke-width="2" stroke-linecap="round"/>
<path d="M17.667 18.7377C17.4986 18.7377 17.4812 18.647 17.3781 18.5825C17.2439 18.4986 17.0855 18.4872 16.934 18.4006C16.475 18.1383 15.9595 18.2352 15.5722 18.5451C15.4337 18.6558 15.4518 18.9376 15.4518 19.0962C15.4518 19.3343 15.4036 19.5753 15.4036 19.8186C15.4036 20.0277 15.3849 20.2032 15.6016 20.2573C15.9374 20.3413 16.2631 20.3269 16.6076 20.3269C17.0769 20.3269 17.4617 20.2914 17.8008 19.9523C17.8972 19.856 18.0041 19.6454 18.0041 19.5082C18.0041 19.3793 17.8642 19.5608 17.849 19.5938C17.7711 19.7626 17.4888 19.913 17.362 20.0567C17.0776 20.379 16.6804 20.6979 16.2945 20.8807C15.9576 21.0403 15.5509 21.2331 15.2698 21.4934C14.8495 21.8826 14.2713 21.7716 13.7341 21.7716C13.6635 21.7716 13.097 21.8552 13.092 21.7716C13.0844 21.6423 13.3267 21.4711 13.092 21.5549C12.7873 21.6638 12.7342 21.8779 12.6345 22.1569C12.5442 22.4099 12.5315 23.0954 12.7175 23.302C12.8181 23.4138 12.9026 23.5997 13.0546 23.6605C13.3977 23.7977 13.8283 23.8693 14.1997 23.7836C14.6669 23.6757 15.1857 23.4085 15.4277 22.9783C15.769 22.3714 14.9149 21.8984 14.4565 21.6967C14.2846 21.6211 14.0104 21.5314 13.8652 21.4104C13.7706 21.3316 13.5066 21.3801 13.381 21.3382" stroke="#A3CCE4" stroke-width="2" stroke-linecap="round"/>
<path d="M7.9873 14.4035C7.79656 14.4035 7.53715 14.6466 7.36124 14.7299C7.21765 14.7979 6.98159 14.9314 6.8101 14.8824C6.74687 14.8643 7.16307 14.6443 6.86896 14.6443C6.62177 14.6443 6.30058 14.7153 6.08774 14.8369C5.80603 14.9979 5.57338 15.4656 5.40817 15.7252C5.29616 15.9012 5.27812 16.0238 5.29046 16.2335C5.2941 16.2955 5.41489 16.3493 5.46168 16.3833C5.56805 16.4607 5.63409 16.5862 5.70247 16.6937C6.12241 17.3536 7.32528 17.3142 7.77326 16.6776C7.91026 16.4829 8.09035 16.262 8.13444 16.0195C8.18914 15.7187 8.16545 15.6836 7.90168 15.5111C7.66387 15.3556 7.20592 15.24 7.07497 15.5673C6.94406 15.8946 7.15597 16.108 7.36124 15.8001" stroke="#A3CCE4" stroke-width="2" stroke-linecap="round"/>
</g>
<defs>
<clipPath id="clip0_26_45">
<rect width="30" height="29" fill="white"/>
</clipPath>
</defs>
</svg>
