<svg width="378" height="748" viewBox="0 0 378 748" fill="none" xmlns="http://www.w3.org/2000/svg">
<g filter="url(#filter0_d_82_14)">
<path d="M180 286.233L179.182 273.727L176.12 261.631L171.412 249.535L165.487 238.87L157.517 228.825L148.321 220.211L140.341 213.858L135.035 208.316L130.736 201.963L128.282 194.579L127.055 186.995L125.42 105.797L124.402 42.4443V38.7525L124.602 37.9331L125.22 36.9077L126.038 36.0873L126.447 34.8577L126.038 16.814L125.828 15.5835L125.011 14.7631L123.993 13.7376L123.784 12.9182V5.74175H123.375L122.766 2.66628L120.722 0.616296L117.649 0H66.1411L63.4879 0.616296L61.2337 2.66628L60.4157 5.74175V12.9182L60.0068 13.7376L59.1889 14.7631L58.1715 15.5835L57.962 16.814L57.3536 34.8577L57.5531 36.0873L58.5804 36.9077H58.7799L59.3984 37.9331L59.8073 38.7525V42.4443L58.5804 105.797L56.7352 186.995L55.7178 194.579L53.0546 201.963L49.1745 208.316L43.6586 213.858L35.679 220.211L26.283 228.825L18.7124 238.87L12.1691 249.535L7.68059 261.631L5.0174 273.727L4 286.233V706.974L5.0174 720.711L7.88008 733.827L9.10694 736.708L10.9522 739.16L13.5456 740H168.948L173.048 739.16L174.893 736.708L176.12 733.827L178.773 720.711L180 706.974V286.233Z" fill="#D5D5D5"/>
<path d="M301.158 704.143C297.654 702.711 294.634 685.218 294.634 685.218C293.003 673.702 298.258 540.795 298.258 540.795C300.674 533.325 336.92 505.934 336.92 505.934C368.573 487.819 377.15 447.293 373.043 413.304C369.599 384.793 359.029 356.904 350.511 329.762C350.149 328.58 345.8 311.896 343.746 307.725C343.685 307.85 343.685 307.974 343.625 308.099C344.048 308.659 344.229 309.219 344.229 309.78C344.229 310.029 344.229 310.278 344.108 310.527C342.296 316.627 317.288 321.483 286.721 321.483C286.66 321.483 286.6 321.483 286.6 321.483C286.539 321.483 286.539 321.483 286.479 321.483C286.177 321.483 285.935 321.483 285.633 321.483C285.513 321.483 285.392 321.483 285.271 321.483C285.09 321.483 284.908 321.483 284.727 321.483C256.004 321.296 232.627 316.814 229.546 311.087C229.305 310.651 229.244 310.215 229.244 309.78C229.244 309.344 229.305 308.908 229.546 308.535C229.546 308.472 229.546 308.472 229.486 308.41C219.217 338.976 208.827 370.039 201.941 401.601C195.9 428.991 198.739 462.358 214.445 485.827C220.063 494.169 227.492 500.954 236.131 505.934C236.131 505.934 272.344 533.325 274.76 540.795C274.76 540.795 280.62 672.457 278.989 683.973C278.989 683.973 275.425 702.649 271.861 704.143C271.861 704.143 223.445 707.38 220.727 719.021C220.727 719.021 212.935 732.281 248.937 737.821C248.937 737.821 282.251 739.502 286.298 739.937V740C286.298 740 286.419 740 286.539 740C286.66 740 286.721 740 286.721 740V739.937C290.768 739.502 324.114 737.821 324.114 737.821C360.116 732.281 352.323 719.021 352.323 719.021C349.666 707.38 301.158 704.143 301.158 704.143Z" fill="#D5D5D5"/>
<path d="M284.599 323C284.781 323 284.963 323 285.207 323C285.268 323 285.389 323 285.511 323C285.815 323 286.18 323 286.484 323C316.648 323 341.338 316.684 343.892 308.638C339.818 302.654 315.736 298 286.605 298C256.777 298 232.209 302.854 229.107 309.104C232.33 316.816 255.865 322.734 284.599 323V323Z" fill="#D5D5D5"/>
<path d="M229.47 310.957C232.552 317.591 255.941 322.784 284.618 323C256.062 322.784 232.734 316.293 229.47 308C229.228 308.433 229.107 308.937 229.107 309.442C229.107 309.947 229.228 310.452 229.47 310.957Z" fill="#D5D5D5"/>
<path d="M286.91 321.432C286.97 321.432 286.97 321.432 287.031 321.432C317.529 321.432 342.481 316.571 344.349 310.402C344.41 310.215 344.41 309.966 344.41 309.716C344.41 309.093 344.229 308.532 343.807 307.971C341.276 315.512 316.806 321.432 286.91 321.432Z" fill="#D5D5D5"/>
<rect width="176" height="283" transform="translate(4 287)" fill="#405C3F" fill-opacity="0.9"/>
<path d="M103.785 325.925C104.049 326.053 104.312 326.182 104.584 326.314C107.297 327.658 109.713 329.141 111.944 331.383C112.161 331.593 112.161 331.593 112.383 331.808C114.837 334.384 116.469 338.014 117.463 341.608C117.52 341.813 117.576 342.017 117.635 342.228C119.988 351.013 120.76 360.374 121.532 369.479C121.859 375.624 121.859 375.624 123.942 381.128C123.942 381.311 123.942 381.493 123.942 381.681C126.356 382.886 128.769 383.288 131.359 383.637C138.601 384.622 145.134 386.276 149.959 393.228C150.479 393.999 150.991 394.777 151.5 395.558C152.444 397.006 153.424 398.41 154.431 399.8C161.042 408.976 161.042 408.976 160.992 412.797C160.654 415.108 159.395 417.323 157.775 418.714C154.018 421.485 150.064 421.806 145.703 422.088C141.83 422.218 141.83 422.218 138.67 424.46C136.946 426.922 136.749 430.015 136.899 433.084C137.03 434.143 137.216 435.183 137.409 436.228C137.488 436.671 137.488 436.671 137.569 437.123C138.043 439.749 138.549 442.368 139.067 444.983C140.432 451.919 139.899 458.452 136.65 464.629C135.877 465.927 134.975 467.061 134.02 468.183C133.744 468.507 133.744 468.507 133.462 468.838C131.532 471.022 129.38 472.695 127.061 474.28C121.439 478.046 121.439 478.046 118.428 484.417C117.025 491.85 119.406 498.372 121.614 505.246C121.765 505.715 121.915 506.184 122.064 506.654C124.485 514.197 127.502 519.288 133.668 523.202C137.908 525.893 137.908 525.893 138.579 528.43C138.579 529.792 138.144 530.618 137.351 531.577C135.313 533.588 132.589 533.36 130.053 533.191C128.726 533.05 127.556 532.636 126.341 532.023C126.008 531.856 126.008 531.856 125.667 531.687C122.454 529.876 120.259 526.703 118.183 523.455C118.039 523.235 117.894 523.016 117.746 522.789C116.594 520.972 115.617 519.023 114.625 517.086C114.506 516.855 114.387 516.623 114.265 516.384C114.159 516.176 114.052 515.968 113.943 515.753C113.627 515.152 113.627 515.152 113.237 514.574C112.845 513.969 112.664 513.381 112.424 512.677C112.082 511.898 111.718 511.131 111.359 510.363C109.654 506.667 108.12 502.88 106.58 499.09C106.192 498.135 105.802 497.18 105.412 496.225C105.124 495.518 104.838 494.809 104.552 494.101C104.372 493.66 104.191 493.218 104.011 492.777C103.93 492.574 103.849 492.372 103.765 492.163C103.191 490.764 102.606 489.584 101.476 488.685C100.148 488.147 98.8739 488.038 97.5765 488.72C96.2755 490.615 95.9234 493.185 95.6418 495.525C95.6042 495.827 95.5665 496.13 95.5277 496.441C95.098 500.086 94.797 503.749 94.4871 507.409C94.46 507.726 94.4329 508.042 94.405 508.368C94.3269 509.289 94.251 510.209 94.1759 511.13C94.1527 511.404 94.1295 511.677 94.1056 511.959C93.7197 515.578 93.7197 515.578 94.4271 519.033C95.5828 520.236 97.1155 520.789 98.5663 521.348C103.902 523.52 103.902 523.52 105.225 526.219C105.702 527.513 105.8 528.637 105.495 530.002C104.982 531.436 104.293 532.219 103.065 532.852C100.894 533.564 98.6718 533.734 96.4242 533.837C96.1845 533.848 95.9449 533.86 95.698 533.871C93.1466 533.984 90.5969 534.005 88.0439 533.999C87.6719 533.999 87.6719 533.999 87.2923 533.999C81.429 533.991 75.5713 533.801 69.7113 533.589C68.6201 533.55 67.5289 533.512 66.4376 533.475C57.6938 533.176 57.6938 533.176 54.5716 533.03C54.2622 533.015 53.9529 533.001 53.6341 532.986C53.09 532.96 52.5459 532.933 52.0019 532.904C51.7743 532.892 51.5467 532.881 51.3122 532.87C51.1206 532.86 50.929 532.849 50.7316 532.839C50.2538 532.815 50.2538 532.815 49.7952 533.128C49.7952 532.946 49.7952 532.763 49.7952 532.575C49.5929 532.578 49.5929 532.578 49.3865 532.581C45.4039 532.626 41.4344 532.498 37.4565 532.282C36.8006 532.246 36.1446 532.214 35.4885 532.184C25.7605 531.737 25.7605 531.737 23.4001 528.983C23.212 528.766 23.0239 528.549 22.8302 528.326C21.9566 526.701 21.823 525.246 22.1946 523.42C22.4938 522.453 22.9053 521.583 23.3401 520.692C27.7042 511.701 25.542 501.767 24.2221 492.109C24.1857 491.843 24.1493 491.576 24.1118 491.302C24.0434 490.803 23.9745 490.304 23.9049 489.806C22.4055 478.934 23.5527 468.327 29.2557 459.27C30.5639 457.244 31.9779 455.376 33.4782 453.535C33.7498 453.18 34.0199 452.823 34.2881 452.464C36.6556 449.335 39.1101 446.202 41.8429 443.489C42.8635 442.47 43.8107 441.38 44.7561 440.27C45.8446 438.992 46.9482 437.764 48.1262 436.596C48.888 435.831 49.6165 435.025 50.3501 434.224C51.5951 432.876 52.861 431.584 54.1979 430.356C54.8725 429.733 55.527 429.086 56.1841 428.438C62.7313 422.178 70.0772 418.435 78.59 417.435C78.8813 417.401 79.1726 417.366 79.4728 417.33C82.4033 417.009 85.3361 416.924 88.2787 416.884C90.1608 416.854 92.0228 416.762 93.8956 416.535C94.1618 416.504 94.1618 416.504 94.4334 416.473C96.9276 416.142 98.8515 414.704 100.428 412.494C100.68 412.123 100.929 411.749 101.176 411.373C101.31 411.169 101.444 410.965 101.582 410.756C105.337 404.934 109.575 397.095 109.011 389.532C108.696 387.472 107.731 385.616 106.292 384.331C103.853 382.509 100.972 381.585 98.1856 380.757C97.2386 380.474 96.2949 380.177 95.3513 379.879C95.1665 379.821 94.9816 379.763 94.7912 379.702C91.0661 378.515 87.4833 376.951 84.109 374.772C83.9371 374.661 83.7653 374.55 83.5883 374.436C80.8212 372.627 78.3507 370.539 75.9504 368.139C75.8162 368.007 75.682 367.874 75.5436 367.737C70.4705 362.701 65.9061 354.93 65.0868 347.058C65.0399 345.879 65.0461 345.365 65.6773 344.389C67.6296 342.74 69.7227 342.93 72.0062 343.318C72.3559 343.376 72.3559 343.376 72.7127 343.436C77.7936 344.321 82.2522 346.59 86.8306 349.172C88.8573 350.315 90.8855 351.441 92.9573 352.473C93.1508 352.571 93.3442 352.669 93.5435 352.77C94.7756 353.372 95.991 353.762 97.3065 354.045C97.1658 350.713 96.9089 347.41 96.5867 344.096C96.1827 339.94 95.8174 335.777 95.8218 331.59C95.8221 331.284 95.8221 331.284 95.8224 330.972C95.8696 326.047 95.8696 326.047 96.8266 324.474C99.0695 323.168 101.682 324.864 103.785 325.925ZM83.4472 504.551C83.1769 504.869 82.9076 505.189 82.6392 505.509C81.6335 506.689 80.6262 507.838 79.5292 508.906C79.206 509.226 78.8903 509.556 78.5806 509.893C76.9118 511.699 75.0874 513.224 73.235 514.769C71.1045 516.456 71.1045 516.456 69.2317 518.481C69.1715 519.206 69.1715 519.206 69.2317 519.863C72.8151 522.124 78.7003 521.858 82.5755 520.651C83.7543 520.167 84.256 519.8 84.8288 518.481C85.2716 516.943 85.1134 515.241 85.1132 513.638C85.1138 513.036 85.1181 512.434 85.1227 511.832C85.1318 509.126 84.9348 506.509 84.5889 503.833C84.0157 503.77 84.0157 503.77 83.4472 504.551Z" fill="#D5D5D5"/>
</g>
<defs>
<filter id="filter0_d_82_14" x="0" y="0" width="378" height="748" filterUnits="userSpaceOnUse" color-interpolation-filters="sRGB">
<feFlood flood-opacity="0" result="BackgroundImageFix"/>
<feColorMatrix in="SourceAlpha" type="matrix" values="0 0 0 0 0 0 0 0 0 0 0 0 0 0 0 0 0 0 127 0" result="hardAlpha"/>
<feOffset dy="4"/>
<feGaussianBlur stdDeviation="2"/>
<feComposite in2="hardAlpha" operator="out"/>
<feColorMatrix type="matrix" values="0 0 0 0 0 0 0 0 0 0 0 0 0 0 0 0 0 0 0.25 0"/>
<feBlend mode="normal" in2="BackgroundImageFix" result="effect1_dropShadow_82_14"/>
<feBlend mode="normal" in="SourceGraphic" in2="effect1_dropShadow_82_14" result="shape"/>
</filter>
</defs>
</svg>
