<svg width="426" height="620" viewBox="0 0 426 620" fill="none" xmlns="http://www.w3.org/2000/svg">
<path d="M6.00017 100.405L11.0047 133.505C22.6825 210.859 26.5931 224.492 44.6879 249.671C68.4599 282.749 94.4966 295.741 158.392 306.431L212.583 315.39L229.75 345.713C251.636 384.292 308.434 514.151 317.584 546.501C324.274 570.15 323.705 571.863 304.923 587.203C294.131 596.018 284.108 607.589 282.583 612.877C280.251 620.961 291.928 617.212 355.971 589.233C421.666 560.533 430.319 555.605 418.965 553.41C411.726 552.011 396.142 551.795 384.398 552.944C370.792 554.275 360.14 551.378 354.996 545.033C336.617 522.359 306.982 460.615 277.524 383.537L246.231 301.613L272.905 262.631C333.878 173.578 332.107 130.256 264.181 42.8488L234.063 4L120.08 52.1816L6 100.406L6.00017 100.405Z" fill="white" stroke="#A3CCE4" stroke-width="5"/>
<path d="M22.3208 150.429C28.5942 290.165 134.611 308.189 222.193 298.825C246.507 296.178 323.802 186.188 306.288 149.982L22.3208 150.429Z" fill="#A3CCE4"/>
</svg>
