<svg width="162" height="396" viewBox="0 0 162 396" fill="none" xmlns="http://www.w3.org/2000/svg">
<path d="M94.5688 363.606C91.3255 362.324 88.5296 346.663 88.5296 346.663C87.0198 336.353 91.8847 217.366 91.8847 217.366C94.1215 210.678 127.674 186.156 127.674 186.156C156.976 169.938 164.916 133.657 161.114 103.228C157.926 77.7027 148.141 52.7351 140.256 28.4359C139.921 27.377 135.894 12.441 133.993 8.70697C133.937 8.81843 133.937 8.9299 133.881 9.04136C134.273 9.54294 134.441 10.0445 134.441 10.5461C134.441 10.769 134.441 10.992 134.329 11.2149C132.651 16.6766 109.501 21.0236 81.2043 21.0236C81.1483 21.0236 81.0924 21.0236 81.0924 21.0236C81.0365 21.0236 81.0365 21.0236 80.9806 21.0236C80.701 21.0236 80.4773 21.0236 80.1977 21.0236C80.0859 21.0236 79.974 21.0236 79.8622 21.0236C79.6944 21.0236 79.5267 21.0236 79.3589 21.0236C52.7695 20.8564 31.129 16.8438 28.2771 11.7165C28.0534 11.3264 27.9975 10.9362 27.9975 10.5461C27.9975 10.156 28.0534 9.76587 28.2771 9.43148C28.2771 9.37575 28.2771 9.37575 28.2212 9.32002C18.715 36.6842 9.09698 64.4943 2.72224 92.7502C-2.86964 117.272 -0.241449 147.144 14.2974 168.155C19.4979 175.623 26.3759 181.698 34.3723 186.156C34.3723 186.156 67.8956 210.678 70.1323 217.366C70.1323 217.366 75.5564 335.238 74.0466 345.549C74.0466 345.549 70.7474 362.268 67.4482 363.606C67.4482 363.606 22.6293 366.504 20.113 376.925C20.113 376.925 12.8995 388.796 46.2271 393.756C46.2271 393.756 77.0663 395.261 80.8128 395.651V395.707C80.8128 395.707 80.9247 395.707 81.0365 395.707C81.1483 395.707 81.2043 395.707 81.2043 395.707V395.651C84.9508 395.261 115.82 393.756 115.82 393.756C149.147 388.796 141.934 376.925 141.934 376.925C139.473 366.504 94.5688 363.606 94.5688 363.606Z" fill="#A3CCE4"/>
<path d="M79.6499 20.9782C79.8173 20.9782 79.9846 20.9782 80.2078 20.9782C80.2636 20.9782 80.3752 20.9782 80.4868 20.9782C80.7657 20.9782 81.1005 20.9782 81.3795 20.9782C109.054 20.9782 131.706 15.6778 134.05 8.92688C130.312 3.90551 108.218 0 81.4911 0C54.1246 0 31.5842 4.07289 28.7388 9.31743C31.6958 15.7894 53.2877 20.755 79.6499 20.9782V20.9782Z" fill="#A3CCE4"/>
<path d="M28.683 11.6607C31.5285 16.7937 53.1204 20.8108 79.5941 20.9782C53.2319 20.8108 31.6958 15.7894 28.683 9.37323C28.4598 9.70799 28.3483 10.0985 28.3483 10.4891C28.3483 10.8796 28.4598 11.2702 28.683 11.6607Z" fill="#A3CCE4"/>
<path d="M81.3795 20.9782C81.4353 20.9782 81.4353 20.9782 81.4911 20.9782C109.724 20.9782 132.822 16.6263 134.552 11.1028C134.608 10.9354 134.608 10.7123 134.608 10.4891C134.608 9.93115 134.44 9.42902 134.05 8.92688C131.706 15.6778 109.055 20.9782 81.3795 20.9782Z" fill="#A3CCE4"/>
</svg>
